  0
SECTION
  2
HEADER
  9
$ACADVER
  1
AC1014
  9
$HANDSEED
  5
FFFF
  9
$MEASUREMENT
 70
     1
  0
ENDSEC
  0
SECTION
  2
TABLES
  0
TABLE
  2
VPORT
  5
8
330
0
100
AcDbSymbolTable
 70
     4
  0
VPORT
  5
2E
330
8
100
AcDbSymbolTableRecord
100
AcDbViewportTableRecord
  2
*ACTIVE
 70
     0
 10
0.0
 20
0.0
 11
1.0
 21
1.0
 12
210.0
 22
148.5
 13
0.0
 23
0.0
 14
10.0
 24
10.0
 15
10.0
 25
10.0
 16
0.0
 26
0.0
 36
1.0
 17
0.0
 27
0.0
 37
0.0
 40
341.0
 41
1.24
 42
50.0
 43
0.0
 44
0.0
 50
0.0
 51
0.0
 71
     0
 72
   100
 73
     1
 74
     3
 75
     0
 76
     0
 77
     0
 78
     0
  0
ENDTAB
  0
TABLE
  2
LTYPE
  5
5
330
0
100
AcDbSymbolTable
 70
     1
  0
LTYPE
  5
14
330
5
100
AcDbSymbolTableRecord
100
AcDbLinetypeTableRecord
  2
BYBLOCK
 70
     0
  3

 72
    65
 73
     0
 40
0.0
  0
LTYPE
  5
15
330
5
100
AcDbSymbolTableRecord
100
AcDbLinetypeTableRecord
  2
BYLAYER
 70
     0
  3

 72
    65
 73
     0
 40
0.0
  0
LTYPE
  5
16
330
5
100
AcDbSymbolTableRecord
100
AcDbLinetypeTableRecord
  2
CONTINUOUS
 70
     0
  3
Solid line
 72
    65
 73
     0
 40
0.0
  0
ENDTAB
  0
TABLE
  2
LAYER
  5
2
100
AcDbSymbolTable
 70
1
  0
LAYER
  5
50
100
AcDbSymbolTableRecord
100
AcDbLayerTableRecord
  2
0
 70
0
  6
CONTINUOUS
  0
ENDTAB
  0
TABLE
  2
STYLE
  5
3
330
0
100
AcDbSymbolTable
 70
     1
  0
STYLE
  5
11
330
3
100
AcDbSymbolTableRecord
100
AcDbTextStyleTableRecord
  2
STANDARD
 70
     0
 40
0.0
 41
1.0
 50
0.0
 71
     0
 42
2.5
  3
txt
  4

  0
ENDTAB
  0
TABLE
  2
VIEW
  5
6
330
0
100
AcDbSymbolTable
 70
     0
  0
ENDTAB
  0
TABLE
  2
UCS
  5
7
330
0
100
AcDbSymbolTable
 70
     0
  0
ENDTAB
  0
TABLE
  2
APPID
  5
9
330
0
100
AcDbSymbolTable
 70
     2
  0
APPID
  5
12
330
9
100
AcDbSymbolTableRecord
100
AcDbRegAppTableRecord
  2
ACAD
 70
     0
  0
ENDTAB
  0
TABLE
  2
DIMSTYLE
  5
A
330
0
100
AcDbSymbolTable
 70
     1
  0
DIMSTYLE
105
27
330
A
100
AcDbSymbolTableRecord
100
AcDbDimStyleTableRecord
  2
ISO-25
 70
     0
  3

  4

  5

  6

  7

 40
1.0
 41
2.5
 42
0.625
 43
3.75
 44
1.25
 45
0.0
 46
0.0
 47
0.0
 48
0.0
140
2.5
141
2.5
142
0.0
143
0.03937007874016
144
1.0
145
0.0
146
1.0
147
0.625
 71
     0
 72
     0
 73
     0
 74
     0
 75
     0
 76
     0
 77
     1
 78
     8
170
     0
171
     3
172
     1
173
     0
174
     0
175
     0
176
     0
177
     0
178
     0
270
     2
271
     2
272
     2
273
     2
274
     3
340
11
275
     0
280
     0
281
     0
282
     0
283
     0
284
     8
285
     0
286
     0
287
     3
288
     0
  0
ENDTAB
  0
TABLE
  2
BLOCK_RECORD
  5
1
330
0
100
AcDbSymbolTable
 70
     1
  0
BLOCK_RECORD
  5
1F
330
1
100
AcDbSymbolTableRecord
100
AcDbBlockTableRecord
  2
*MODEL_SPACE
  0
BLOCK_RECORD
  5
1B
330
1
100
AcDbSymbolTableRecord
100
AcDbBlockTableRecord
  2
*PAPER_SPACE
  0
ENDTAB
  0
ENDSEC
  0
SECTION
  2
BLOCKS
  0
BLOCK
  5
20
330
1F
100
AcDbEntity
  8
0
100
AcDbBlockBegin
  2
*MODEL_SPACE
 70
     0
 10
0.0
 20
0.0
 30
0.0
  3
*MODEL_SPACE
  1

  0
ENDBLK
  5
21
330
1F
100
AcDbEntity
  8
0
100
AcDbBlockEnd
  0
BLOCK
  5
1C
330
1B
100
AcDbEntity
 67
     1
  8
0
100
AcDbBlockBegin
  2
*PAPER_SPACE
  1

  0
ENDBLK
  5
1D
330
1B
100
AcDbEntity
 67
     1
  8
0
100
AcDbBlockEnd
  0
ENDSEC
  0
SECTION
  2
ENTITIES
  0
LINE
  5
100
100
AcDbEntity
  8
0
 62
7
100
AcDbLine
 10
100.027108
 20
223.260717
 30
0.0
 11
106.027113
 21
223.260717
 31
0.0
  0
LINE
  5
101
100
AcDbEntity
  8
0
 62
7
100
AcDbLine
 10
106.027113
 20
223.260717
 30
0.0
 11
106.027113
 21
219.260714
 31
0.0
  0
LINE
  5
102
100
AcDbEntity
  8
0
 62
7
100
AcDbLine
 10
106.027113
 20
219.260714
 30
0.0
 11
112.027118
 21
219.260714
 31
0.0
  0
LINE
  5
103
100
AcDbEntity
  8
0
 62
7
100
AcDbLine
 10
112.027118
 20
219.260714
 30
0.0
 11
112.027118
 21
223.260717
 31
0.0
  0
LINE
  5
104
100
AcDbEntity
  8
0
 62
7
100
AcDbLine
 10
112.027118
 20
223.260717
 30
0.0
 11
118.027123
 21
223.260717
 31
0.0
  0
LINE
  5
105
100
AcDbEntity
  8
0
 62
7
100
AcDbLine
 10
118.027123
 20
223.260717
 30
0.0
 11
118.027123
 21
219.260714
 31
0.0
  0
LINE
  5
106
100
AcDbEntity
  8
0
 62
7
100
AcDbLine
 10
118.027123
 20
219.260714
 30
0.0
 11
124.027128
 21
219.260714
 31
0.0
  0
LINE
  5
107
100
AcDbEntity
  8
0
 62
7
100
AcDbLine
 10
124.027128
 20
219.260714
 30
0.0
 11
124.027128
 21
223.260717
 31
0.0
  0
LINE
  5
108
100
AcDbEntity
  8
0
 62
7
100
AcDbLine
 10
124.027128
 20
223.260717
 30
0.0
 11
130.027132
 21
223.260717
 31
0.0
  0
LINE
  5
109
100
AcDbEntity
  8
0
 62
7
100
AcDbLine
 10
130.027132
 20
223.260717
 30
0.0
 11
130.027132
 21
219.260714
 31
0.0
  0
LINE
  5
10a
100
AcDbEntity
  8
0
 62
7
100
AcDbLine
 10
130.027132
 20
219.260714
 30
0.0
 11
139.777140
 21
219.260714
 31
0.0
  0
LINE
  5
10b
100
AcDbEntity
  8
0
 62
7
100
AcDbLine
 10
139.777140
 20
219.260714
 30
0.0
 11
139.777140
 21
223.260717
 31
0.0
  0
LINE
  5
10c
100
AcDbEntity
  8
0
 62
7
100
AcDbLine
 10
139.777140
 20
223.260717
 30
0.0
 11
149.527147
 21
223.260717
 31
0.0
  0
LINE
  5
10d
100
AcDbEntity
  8
0
 62
7
100
AcDbLine
 10
149.527147
 20
223.260717
 30
0.0
 11
149.527147
 21
214.010710
 31
0.0
  0
LINE
  5
10e
100
AcDbEntity
  8
0
 62
7
100
AcDbLine
 10
149.527147
 20
214.010710
 30
0.0
 11
145.527144
 21
214.010710
 31
0.0
  0
LINE
  5
10f
100
AcDbEntity
  8
0
 62
7
100
AcDbLine
 10
145.527144
 20
214.010710
 30
0.0
 11
145.527144
 21
204.760702
 31
0.0
  0
LINE
  5
110
100
AcDbEntity
  8
0
 62
7
100
AcDbLine
 10
145.527144
 20
204.760702
 30
0.0
 11
149.527147
 21
204.760702
 31
0.0
  0
LINE
  5
111
100
AcDbEntity
  8
0
 62
7
100
AcDbLine
 10
149.527147
 20
204.760702
 30
0.0
 11
149.527147
 21
198.760697
 31
0.0
  0
LINE
  5
112
100
AcDbEntity
  8
0
 62
7
100
AcDbLine
 10
149.527147
 20
198.760697
 30
0.0
 11
145.527144
 21
198.760697
 31
0.0
  0
LINE
  5
113
100
AcDbEntity
  8
0
 62
7
100
AcDbLine
 10
145.527144
 20
198.760697
 30
0.0
 11
145.527144
 21
192.760694
 31
0.0
  0
LINE
  5
114
100
AcDbEntity
  8
0
 62
7
100
AcDbLine
 10
145.527144
 20
192.760694
 30
0.0
 11
149.527147
 21
192.760694
 31
0.0
  0
LINE
  5
115
100
AcDbEntity
  8
0
 62
7
100
AcDbLine
 10
149.527147
 20
192.760694
 30
0.0
 11
149.527147
 21
186.760686
 31
0.0
  0
LINE
  5
116
100
AcDbEntity
  8
0
 62
7
100
AcDbLine
 10
149.527147
 20
186.760686
 30
0.0
 11
145.527144
 21
186.760686
 31
0.0
  0
LINE
  5
117
100
AcDbEntity
  8
0
 62
7
100
AcDbLine
 10
145.527144
 20
186.760686
 30
0.0
 11
145.527144
 21
180.760681
 31
0.0
  0
LINE
  5
118
100
AcDbEntity
  8
0
 62
7
100
AcDbLine
 10
145.527144
 20
180.760681
 30
0.0
 11
149.527147
 21
180.760681
 31
0.0
  0
LINE
  5
119
100
AcDbEntity
  8
0
 62
7
100
AcDbLine
 10
149.527147
 20
180.760681
 30
0.0
 11
149.527147
 21
174.760676
 31
0.0
  0
LINE
  5
11a
100
AcDbEntity
  8
0
 62
7
100
AcDbLine
 10
149.527147
 20
174.760676
 30
0.0
 11
145.527144
 21
174.760676
 31
0.0
  0
LINE
  5
11b
100
AcDbEntity
  8
0
 62
7
100
AcDbLine
 10
145.527144
 20
174.760676
 30
0.0
 11
145.527144
 21
168.760674
 31
0.0
  0
LINE
  5
11c
100
AcDbEntity
  8
0
 62
7
100
AcDbLine
 10
145.527144
 20
168.760674
 30
0.0
 11
149.527147
 21
168.760674
 31
0.0
  0
LINE
  5
11d
100
AcDbEntity
  8
0
 62
7
100
AcDbLine
 10
149.527147
 20
168.760674
 30
0.0
 11
149.527147
 21
162.760669
 31
0.0
  0
LINE
  5
11e
100
AcDbEntity
  8
0
 62
7
100
AcDbLine
 10
149.527147
 20
162.760669
 30
0.0
 11
145.527144
 21
162.760669
 31
0.0
  0
LINE
  5
11f
100
AcDbEntity
  8
0
 62
7
100
AcDbLine
 10
145.527144
 20
162.760669
 30
0.0
 11
145.527144
 21
156.760664
 31
0.0
  0
LINE
  5
120
100
AcDbEntity
  8
0
 62
7
100
AcDbLine
 10
145.527144
 20
156.760664
 30
0.0
 11
149.527147
 21
156.760664
 31
0.0
  0
LINE
  5
121
100
AcDbEntity
  8
0
 62
7
100
AcDbLine
 10
149.527147
 20
156.760664
 30
0.0
 11
149.527147
 21
150.760659
 31
0.0
  0
LINE
  5
122
100
AcDbEntity
  8
0
 62
7
100
AcDbLine
 10
149.527147
 20
150.760659
 30
0.0
 11
145.527144
 21
150.760659
 31
0.0
  0
LINE
  5
123
100
AcDbEntity
  8
0
 62
7
100
AcDbLine
 10
145.527144
 20
150.760659
 30
0.0
 11
145.527144
 21
144.760654
 31
0.0
  0
LINE
  5
124
100
AcDbEntity
  8
0
 62
7
100
AcDbLine
 10
145.527144
 20
144.760654
 30
0.0
 11
149.527147
 21
144.760654
 31
0.0
  0
LINE
  5
125
100
AcDbEntity
  8
0
 62
7
100
AcDbLine
 10
149.527147
 20
144.760654
 30
0.0
 11
149.527147
 21
138.760649
 31
0.0
  0
LINE
  5
126
100
AcDbEntity
  8
0
 62
7
100
AcDbLine
 10
149.527147
 20
138.760649
 30
0.0
 11
145.527144
 21
138.760649
 31
0.0
  0
LINE
  5
127
100
AcDbEntity
  8
0
 62
7
100
AcDbLine
 10
145.527144
 20
138.760649
 30
0.0
 11
145.527144
 21
132.760642
 31
0.0
  0
LINE
  5
128
100
AcDbEntity
  8
0
 62
7
100
AcDbLine
 10
145.527144
 20
132.760642
 30
0.0
 11
149.527147
 21
132.760642
 31
0.0
  0
LINE
  5
129
100
AcDbEntity
  8
0
 62
7
100
AcDbLine
 10
149.527147
 20
132.760642
 30
0.0
 11
149.527147
 21
126.760637
 31
0.0
  0
LINE
  5
12a
100
AcDbEntity
  8
0
 62
7
100
AcDbLine
 10
149.527147
 20
126.760637
 30
0.0
 11
145.527144
 21
126.760637
 31
0.0
  0
LINE
  5
12b
100
AcDbEntity
  8
0
 62
7
100
AcDbLine
 10
145.527144
 20
126.760637
 30
0.0
 11
145.527144
 21
117.510631
 31
0.0
  0
LINE
  5
12c
100
AcDbEntity
  8
0
 62
7
100
AcDbLine
 10
145.527144
 20
117.510631
 30
0.0
 11
149.527147
 21
117.510631
 31
0.0
  0
LINE
  5
12d
100
AcDbEntity
  8
0
 62
7
100
AcDbLine
 10
149.527147
 20
117.510631
 30
0.0
 11
149.527147
 21
108.260623
 31
0.0
  0
LINE
  5
12e
100
AcDbEntity
  8
0
 62
7
100
AcDbLine
 10
149.527147
 20
108.260623
 30
0.0
 11
139.777140
 21
108.260623
 31
0.0
  0
LINE
  5
12f
100
AcDbEntity
  8
0
 62
7
100
AcDbLine
 10
139.777140
 20
108.260623
 30
0.0
 11
139.777140
 21
112.260626
 31
0.0
  0
LINE
  5
130
100
AcDbEntity
  8
0
 62
7
100
AcDbLine
 10
139.777140
 20
112.260626
 30
0.0
 11
130.027132
 21
112.260626
 31
0.0
  0
LINE
  5
131
100
AcDbEntity
  8
0
 62
7
100
AcDbLine
 10
130.027132
 20
112.260626
 30
0.0
 11
130.027132
 21
108.260623
 31
0.0
  0
LINE
  5
132
100
AcDbEntity
  8
0
 62
7
100
AcDbLine
 10
130.027132
 20
108.260623
 30
0.0
 11
124.027128
 21
108.260623
 31
0.0
  0
LINE
  5
133
100
AcDbEntity
  8
0
 62
7
100
AcDbLine
 10
124.027128
 20
108.260623
 30
0.0
 11
124.027128
 21
112.260626
 31
0.0
  0
LINE
  5
134
100
AcDbEntity
  8
0
 62
7
100
AcDbLine
 10
124.027128
 20
112.260626
 30
0.0
 11
118.027123
 21
112.260626
 31
0.0
  0
LINE
  5
135
100
AcDbEntity
  8
0
 62
7
100
AcDbLine
 10
118.027123
 20
112.260626
 30
0.0
 11
118.027123
 21
108.260623
 31
0.0
  0
LINE
  5
136
100
AcDbEntity
  8
0
 62
7
100
AcDbLine
 10
118.027123
 20
108.260623
 30
0.0
 11
112.027118
 21
108.260623
 31
0.0
  0
LINE
  5
137
100
AcDbEntity
  8
0
 62
7
100
AcDbLine
 10
112.027118
 20
108.260623
 30
0.0
 11
112.027118
 21
112.260626
 31
0.0
  0
LINE
  5
138
100
AcDbEntity
  8
0
 62
7
100
AcDbLine
 10
112.027118
 20
112.260626
 30
0.0
 11
106.027113
 21
112.260626
 31
0.0
  0
LINE
  5
139
100
AcDbEntity
  8
0
 62
7
100
AcDbLine
 10
106.027113
 20
112.260626
 30
0.0
 11
106.027113
 21
108.260623
 31
0.0
  0
LINE
  5
13a
100
AcDbEntity
  8
0
 62
7
100
AcDbLine
 10
106.027113
 20
108.260623
 30
0.0
 11
100.027108
 21
108.260623
 31
0.0
  0
LINE
  5
13b
100
AcDbEntity
  8
0
 62
7
100
AcDbLine
 10
100.027108
 20
108.260623
 30
0.0
 11
100.027108
 21
112.260626
 31
0.0
  0
LINE
  5
13c
100
AcDbEntity
  8
0
 62
7
100
AcDbLine
 10
100.027108
 20
112.260626
 30
0.0
 11
94.027100
 21
112.260626
 31
0.0
  0
LINE
  5
13d
100
AcDbEntity
  8
0
 62
7
100
AcDbLine
 10
94.027100
 20
112.260626
 30
0.0
 11
94.027100
 21
108.260623
 31
0.0
  0
LINE
  5
13e
100
AcDbEntity
  8
0
 62
7
100
AcDbLine
 10
94.027100
 20
108.260623
 30
0.0
 11
88.027095
 21
108.260623
 31
0.0
  0
LINE
  5
13f
100
AcDbEntity
  8
0
 62
7
100
AcDbLine
 10
88.027095
 20
108.260623
 30
0.0
 11
88.027095
 21
112.260626
 31
0.0
  0
LINE
  5
140
100
AcDbEntity
  8
0
 62
7
100
AcDbLine
 10
88.027095
 20
112.260626
 30
0.0
 11
82.027090
 21
112.260626
 31
0.0
  0
LINE
  5
141
100
AcDbEntity
  8
0
 62
7
100
AcDbLine
 10
82.027090
 20
112.260626
 30
0.0
 11
82.027090
 21
108.260623
 31
0.0
  0
LINE
  5
142
100
AcDbEntity
  8
0
 62
7
100
AcDbLine
 10
82.027090
 20
108.260623
 30
0.0
 11
76.027085
 21
108.260623
 31
0.0
  0
LINE
  5
143
100
AcDbEntity
  8
0
 62
7
100
AcDbLine
 10
76.027085
 20
108.260623
 30
0.0
 11
76.027085
 21
112.260626
 31
0.0
  0
LINE
  5
144
100
AcDbEntity
  8
0
 62
7
100
AcDbLine
 10
76.027085
 20
112.260626
 30
0.0
 11
70.027082
 21
112.260626
 31
0.0
  0
LINE
  5
145
100
AcDbEntity
  8
0
 62
7
100
AcDbLine
 10
70.027082
 20
112.260626
 30
0.0
 11
70.027082
 21
108.260623
 31
0.0
  0
LINE
  5
146
100
AcDbEntity
  8
0
 62
7
100
AcDbLine
 10
70.027082
 20
108.260623
 30
0.0
 11
64.027077
 21
108.260623
 31
0.0
  0
LINE
  5
147
100
AcDbEntity
  8
0
 62
7
100
AcDbLine
 10
64.027077
 20
108.260623
 30
0.0
 11
64.027077
 21
112.260626
 31
0.0
  0
LINE
  5
148
100
AcDbEntity
  8
0
 62
7
100
AcDbLine
 10
64.027077
 20
112.260626
 30
0.0
 11
54.277069
 21
112.260626
 31
0.0
  0
LINE
  5
149
100
AcDbEntity
  8
0
 62
7
100
AcDbLine
 10
54.277069
 20
112.260626
 30
0.0
 11
54.277069
 21
108.260623
 31
0.0
  0
LINE
  5
14a
100
AcDbEntity
  8
0
 62
7
100
AcDbLine
 10
54.277069
 20
108.260623
 30
0.0
 11
44.527061
 21
108.260623
 31
0.0
  0
LINE
  5
14b
100
AcDbEntity
  8
0
 62
7
100
AcDbLine
 10
44.527061
 20
108.260623
 30
0.0
 11
44.527061
 21
117.510631
 31
0.0
  0
LINE
  5
14c
100
AcDbEntity
  8
0
 62
7
100
AcDbLine
 10
44.527061
 20
117.510631
 30
0.0
 11
48.527064
 21
117.510631
 31
0.0
  0
LINE
  5
14d
100
AcDbEntity
  8
0
 62
7
100
AcDbLine
 10
48.527064
 20
117.510631
 30
0.0
 11
48.527064
 21
126.760637
 31
0.0
  0
LINE
  5
14e
100
AcDbEntity
  8
0
 62
7
100
AcDbLine
 10
48.527064
 20
126.760637
 30
0.0
 11
44.527061
 21
126.760637
 31
0.0
  0
LINE
  5
14f
100
AcDbEntity
  8
0
 62
7
100
AcDbLine
 10
44.527061
 20
126.760637
 30
0.0
 11
44.527061
 21
132.760642
 31
0.0
  0
LINE
  5
150
100
AcDbEntity
  8
0
 62
7
100
AcDbLine
 10
44.527061
 20
132.760642
 30
0.0
 11
48.527064
 21
132.760642
 31
0.0
  0
LINE
  5
151
100
AcDbEntity
  8
0
 62
7
100
AcDbLine
 10
48.527064
 20
132.760642
 30
0.0
 11
48.527064
 21
138.760649
 31
0.0
  0
LINE
  5
152
100
AcDbEntity
  8
0
 62
7
100
AcDbLine
 10
48.527064
 20
138.760649
 30
0.0
 11
44.527061
 21
138.760649
 31
0.0
  0
LINE
  5
153
100
AcDbEntity
  8
0
 62
7
100
AcDbLine
 10
44.527061
 20
138.760649
 30
0.0
 11
44.527061
 21
144.760654
 31
0.0
  0
LINE
  5
154
100
AcDbEntity
  8
0
 62
7
100
AcDbLine
 10
44.527061
 20
144.760654
 30
0.0
 11
48.527064
 21
144.760654
 31
0.0
  0
LINE
  5
155
100
AcDbEntity
  8
0
 62
7
100
AcDbLine
 10
48.527064
 20
144.760654
 30
0.0
 11
48.527064
 21
150.760659
 31
0.0
  0
LINE
  5
156
100
AcDbEntity
  8
0
 62
7
100
AcDbLine
 10
48.527064
 20
150.760659
 30
0.0
 11
44.527061
 21
150.760659
 31
0.0
  0
LINE
  5
157
100
AcDbEntity
  8
0
 62
7
100
AcDbLine
 10
44.527061
 20
150.760659
 30
0.0
 11
44.527061
 21
156.760664
 31
0.0
  0
LINE
  5
158
100
AcDbEntity
  8
0
 62
7
100
AcDbLine
 10
44.527061
 20
156.760664
 30
0.0
 11
48.527064
 21
156.760664
 31
0.0
  0
LINE
  5
159
100
AcDbEntity
  8
0
 62
7
100
AcDbLine
 10
48.527064
 20
156.760664
 30
0.0
 11
48.527064
 21
162.760669
 31
0.0
  0
LINE
  5
15a
100
AcDbEntity
  8
0
 62
7
100
AcDbLine
 10
48.527064
 20
162.760669
 30
0.0
 11
44.527061
 21
162.760669
 31
0.0
  0
LINE
  5
15b
100
AcDbEntity
  8
0
 62
7
100
AcDbLine
 10
44.527061
 20
162.760669
 30
0.0
 11
44.527061
 21
168.760674
 31
0.0
  0
LINE
  5
15c
100
AcDbEntity
  8
0
 62
7
100
AcDbLine
 10
44.527061
 20
168.760674
 30
0.0
 11
48.527064
 21
168.760674
 31
0.0
  0
LINE
  5
15d
100
AcDbEntity
  8
0
 62
7
100
AcDbLine
 10
48.527064
 20
168.760674
 30
0.0
 11
48.527064
 21
174.760676
 31
0.0
  0
LINE
  5
15e
100
AcDbEntity
  8
0
 62
7
100
AcDbLine
 10
48.527064
 20
174.760676
 30
0.0
 11
44.527061
 21
174.760676
 31
0.0
  0
LINE
  5
15f
100
AcDbEntity
  8
0
 62
7
100
AcDbLine
 10
44.527061
 20
174.760676
 30
0.0
 11
44.527061
 21
180.760681
 31
0.0
  0
LINE
  5
160
100
AcDbEntity
  8
0
 62
7
100
AcDbLine
 10
44.527061
 20
180.760681
 30
0.0
 11
48.527064
 21
180.760681
 31
0.0
  0
LINE
  5
161
100
AcDbEntity
  8
0
 62
7
100
AcDbLine
 10
48.527064
 20
180.760681
 30
0.0
 11
48.527064
 21
186.760686
 31
0.0
  0
LINE
  5
162
100
AcDbEntity
  8
0
 62
7
100
AcDbLine
 10
48.527064
 20
186.760686
 30
0.0
 11
44.527061
 21
186.760686
 31
0.0
  0
LINE
  5
163
100
AcDbEntity
  8
0
 62
7
100
AcDbLine
 10
44.527061
 20
186.760686
 30
0.0
 11
44.527061
 21
192.760694
 31
0.0
  0
LINE
  5
164
100
AcDbEntity
  8
0
 62
7
100
AcDbLine
 10
44.527061
 20
192.760694
 30
0.0
 11
48.527064
 21
192.760694
 31
0.0
  0
LINE
  5
165
100
AcDbEntity
  8
0
 62
7
100
AcDbLine
 10
48.527064
 20
192.760694
 30
0.0
 11
48.527064
 21
198.760697
 31
0.0
  0
LINE
  5
166
100
AcDbEntity
  8
0
 62
7
100
AcDbLine
 10
48.527064
 20
198.760697
 30
0.0
 11
44.527061
 21
198.760697
 31
0.0
  0
LINE
  5
167
100
AcDbEntity
  8
0
 62
7
100
AcDbLine
 10
44.527061
 20
198.760697
 30
0.0
 11
44.527061
 21
204.760702
 31
0.0
  0
LINE
  5
168
100
AcDbEntity
  8
0
 62
7
100
AcDbLine
 10
44.527061
 20
204.760702
 30
0.0
 11
48.527064
 21
204.760702
 31
0.0
  0
LINE
  5
169
100
AcDbEntity
  8
0
 62
7
100
AcDbLine
 10
48.527064
 20
204.760702
 30
0.0
 11
48.527064
 21
214.010710
 31
0.0
  0
LINE
  5
16a
100
AcDbEntity
  8
0
 62
7
100
AcDbLine
 10
48.527064
 20
214.010710
 30
0.0
 11
44.527061
 21
214.010710
 31
0.0
  0
LINE
  5
16b
100
AcDbEntity
  8
0
 62
7
100
AcDbLine
 10
44.527061
 20
214.010710
 30
0.0
 11
44.527061
 21
223.260717
 31
0.0
  0
LINE
  5
16c
100
AcDbEntity
  8
0
 62
7
100
AcDbLine
 10
44.527061
 20
223.260717
 30
0.0
 11
54.277069
 21
223.260717
 31
0.0
  0
LINE
  5
16d
100
AcDbEntity
  8
0
 62
7
100
AcDbLine
 10
54.277069
 20
223.260717
 30
0.0
 11
54.277069
 21
219.260714
 31
0.0
  0
LINE
  5
16e
100
AcDbEntity
  8
0
 62
7
100
AcDbLine
 10
54.277069
 20
219.260714
 30
0.0
 11
64.027077
 21
219.260714
 31
0.0
  0
LINE
  5
16f
100
AcDbEntity
  8
0
 62
7
100
AcDbLine
 10
64.027077
 20
219.260714
 30
0.0
 11
64.027077
 21
223.260717
 31
0.0
  0
LINE
  5
170
100
AcDbEntity
  8
0
 62
7
100
AcDbLine
 10
64.027077
 20
223.260717
 30
0.0
 11
70.027082
 21
223.260717
 31
0.0
  0
LINE
  5
171
100
AcDbEntity
  8
0
 62
7
100
AcDbLine
 10
70.027082
 20
223.260717
 30
0.0
 11
70.027082
 21
219.260714
 31
0.0
  0
LINE
  5
172
100
AcDbEntity
  8
0
 62
7
100
AcDbLine
 10
70.027082
 20
219.260714
 30
0.0
 11
76.027085
 21
219.260714
 31
0.0
  0
LINE
  5
173
100
AcDbEntity
  8
0
 62
7
100
AcDbLine
 10
76.027085
 20
219.260714
 30
0.0
 11
76.027085
 21
223.260717
 31
0.0
  0
LINE
  5
174
100
AcDbEntity
  8
0
 62
7
100
AcDbLine
 10
76.027085
 20
223.260717
 30
0.0
 11
82.027090
 21
223.260717
 31
0.0
  0
LINE
  5
175
100
AcDbEntity
  8
0
 62
7
100
AcDbLine
 10
82.027090
 20
223.260717
 30
0.0
 11
82.027090
 21
219.260714
 31
0.0
  0
LINE
  5
176
100
AcDbEntity
  8
0
 62
7
100
AcDbLine
 10
82.027090
 20
219.260714
 30
0.0
 11
88.027095
 21
219.260714
 31
0.0
  0
LINE
  5
177
100
AcDbEntity
  8
0
 62
7
100
AcDbLine
 10
88.027095
 20
219.260714
 30
0.0
 11
88.027095
 21
223.260717
 31
0.0
  0
LINE
  5
178
100
AcDbEntity
  8
0
 62
7
100
AcDbLine
 10
88.027095
 20
223.260717
 30
0.0
 11
94.027100
 21
223.260717
 31
0.0
  0
LINE
  5
179
100
AcDbEntity
  8
0
 62
7
100
AcDbLine
 10
94.027100
 20
223.260717
 30
0.0
 11
94.027100
 21
219.260714
 31
0.0
  0
LINE
  5
17a
100
AcDbEntity
  8
0
 62
7
100
AcDbLine
 10
94.027100
 20
219.260714
 30
0.0
 11
100.027108
 21
219.260714
 31
0.0
  0
LINE
  5
17b
100
AcDbEntity
  8
0
 62
7
100
AcDbLine
 10
100.027108
 20
219.260714
 30
0.0
 11
100.027108
 21
223.260717
 31
0.0
  0
LINE
  5
17c
100
AcDbEntity
  8
0
 62
7
100
AcDbLine
 10
278.524245
 20
198.760697
 30
0.0
 11
274.524241
 21
198.760697
 31
0.0
  0
LINE
  5
17d
100
AcDbEntity
  8
0
 62
7
100
AcDbLine
 10
274.524241
 20
198.760697
 30
0.0
 11
274.524241
 21
192.760694
 31
0.0
  0
LINE
  5
17e
100
AcDbEntity
  8
0
 62
7
100
AcDbLine
 10
274.524241
 20
192.760694
 30
0.0
 11
278.524245
 21
192.760694
 31
0.0
  0
LINE
  5
17f
100
AcDbEntity
  8
0
 62
7
100
AcDbLine
 10
278.524245
 20
192.760694
 30
0.0
 11
278.524245
 21
186.760686
 31
0.0
  0
LINE
  5
180
100
AcDbEntity
  8
0
 62
7
100
AcDbLine
 10
278.524245
 20
186.760686
 30
0.0
 11
274.524241
 21
186.760686
 31
0.0
  0
LINE
  5
181
100
AcDbEntity
  8
0
 62
7
100
AcDbLine
 10
274.524241
 20
186.760686
 30
0.0
 11
274.524241
 21
180.760681
 31
0.0
  0
LINE
  5
182
100
AcDbEntity
  8
0
 62
7
100
AcDbLine
 10
274.524241
 20
180.760681
 30
0.0
 11
278.524245
 21
180.760681
 31
0.0
  0
LINE
  5
183
100
AcDbEntity
  8
0
 62
7
100
AcDbLine
 10
278.524245
 20
180.760681
 30
0.0
 11
278.524245
 21
174.760676
 31
0.0
  0
LINE
  5
184
100
AcDbEntity
  8
0
 62
7
100
AcDbLine
 10
278.524245
 20
174.760676
 30
0.0
 11
274.524241
 21
174.760676
 31
0.0
  0
LINE
  5
185
100
AcDbEntity
  8
0
 62
7
100
AcDbLine
 10
274.524241
 20
174.760676
 30
0.0
 11
274.524241
 21
168.760674
 31
0.0
  0
LINE
  5
186
100
AcDbEntity
  8
0
 62
7
100
AcDbLine
 10
274.524241
 20
168.760674
 30
0.0
 11
278.524245
 21
168.760674
 31
0.0
  0
LINE
  5
187
100
AcDbEntity
  8
0
 62
7
100
AcDbLine
 10
278.524245
 20
168.760674
 30
0.0
 11
278.524245
 21
162.760669
 31
0.0
  0
LINE
  5
188
100
AcDbEntity
  8
0
 62
7
100
AcDbLine
 10
278.524245
 20
162.760669
 30
0.0
 11
274.524241
 21
162.760669
 31
0.0
  0
LINE
  5
189
100
AcDbEntity
  8
0
 62
7
100
AcDbLine
 10
274.524241
 20
162.760669
 30
0.0
 11
274.524241
 21
156.760664
 31
0.0
  0
LINE
  5
18a
100
AcDbEntity
  8
0
 62
7
100
AcDbLine
 10
274.524241
 20
156.760664
 30
0.0
 11
278.524245
 21
156.760664
 31
0.0
  0
LINE
  5
18b
100
AcDbEntity
  8
0
 62
7
100
AcDbLine
 10
278.524245
 20
156.760664
 30
0.0
 11
278.524245
 21
150.760659
 31
0.0
  0
LINE
  5
18c
100
AcDbEntity
  8
0
 62
7
100
AcDbLine
 10
278.524245
 20
150.760659
 30
0.0
 11
274.524241
 21
150.760659
 31
0.0
  0
LINE
  5
18d
100
AcDbEntity
  8
0
 62
7
100
AcDbLine
 10
274.524241
 20
150.760659
 30
0.0
 11
274.524241
 21
144.760654
 31
0.0
  0
LINE
  5
18e
100
AcDbEntity
  8
0
 62
7
100
AcDbLine
 10
274.524241
 20
144.760654
 30
0.0
 11
278.524245
 21
144.760654
 31
0.0
  0
LINE
  5
18f
100
AcDbEntity
  8
0
 62
7
100
AcDbLine
 10
278.524245
 20
144.760654
 30
0.0
 11
278.524245
 21
138.760649
 31
0.0
  0
LINE
  5
190
100
AcDbEntity
  8
0
 62
7
100
AcDbLine
 10
278.524245
 20
138.760649
 30
0.0
 11
274.524241
 21
138.760649
 31
0.0
  0
LINE
  5
191
100
AcDbEntity
  8
0
 62
7
100
AcDbLine
 10
274.524241
 20
138.760649
 30
0.0
 11
274.524241
 21
132.760642
 31
0.0
  0
LINE
  5
192
100
AcDbEntity
  8
0
 62
7
100
AcDbLine
 10
274.524241
 20
132.760642
 30
0.0
 11
278.524245
 21
132.760642
 31
0.0
  0
LINE
  5
193
100
AcDbEntity
  8
0
 62
7
100
AcDbLine
 10
278.524245
 20
132.760642
 30
0.0
 11
278.524245
 21
126.760637
 31
0.0
  0
LINE
  5
194
100
AcDbEntity
  8
0
 62
7
100
AcDbLine
 10
278.524245
 20
126.760637
 30
0.0
 11
274.524241
 21
126.760637
 31
0.0
  0
LINE
  5
195
100
AcDbEntity
  8
0
 62
7
100
AcDbLine
 10
274.524241
 20
126.760637
 30
0.0
 11
274.524241
 21
117.510631
 31
0.0
  0
LINE
  5
196
100
AcDbEntity
  8
0
 62
7
100
AcDbLine
 10
274.524241
 20
117.510631
 30
0.0
 11
278.524245
 21
117.510631
 31
0.0
  0
LINE
  5
197
100
AcDbEntity
  8
0
 62
7
100
AcDbLine
 10
278.524245
 20
117.510631
 30
0.0
 11
278.524245
 21
108.260623
 31
0.0
  0
LINE
  5
198
100
AcDbEntity
  8
0
 62
7
100
AcDbLine
 10
278.524245
 20
108.260623
 30
0.0
 11
268.774237
 21
108.260623
 31
0.0
  0
LINE
  5
199
100
AcDbEntity
  8
0
 62
7
100
AcDbLine
 10
268.774237
 20
108.260623
 30
0.0
 11
268.774237
 21
112.260626
 31
0.0
  0
LINE
  5
19a
100
AcDbEntity
  8
0
 62
7
100
AcDbLine
 10
268.774237
 20
112.260626
 30
0.0
 11
259.024230
 21
112.260626
 31
0.0
  0
LINE
  5
19b
100
AcDbEntity
  8
0
 62
7
100
AcDbLine
 10
259.024230
 20
112.260626
 30
0.0
 11
259.024230
 21
108.260623
 31
0.0
  0
LINE
  5
19c
100
AcDbEntity
  8
0
 62
7
100
AcDbLine
 10
259.024230
 20
108.260623
 30
0.0
 11
253.024225
 21
108.260623
 31
0.0
  0
LINE
  5
19d
100
AcDbEntity
  8
0
 62
7
100
AcDbLine
 10
253.024225
 20
108.260623
 30
0.0
 11
253.024225
 21
112.260626
 31
0.0
  0
LINE
  5
19e
100
AcDbEntity
  8
0
 62
7
100
AcDbLine
 10
253.024225
 20
112.260626
 30
0.0
 11
247.024220
 21
112.260626
 31
0.0
  0
LINE
  5
19f
100
AcDbEntity
  8
0
 62
7
100
AcDbLine
 10
247.024220
 20
112.260626
 30
0.0
 11
247.024220
 21
108.260623
 31
0.0
  0
LINE
  5
1a0
100
AcDbEntity
  8
0
 62
7
100
AcDbLine
 10
247.024220
 20
108.260623
 30
0.0
 11
241.024215
 21
108.260623
 31
0.0
  0
LINE
  5
1a1
100
AcDbEntity
  8
0
 62
7
100
AcDbLine
 10
241.024215
 20
108.260623
 30
0.0
 11
241.024215
 21
112.260626
 31
0.0
  0
LINE
  5
1a2
100
AcDbEntity
  8
0
 62
7
100
AcDbLine
 10
241.024215
 20
112.260626
 30
0.0
 11
235.024210
 21
112.260626
 31
0.0
  0
LINE
  5
1a3
100
AcDbEntity
  8
0
 62
7
100
AcDbLine
 10
235.024210
 20
112.260626
 30
0.0
 11
235.024210
 21
108.260623
 31
0.0
  0
LINE
  5
1a4
100
AcDbEntity
  8
0
 62
7
100
AcDbLine
 10
235.024210
 20
108.260623
 30
0.0
 11
229.024205
 21
108.260623
 31
0.0
  0
LINE
  5
1a5
100
AcDbEntity
  8
0
 62
7
100
AcDbLine
 10
229.024205
 20
108.260623
 30
0.0
 11
229.024205
 21
112.260626
 31
0.0
  0
LINE
  5
1a6
100
AcDbEntity
  8
0
 62
7
100
AcDbLine
 10
229.024205
 20
112.260626
 30
0.0
 11
223.024198
 21
112.260626
 31
0.0
  0
LINE
  5
1a7
100
AcDbEntity
  8
0
 62
7
100
AcDbLine
 10
223.024198
 20
112.260626
 30
0.0
 11
223.024198
 21
108.260623
 31
0.0
  0
LINE
  5
1a8
100
AcDbEntity
  8
0
 62
7
100
AcDbLine
 10
223.024198
 20
108.260623
 30
0.0
 11
217.024193
 21
108.260623
 31
0.0
  0
LINE
  5
1a9
100
AcDbEntity
  8
0
 62
7
100
AcDbLine
 10
217.024193
 20
108.260623
 30
0.0
 11
217.024193
 21
112.260626
 31
0.0
  0
LINE
  5
1aa
100
AcDbEntity
  8
0
 62
7
100
AcDbLine
 10
217.024193
 20
112.260626
 30
0.0
 11
211.024188
 21
112.260626
 31
0.0
  0
LINE
  5
1ab
100
AcDbEntity
  8
0
 62
7
100
AcDbLine
 10
211.024188
 20
112.260626
 30
0.0
 11
211.024188
 21
108.260623
 31
0.0
  0
LINE
  5
1ac
100
AcDbEntity
  8
0
 62
7
100
AcDbLine
 10
211.024188
 20
108.260623
 30
0.0
 11
205.024183
 21
108.260623
 31
0.0
  0
LINE
  5
1ad
100
AcDbEntity
  8
0
 62
7
100
AcDbLine
 10
205.024183
 20
108.260623
 30
0.0
 11
205.024183
 21
112.260626
 31
0.0
  0
LINE
  5
1ae
100
AcDbEntity
  8
0
 62
7
100
AcDbLine
 10
205.024183
 20
112.260626
 30
0.0
 11
199.024179
 21
112.260626
 31
0.0
  0
LINE
  5
1af
100
AcDbEntity
  8
0
 62
7
100
AcDbLine
 10
199.024179
 20
112.260626
 30
0.0
 11
199.024179
 21
108.260623
 31
0.0
  0
LINE
  5
1b0
100
AcDbEntity
  8
0
 62
7
100
AcDbLine
 10
199.024179
 20
108.260623
 30
0.0
 11
193.024174
 21
108.260623
 31
0.0
  0
LINE
  5
1b1
100
AcDbEntity
  8
0
 62
7
100
AcDbLine
 10
193.024174
 20
108.260623
 30
0.0
 11
193.024174
 21
112.260626
 31
0.0
  0
LINE
  5
1b2
100
AcDbEntity
  8
0
 62
7
100
AcDbLine
 10
193.024174
 20
112.260626
 30
0.0
 11
183.274166
 21
112.260626
 31
0.0
  0
LINE
  5
1b3
100
AcDbEntity
  8
0
 62
7
100
AcDbLine
 10
183.274166
 20
112.260626
 30
0.0
 11
183.274166
 21
108.260623
 31
0.0
  0
LINE
  5
1b4
100
AcDbEntity
  8
0
 62
7
100
AcDbLine
 10
183.274166
 20
108.260623
 30
0.0
 11
173.524158
 21
108.260623
 31
0.0
  0
LINE
  5
1b5
100
AcDbEntity
  8
0
 62
7
100
AcDbLine
 10
173.524158
 20
108.260623
 30
0.0
 11
173.524158
 21
117.510631
 31
0.0
  0
LINE
  5
1b6
100
AcDbEntity
  8
0
 62
7
100
AcDbLine
 10
173.524158
 20
117.510631
 30
0.0
 11
177.524162
 21
117.510631
 31
0.0
  0
LINE
  5
1b7
100
AcDbEntity
  8
0
 62
7
100
AcDbLine
 10
177.524162
 20
117.510631
 30
0.0
 11
177.524162
 21
126.760637
 31
0.0
  0
LINE
  5
1b8
100
AcDbEntity
  8
0
 62
7
100
AcDbLine
 10
177.524162
 20
126.760637
 30
0.0
 11
173.524158
 21
126.760637
 31
0.0
  0
LINE
  5
1b9
100
AcDbEntity
  8
0
 62
7
100
AcDbLine
 10
173.524158
 20
126.760637
 30
0.0
 11
173.524158
 21
132.760642
 31
0.0
  0
LINE
  5
1ba
100
AcDbEntity
  8
0
 62
7
100
AcDbLine
 10
173.524158
 20
132.760642
 30
0.0
 11
177.524162
 21
132.760642
 31
0.0
  0
LINE
  5
1bb
100
AcDbEntity
  8
0
 62
7
100
AcDbLine
 10
177.524162
 20
132.760642
 30
0.0
 11
177.524162
 21
138.760649
 31
0.0
  0
LINE
  5
1bc
100
AcDbEntity
  8
0
 62
7
100
AcDbLine
 10
177.524162
 20
138.760649
 30
0.0
 11
173.524158
 21
138.760649
 31
0.0
  0
LINE
  5
1bd
100
AcDbEntity
  8
0
 62
7
100
AcDbLine
 10
173.524158
 20
138.760649
 30
0.0
 11
173.524158
 21
144.760654
 31
0.0
  0
LINE
  5
1be
100
AcDbEntity
  8
0
 62
7
100
AcDbLine
 10
173.524158
 20
144.760654
 30
0.0
 11
177.524162
 21
144.760654
 31
0.0
  0
LINE
  5
1bf
100
AcDbEntity
  8
0
 62
7
100
AcDbLine
 10
177.524162
 20
144.760654
 30
0.0
 11
177.524162
 21
150.760659
 31
0.0
  0
LINE
  5
1c0
100
AcDbEntity
  8
0
 62
7
100
AcDbLine
 10
177.524162
 20
150.760659
 30
0.0
 11
173.524158
 21
150.760659
 31
0.0
  0
LINE
  5
1c1
100
AcDbEntity
  8
0
 62
7
100
AcDbLine
 10
173.524158
 20
150.760659
 30
0.0
 11
173.524158
 21
156.760664
 31
0.0
  0
LINE
  5
1c2
100
AcDbEntity
  8
0
 62
7
100
AcDbLine
 10
173.524158
 20
156.760664
 30
0.0
 11
177.524162
 21
156.760664
 31
0.0
  0
LINE
  5
1c3
100
AcDbEntity
  8
0
 62
7
100
AcDbLine
 10
177.524162
 20
156.760664
 30
0.0
 11
177.524162
 21
162.760669
 31
0.0
  0
LINE
  5
1c4
100
AcDbEntity
  8
0
 62
7
100
AcDbLine
 10
177.524162
 20
162.760669
 30
0.0
 11
173.524158
 21
162.760669
 31
0.0
  0
LINE
  5
1c5
100
AcDbEntity
  8
0
 62
7
100
AcDbLine
 10
173.524158
 20
162.760669
 30
0.0
 11
173.524158
 21
168.760674
 31
0.0
  0
LINE
  5
1c6
100
AcDbEntity
  8
0
 62
7
100
AcDbLine
 10
173.524158
 20
168.760674
 30
0.0
 11
177.524162
 21
168.760674
 31
0.0
  0
LINE
  5
1c7
100
AcDbEntity
  8
0
 62
7
100
AcDbLine
 10
177.524162
 20
168.760674
 30
0.0
 11
177.524162
 21
174.760676
 31
0.0
  0
LINE
  5
1c8
100
AcDbEntity
  8
0
 62
7
100
AcDbLine
 10
177.524162
 20
174.760676
 30
0.0
 11
173.524158
 21
174.760676
 31
0.0
  0
LINE
  5
1c9
100
AcDbEntity
  8
0
 62
7
100
AcDbLine
 10
173.524158
 20
174.760676
 30
0.0
 11
173.524158
 21
180.760681
 31
0.0
  0
LINE
  5
1ca
100
AcDbEntity
  8
0
 62
7
100
AcDbLine
 10
173.524158
 20
180.760681
 30
0.0
 11
177.524162
 21
180.760681
 31
0.0
  0
LINE
  5
1cb
100
AcDbEntity
  8
0
 62
7
100
AcDbLine
 10
177.524162
 20
180.760681
 30
0.0
 11
177.524162
 21
186.760686
 31
0.0
  0
LINE
  5
1cc
100
AcDbEntity
  8
0
 62
7
100
AcDbLine
 10
177.524162
 20
186.760686
 30
0.0
 11
173.524158
 21
186.760686
 31
0.0
  0
LINE
  5
1cd
100
AcDbEntity
  8
0
 62
7
100
AcDbLine
 10
173.524158
 20
186.760686
 30
0.0
 11
173.524158
 21
192.760694
 31
0.0
  0
LINE
  5
1ce
100
AcDbEntity
  8
0
 62
7
100
AcDbLine
 10
173.524158
 20
192.760694
 30
0.0
 11
177.524162
 21
192.760694
 31
0.0
  0
LINE
  5
1cf
100
AcDbEntity
  8
0
 62
7
100
AcDbLine
 10
177.524162
 20
192.760694
 30
0.0
 11
177.524162
 21
198.760697
 31
0.0
  0
LINE
  5
1d0
100
AcDbEntity
  8
0
 62
7
100
AcDbLine
 10
177.524162
 20
198.760697
 30
0.0
 11
173.524158
 21
198.760697
 31
0.0
  0
LINE
  5
1d1
100
AcDbEntity
  8
0
 62
7
100
AcDbLine
 10
173.524158
 20
198.760697
 30
0.0
 11
173.524158
 21
204.760702
 31
0.0
  0
LINE
  5
1d2
100
AcDbEntity
  8
0
 62
7
100
AcDbLine
 10
173.524158
 20
204.760702
 30
0.0
 11
177.524162
 21
204.760702
 31
0.0
  0
LINE
  5
1d3
100
AcDbEntity
  8
0
 62
7
100
AcDbLine
 10
177.524162
 20
204.760702
 30
0.0
 11
177.524162
 21
214.010710
 31
0.0
  0
LINE
  5
1d4
100
AcDbEntity
  8
0
 62
7
100
AcDbLine
 10
177.524162
 20
214.010710
 30
0.0
 11
173.524158
 21
214.010710
 31
0.0
  0
LINE
  5
1d5
100
AcDbEntity
  8
0
 62
7
100
AcDbLine
 10
173.524158
 20
214.010710
 30
0.0
 11
173.524158
 21
223.260717
 31
0.0
  0
LINE
  5
1d6
100
AcDbEntity
  8
0
 62
7
100
AcDbLine
 10
173.524158
 20
223.260717
 30
0.0
 11
183.274166
 21
223.260717
 31
0.0
  0
LINE
  5
1d7
100
AcDbEntity
  8
0
 62
7
100
AcDbLine
 10
183.274166
 20
223.260717
 30
0.0
 11
183.274166
 21
219.260714
 31
0.0
  0
LINE
  5
1d8
100
AcDbEntity
  8
0
 62
7
100
AcDbLine
 10
183.274166
 20
219.260714
 30
0.0
 11
193.024174
 21
219.260714
 31
0.0
  0
LINE
  5
1d9
100
AcDbEntity
  8
0
 62
7
100
AcDbLine
 10
193.024174
 20
219.260714
 30
0.0
 11
193.024174
 21
223.260717
 31
0.0
  0
LINE
  5
1da
100
AcDbEntity
  8
0
 62
7
100
AcDbLine
 10
193.024174
 20
223.260717
 30
0.0
 11
199.024179
 21
223.260717
 31
0.0
  0
LINE
  5
1db
100
AcDbEntity
  8
0
 62
7
100
AcDbLine
 10
199.024179
 20
223.260717
 30
0.0
 11
199.024179
 21
219.260714
 31
0.0
  0
LINE
  5
1dc
100
AcDbEntity
  8
0
 62
7
100
AcDbLine
 10
199.024179
 20
219.260714
 30
0.0
 11
205.024183
 21
219.260714
 31
0.0
  0
LINE
  5
1dd
100
AcDbEntity
  8
0
 62
7
100
AcDbLine
 10
205.024183
 20
219.260714
 30
0.0
 11
205.024183
 21
223.260717
 31
0.0
  0
LINE
  5
1de
100
AcDbEntity
  8
0
 62
7
100
AcDbLine
 10
205.024183
 20
223.260717
 30
0.0
 11
211.024188
 21
223.260717
 31
0.0
  0
LINE
  5
1df
100
AcDbEntity
  8
0
 62
7
100
AcDbLine
 10
211.024188
 20
223.260717
 30
0.0
 11
211.024188
 21
219.260714
 31
0.0
  0
LINE
  5
1e0
100
AcDbEntity
  8
0
 62
7
100
AcDbLine
 10
211.024188
 20
219.260714
 30
0.0
 11
217.024193
 21
219.260714
 31
0.0
  0
LINE
  5
1e1
100
AcDbEntity
  8
0
 62
7
100
AcDbLine
 10
217.024193
 20
219.260714
 30
0.0
 11
217.024193
 21
223.260717
 31
0.0
  0
LINE
  5
1e2
100
AcDbEntity
  8
0
 62
7
100
AcDbLine
 10
217.024193
 20
223.260717
 30
0.0
 11
223.024198
 21
223.260717
 31
0.0
  0
LINE
  5
1e3
100
AcDbEntity
  8
0
 62
7
100
AcDbLine
 10
223.024198
 20
223.260717
 30
0.0
 11
223.024198
 21
219.260714
 31
0.0
  0
LINE
  5
1e4
100
AcDbEntity
  8
0
 62
7
100
AcDbLine
 10
223.024198
 20
219.260714
 30
0.0
 11
229.024205
 21
219.260714
 31
0.0
  0
LINE
  5
1e5
100
AcDbEntity
  8
0
 62
7
100
AcDbLine
 10
229.024205
 20
219.260714
 30
0.0
 11
229.024205
 21
223.260717
 31
0.0
  0
LINE
  5
1e6
100
AcDbEntity
  8
0
 62
7
100
AcDbLine
 10
229.024205
 20
223.260717
 30
0.0
 11
235.024210
 21
223.260717
 31
0.0
  0
LINE
  5
1e7
100
AcDbEntity
  8
0
 62
7
100
AcDbLine
 10
235.024210
 20
223.260717
 30
0.0
 11
235.024210
 21
219.260714
 31
0.0
  0
LINE
  5
1e8
100
AcDbEntity
  8
0
 62
7
100
AcDbLine
 10
235.024210
 20
219.260714
 30
0.0
 11
241.024215
 21
219.260714
 31
0.0
  0
LINE
  5
1e9
100
AcDbEntity
  8
0
 62
7
100
AcDbLine
 10
241.024215
 20
219.260714
 30
0.0
 11
241.024215
 21
223.260717
 31
0.0
  0
LINE
  5
1ea
100
AcDbEntity
  8
0
 62
7
100
AcDbLine
 10
241.024215
 20
223.260717
 30
0.0
 11
247.024220
 21
223.260717
 31
0.0
  0
LINE
  5
1eb
100
AcDbEntity
  8
0
 62
7
100
AcDbLine
 10
247.024220
 20
223.260717
 30
0.0
 11
247.024220
 21
219.260714
 31
0.0
  0
LINE
  5
1ec
100
AcDbEntity
  8
0
 62
7
100
AcDbLine
 10
247.024220
 20
219.260714
 30
0.0
 11
253.024225
 21
219.260714
 31
0.0
  0
LINE
  5
1ed
100
AcDbEntity
  8
0
 62
7
100
AcDbLine
 10
253.024225
 20
219.260714
 30
0.0
 11
253.024225
 21
223.260717
 31
0.0
  0
LINE
  5
1ee
100
AcDbEntity
  8
0
 62
7
100
AcDbLine
 10
253.024225
 20
223.260717
 30
0.0
 11
259.024230
 21
223.260717
 31
0.0
  0
LINE
  5
1ef
100
AcDbEntity
  8
0
 62
7
100
AcDbLine
 10
259.024230
 20
223.260717
 30
0.0
 11
259.024230
 21
219.260714
 31
0.0
  0
LINE
  5
1f0
100
AcDbEntity
  8
0
 62
7
100
AcDbLine
 10
259.024230
 20
219.260714
 30
0.0
 11
268.774237
 21
219.260714
 31
0.0
  0
LINE
  5
1f1
100
AcDbEntity
  8
0
 62
7
100
AcDbLine
 10
268.774237
 20
219.260714
 30
0.0
 11
268.774237
 21
223.260717
 31
0.0
  0
LINE
  5
1f2
100
AcDbEntity
  8
0
 62
7
100
AcDbLine
 10
268.774237
 20
223.260717
 30
0.0
 11
278.524245
 21
223.260717
 31
0.0
  0
LINE
  5
1f3
100
AcDbEntity
  8
0
 62
7
100
AcDbLine
 10
278.524245
 20
223.260717
 30
0.0
 11
278.524245
 21
214.010710
 31
0.0
  0
LINE
  5
1f4
100
AcDbEntity
  8
0
 62
7
100
AcDbLine
 10
278.524245
 20
214.010710
 30
0.0
 11
274.524241
 21
214.010710
 31
0.0
  0
LINE
  5
1f5
100
AcDbEntity
  8
0
 62
7
100
AcDbLine
 10
274.524241
 20
214.010710
 30
0.0
 11
274.524241
 21
204.760702
 31
0.0
  0
LINE
  5
1f6
100
AcDbEntity
  8
0
 62
7
100
AcDbLine
 10
274.524241
 20
204.760702
 30
0.0
 11
278.524245
 21
204.760702
 31
0.0
  0
LINE
  5
1f7
100
AcDbEntity
  8
0
 62
7
100
AcDbLine
 10
278.524245
 20
204.760702
 30
0.0
 11
278.524245
 21
198.760697
 31
0.0
  0
LINE
  5
1f8
100
AcDbEntity
  8
0
 62
7
100
AcDbLine
 10
177.540855
 20
150.760659
 30
0.0
 11
177.540855
 21
144.760654
 31
0.0
  0
LINE
  5
1f9
100
AcDbEntity
  8
0
 62
7
100
AcDbLine
 10
177.540855
 20
144.760654
 30
0.0
 11
173.540852
 21
144.760654
 31
0.0
  0
LINE
  5
1fa
100
AcDbEntity
  8
0
 62
7
100
AcDbLine
 10
173.540852
 20
144.760654
 30
0.0
 11
173.540852
 21
138.760649
 31
0.0
  0
LINE
  5
1fb
100
AcDbEntity
  8
0
 62
7
100
AcDbLine
 10
173.540852
 20
138.760649
 30
0.0
 11
177.540855
 21
138.760649
 31
0.0
  0
LINE
  5
1fc
100
AcDbEntity
  8
0
 62
7
100
AcDbLine
 10
177.540855
 20
138.760649
 30
0.0
 11
177.540855
 21
132.760642
 31
0.0
  0
LINE
  5
1fd
100
AcDbEntity
  8
0
 62
7
100
AcDbLine
 10
177.540855
 20
132.760642
 30
0.0
 11
173.540852
 21
132.760642
 31
0.0
  0
LINE
  5
1fe
100
AcDbEntity
  8
0
 62
7
100
AcDbLine
 10
173.540852
 20
132.760642
 30
0.0
 11
173.540852
 21
126.760637
 31
0.0
  0
LINE
  5
1ff
100
AcDbEntity
  8
0
 62
7
100
AcDbLine
 10
173.540852
 20
126.760637
 30
0.0
 11
177.540855
 21
126.760637
 31
0.0
  0
LINE
  5
200
100
AcDbEntity
  8
0
 62
7
100
AcDbLine
 10
177.540855
 20
126.760637
 30
0.0
 11
177.540855
 21
117.510631
 31
0.0
  0
LINE
  5
201
100
AcDbEntity
  8
0
 62
7
100
AcDbLine
 10
177.540855
 20
117.510631
 30
0.0
 11
173.540852
 21
117.510631
 31
0.0
  0
LINE
  5
202
100
AcDbEntity
  8
0
 62
7
100
AcDbLine
 10
173.540852
 20
117.510631
 30
0.0
 11
173.540852
 21
108.260623
 31
0.0
  0
LINE
  5
203
100
AcDbEntity
  8
0
 62
7
100
AcDbLine
 10
173.540852
 20
108.260623
 30
0.0
 11
171.140850
 21
108.260623
 31
0.0
  0
LINE
  5
204
100
AcDbEntity
  8
0
 62
7
100
AcDbLine
 10
171.140850
 20
108.260623
 30
0.0
 11
171.140850
 21
112.260626
 31
0.0
  0
LINE
  5
205
100
AcDbEntity
  8
0
 62
7
100
AcDbLine
 10
171.140850
 20
112.260626
 30
0.0
 11
164.740845
 21
112.260626
 31
0.0
  0
LINE
  5
206
100
AcDbEntity
  8
0
 62
7
100
AcDbLine
 10
164.740845
 20
112.260626
 30
0.0
 11
164.740845
 21
108.260623
 31
0.0
  0
LINE
  5
207
100
AcDbEntity
  8
0
 62
7
100
AcDbLine
 10
164.740845
 20
108.260623
 30
0.0
 11
158.340839
 21
108.260623
 31
0.0
  0
LINE
  5
208
100
AcDbEntity
  8
0
 62
7
100
AcDbLine
 10
158.340839
 20
108.260623
 30
0.0
 11
158.340839
 21
112.260626
 31
0.0
  0
LINE
  5
209
100
AcDbEntity
  8
0
 62
7
100
AcDbLine
 10
158.340839
 20
112.260626
 30
0.0
 11
151.940834
 21
112.260626
 31
0.0
  0
LINE
  5
20a
100
AcDbEntity
  8
0
 62
7
100
AcDbLine
 10
151.940834
 20
112.260626
 30
0.0
 11
151.940834
 21
108.260623
 31
0.0
  0
LINE
  5
20b
100
AcDbEntity
  8
0
 62
7
100
AcDbLine
 10
151.940834
 20
108.260623
 30
0.0
 11
149.540832
 21
108.260623
 31
0.0
  0
LINE
  5
20c
100
AcDbEntity
  8
0
 62
7
100
AcDbLine
 10
149.540832
 20
108.260623
 30
0.0
 11
149.540832
 21
117.510631
 31
0.0
  0
LINE
  5
20d
100
AcDbEntity
  8
0
 62
7
100
AcDbLine
 10
149.540832
 20
117.510631
 30
0.0
 11
145.540829
 21
117.510631
 31
0.0
  0
LINE
  5
20e
100
AcDbEntity
  8
0
 62
7
100
AcDbLine
 10
145.540829
 20
117.510631
 30
0.0
 11
145.540829
 21
126.760637
 31
0.0
  0
LINE
  5
20f
100
AcDbEntity
  8
0
 62
7
100
AcDbLine
 10
145.540829
 20
126.760637
 30
0.0
 11
149.540832
 21
126.760637
 31
0.0
  0
LINE
  5
210
100
AcDbEntity
  8
0
 62
7
100
AcDbLine
 10
149.540832
 20
126.760637
 30
0.0
 11
149.540832
 21
132.760642
 31
0.0
  0
LINE
  5
211
100
AcDbEntity
  8
0
 62
7
100
AcDbLine
 10
149.540832
 20
132.760642
 30
0.0
 11
145.540829
 21
132.760642
 31
0.0
  0
LINE
  5
212
100
AcDbEntity
  8
0
 62
7
100
AcDbLine
 10
145.540829
 20
132.760642
 30
0.0
 11
145.540829
 21
138.760649
 31
0.0
  0
LINE
  5
213
100
AcDbEntity
  8
0
 62
7
100
AcDbLine
 10
145.540829
 20
138.760649
 30
0.0
 11
149.540832
 21
138.760649
 31
0.0
  0
LINE
  5
214
100
AcDbEntity
  8
0
 62
7
100
AcDbLine
 10
149.540832
 20
138.760649
 30
0.0
 11
149.540832
 21
144.760654
 31
0.0
  0
LINE
  5
215
100
AcDbEntity
  8
0
 62
7
100
AcDbLine
 10
149.540832
 20
144.760654
 30
0.0
 11
145.540829
 21
144.760654
 31
0.0
  0
LINE
  5
216
100
AcDbEntity
  8
0
 62
7
100
AcDbLine
 10
145.540829
 20
144.760654
 30
0.0
 11
145.540829
 21
150.760659
 31
0.0
  0
LINE
  5
217
100
AcDbEntity
  8
0
 62
7
100
AcDbLine
 10
145.540829
 20
150.760659
 30
0.0
 11
149.540832
 21
150.760659
 31
0.0
  0
LINE
  5
218
100
AcDbEntity
  8
0
 62
7
100
AcDbLine
 10
149.540832
 20
150.760659
 30
0.0
 11
149.540832
 21
156.760664
 31
0.0
  0
LINE
  5
219
100
AcDbEntity
  8
0
 62
7
100
AcDbLine
 10
149.540832
 20
156.760664
 30
0.0
 11
145.540829
 21
156.760664
 31
0.0
  0
LINE
  5
21a
100
AcDbEntity
  8
0
 62
7
100
AcDbLine
 10
145.540829
 20
156.760664
 30
0.0
 11
145.540829
 21
162.760669
 31
0.0
  0
LINE
  5
21b
100
AcDbEntity
  8
0
 62
7
100
AcDbLine
 10
145.540829
 20
162.760669
 30
0.0
 11
149.540832
 21
162.760669
 31
0.0
  0
LINE
  5
21c
100
AcDbEntity
  8
0
 62
7
100
AcDbLine
 10
149.540832
 20
162.760669
 30
0.0
 11
149.540832
 21
168.760674
 31
0.0
  0
LINE
  5
21d
100
AcDbEntity
  8
0
 62
7
100
AcDbLine
 10
149.540832
 20
168.760674
 30
0.0
 11
145.540829
 21
168.760674
 31
0.0
  0
LINE
  5
21e
100
AcDbEntity
  8
0
 62
7
100
AcDbLine
 10
145.540829
 20
168.760674
 30
0.0
 11
145.540829
 21
174.760676
 31
0.0
  0
LINE
  5
21f
100
AcDbEntity
  8
0
 62
7
100
AcDbLine
 10
145.540829
 20
174.760676
 30
0.0
 11
149.540832
 21
174.760676
 31
0.0
  0
LINE
  5
220
100
AcDbEntity
  8
0
 62
7
100
AcDbLine
 10
149.540832
 20
174.760676
 30
0.0
 11
149.540832
 21
180.760681
 31
0.0
  0
LINE
  5
221
100
AcDbEntity
  8
0
 62
7
100
AcDbLine
 10
149.540832
 20
180.760681
 30
0.0
 11
145.540829
 21
180.760681
 31
0.0
  0
LINE
  5
222
100
AcDbEntity
  8
0
 62
7
100
AcDbLine
 10
145.540829
 20
180.760681
 30
0.0
 11
145.540829
 21
186.760686
 31
0.0
  0
LINE
  5
223
100
AcDbEntity
  8
0
 62
7
100
AcDbLine
 10
145.540829
 20
186.760686
 30
0.0
 11
149.540832
 21
186.760686
 31
0.0
  0
LINE
  5
224
100
AcDbEntity
  8
0
 62
7
100
AcDbLine
 10
149.540832
 20
186.760686
 30
0.0
 11
149.540832
 21
192.760694
 31
0.0
  0
LINE
  5
225
100
AcDbEntity
  8
0
 62
7
100
AcDbLine
 10
149.540832
 20
192.760694
 30
0.0
 11
145.540829
 21
192.760694
 31
0.0
  0
LINE
  5
226
100
AcDbEntity
  8
0
 62
7
100
AcDbLine
 10
145.540829
 20
192.760694
 30
0.0
 11
145.540829
 21
198.760697
 31
0.0
  0
LINE
  5
227
100
AcDbEntity
  8
0
 62
7
100
AcDbLine
 10
145.540829
 20
198.760697
 30
0.0
 11
149.540832
 21
198.760697
 31
0.0
  0
LINE
  5
228
100
AcDbEntity
  8
0
 62
7
100
AcDbLine
 10
149.540832
 20
198.760697
 30
0.0
 11
149.540832
 21
204.760702
 31
0.0
  0
LINE
  5
229
100
AcDbEntity
  8
0
 62
7
100
AcDbLine
 10
149.540832
 20
204.760702
 30
0.0
 11
145.540829
 21
204.760702
 31
0.0
  0
LINE
  5
22a
100
AcDbEntity
  8
0
 62
7
100
AcDbLine
 10
145.540829
 20
204.760702
 30
0.0
 11
145.540829
 21
214.010710
 31
0.0
  0
LINE
  5
22b
100
AcDbEntity
  8
0
 62
7
100
AcDbLine
 10
145.540829
 20
214.010710
 30
0.0
 11
149.540832
 21
214.010710
 31
0.0
  0
LINE
  5
22c
100
AcDbEntity
  8
0
 62
7
100
AcDbLine
 10
149.540832
 20
214.010710
 30
0.0
 11
149.540832
 21
223.260717
 31
0.0
  0
LINE
  5
22d
100
AcDbEntity
  8
0
 62
7
100
AcDbLine
 10
149.540832
 20
223.260717
 30
0.0
 11
151.940834
 21
223.260717
 31
0.0
  0
LINE
  5
22e
100
AcDbEntity
  8
0
 62
7
100
AcDbLine
 10
151.940834
 20
223.260717
 30
0.0
 11
151.940834
 21
219.260714
 31
0.0
  0
LINE
  5
22f
100
AcDbEntity
  8
0
 62
7
100
AcDbLine
 10
151.940834
 20
219.260714
 30
0.0
 11
158.340839
 21
219.260714
 31
0.0
  0
LINE
  5
230
100
AcDbEntity
  8
0
 62
7
100
AcDbLine
 10
158.340839
 20
219.260714
 30
0.0
 11
158.340839
 21
223.260717
 31
0.0
  0
LINE
  5
231
100
AcDbEntity
  8
0
 62
7
100
AcDbLine
 10
158.340839
 20
223.260717
 30
0.0
 11
164.740845
 21
223.260717
 31
0.0
  0
LINE
  5
232
100
AcDbEntity
  8
0
 62
7
100
AcDbLine
 10
164.740845
 20
223.260717
 30
0.0
 11
164.740845
 21
219.260714
 31
0.0
  0
LINE
  5
233
100
AcDbEntity
  8
0
 62
7
100
AcDbLine
 10
164.740845
 20
219.260714
 30
0.0
 11
171.140850
 21
219.260714
 31
0.0
  0
LINE
  5
234
100
AcDbEntity
  8
0
 62
7
100
AcDbLine
 10
171.140850
 20
219.260714
 30
0.0
 11
171.140850
 21
223.260717
 31
0.0
  0
LINE
  5
235
100
AcDbEntity
  8
0
 62
7
100
AcDbLine
 10
171.140850
 20
223.260717
 30
0.0
 11
173.540852
 21
223.260717
 31
0.0
  0
LINE
  5
236
100
AcDbEntity
  8
0
 62
7
100
AcDbLine
 10
173.540852
 20
223.260717
 30
0.0
 11
173.540852
 21
214.010710
 31
0.0
  0
LINE
  5
237
100
AcDbEntity
  8
0
 62
7
100
AcDbLine
 10
173.540852
 20
214.010710
 30
0.0
 11
177.540855
 21
214.010710
 31
0.0
  0
LINE
  5
238
100
AcDbEntity
  8
0
 62
7
100
AcDbLine
 10
177.540855
 20
214.010710
 30
0.0
 11
177.540855
 21
204.760702
 31
0.0
  0
LINE
  5
239
100
AcDbEntity
  8
0
 62
7
100
AcDbLine
 10
177.540855
 20
204.760702
 30
0.0
 11
173.540852
 21
204.760702
 31
0.0
  0
LINE
  5
23a
100
AcDbEntity
  8
0
 62
7
100
AcDbLine
 10
173.540852
 20
204.760702
 30
0.0
 11
173.540852
 21
198.760697
 31
0.0
  0
LINE
  5
23b
100
AcDbEntity
  8
0
 62
7
100
AcDbLine
 10
173.540852
 20
198.760697
 30
0.0
 11
177.540855
 21
198.760697
 31
0.0
  0
LINE
  5
23c
100
AcDbEntity
  8
0
 62
7
100
AcDbLine
 10
177.540855
 20
198.760697
 30
0.0
 11
177.540855
 21
192.760694
 31
0.0
  0
LINE
  5
23d
100
AcDbEntity
  8
0
 62
7
100
AcDbLine
 10
177.540855
 20
192.760694
 30
0.0
 11
173.540852
 21
192.760694
 31
0.0
  0
LINE
  5
23e
100
AcDbEntity
  8
0
 62
7
100
AcDbLine
 10
173.540852
 20
192.760694
 30
0.0
 11
173.540852
 21
186.760686
 31
0.0
  0
LINE
  5
23f
100
AcDbEntity
  8
0
 62
7
100
AcDbLine
 10
173.540852
 20
186.760686
 30
0.0
 11
177.540855
 21
186.760686
 31
0.0
  0
LINE
  5
240
100
AcDbEntity
  8
0
 62
7
100
AcDbLine
 10
177.540855
 20
186.760686
 30
0.0
 11
177.540855
 21
180.760681
 31
0.0
  0
LINE
  5
241
100
AcDbEntity
  8
0
 62
7
100
AcDbLine
 10
177.540855
 20
180.760681
 30
0.0
 11
173.540852
 21
180.760681
 31
0.0
  0
LINE
  5
242
100
AcDbEntity
  8
0
 62
7
100
AcDbLine
 10
173.540852
 20
180.760681
 30
0.0
 11
173.540852
 21
174.760676
 31
0.0
  0
LINE
  5
243
100
AcDbEntity
  8
0
 62
7
100
AcDbLine
 10
173.540852
 20
174.760676
 30
0.0
 11
177.540855
 21
174.760676
 31
0.0
  0
LINE
  5
244
100
AcDbEntity
  8
0
 62
7
100
AcDbLine
 10
177.540855
 20
174.760676
 30
0.0
 11
177.540855
 21
168.760674
 31
0.0
  0
LINE
  5
245
100
AcDbEntity
  8
0
 62
7
100
AcDbLine
 10
177.540855
 20
168.760674
 30
0.0
 11
173.540852
 21
168.760674
 31
0.0
  0
LINE
  5
246
100
AcDbEntity
  8
0
 62
7
100
AcDbLine
 10
173.540852
 20
168.760674
 30
0.0
 11
173.540852
 21
162.760669
 31
0.0
  0
LINE
  5
247
100
AcDbEntity
  8
0
 62
7
100
AcDbLine
 10
173.540852
 20
162.760669
 30
0.0
 11
177.540855
 21
162.760669
 31
0.0
  0
LINE
  5
248
100
AcDbEntity
  8
0
 62
7
100
AcDbLine
 10
177.540855
 20
162.760669
 30
0.0
 11
177.540855
 21
156.760664
 31
0.0
  0
LINE
  5
249
100
AcDbEntity
  8
0
 62
7
100
AcDbLine
 10
177.540855
 20
156.760664
 30
0.0
 11
173.540852
 21
156.760664
 31
0.0
  0
LINE
  5
24a
100
AcDbEntity
  8
0
 62
7
100
AcDbLine
 10
173.540852
 20
156.760664
 30
0.0
 11
173.540852
 21
150.760659
 31
0.0
  0
LINE
  5
24b
100
AcDbEntity
  8
0
 62
7
100
AcDbLine
 10
173.540852
 20
150.760659
 30
0.0
 11
177.540855
 21
150.760659
 31
0.0
  0
LINE
  5
24c
100
AcDbEntity
  8
0
 62
7
100
AcDbLine
 10
44.567961
 20
138.783876
 30
0.0
 11
48.567964
 21
138.783876
 31
0.0
  0
LINE
  5
24d
100
AcDbEntity
  8
0
 62
7
100
AcDbLine
 10
48.567964
 20
138.783876
 30
0.0
 11
48.567964
 21
132.783868
 31
0.0
  0
LINE
  5
24e
100
AcDbEntity
  8
0
 62
7
100
AcDbLine
 10
48.567964
 20
132.783868
 30
0.0
 11
44.567961
 21
132.783868
 31
0.0
  0
LINE
  5
24f
100
AcDbEntity
  8
0
 62
7
100
AcDbLine
 10
44.567961
 20
132.783868
 30
0.0
 11
44.567961
 21
126.783863
 31
0.0
  0
LINE
  5
250
100
AcDbEntity
  8
0
 62
7
100
AcDbLine
 10
44.567961
 20
126.783863
 30
0.0
 11
48.567964
 21
126.783863
 31
0.0
  0
LINE
  5
251
100
AcDbEntity
  8
0
 62
7
100
AcDbLine
 10
48.567964
 20
126.783863
 30
0.0
 11
48.567964
 21
117.533858
 31
0.0
  0
LINE
  5
252
100
AcDbEntity
  8
0
 62
7
100
AcDbLine
 10
48.567964
 20
117.533858
 30
0.0
 11
44.567961
 21
117.533858
 31
0.0
  0
LINE
  5
253
100
AcDbEntity
  8
0
 62
7
100
AcDbLine
 10
44.567961
 20
117.533858
 30
0.0
 11
44.567961
 21
108.283850
 31
0.0
  0
LINE
  5
254
100
AcDbEntity
  8
0
 62
7
100
AcDbLine
 10
44.567961
 20
108.283850
 30
0.0
 11
42.167959
 21
108.283850
 31
0.0
  0
LINE
  5
255
100
AcDbEntity
  8
0
 62
7
100
AcDbLine
 10
42.167959
 20
108.283850
 30
0.0
 11
42.167959
 21
112.283853
 31
0.0
  0
LINE
  5
256
100
AcDbEntity
  8
0
 62
7
100
AcDbLine
 10
42.167959
 20
112.283853
 30
0.0
 11
35.767953
 21
112.283853
 31
0.0
  0
LINE
  5
257
100
AcDbEntity
  8
0
 62
7
100
AcDbLine
 10
35.767953
 20
112.283853
 30
0.0
 11
35.767953
 21
108.283850
 31
0.0
  0
LINE
  5
258
100
AcDbEntity
  8
0
 62
7
100
AcDbLine
 10
35.767953
 20
108.283850
 30
0.0
 11
29.367948
 21
108.283850
 31
0.0
  0
LINE
  5
259
100
AcDbEntity
  8
0
 62
7
100
AcDbLine
 10
29.367948
 20
108.283850
 30
0.0
 11
29.367948
 21
112.283853
 31
0.0
  0
LINE
  5
25a
100
AcDbEntity
  8
0
 62
7
100
AcDbLine
 10
29.367948
 20
112.283853
 30
0.0
 11
22.967943
 21
112.283853
 31
0.0
  0
LINE
  5
25b
100
AcDbEntity
  8
0
 62
7
100
AcDbLine
 10
22.967943
 20
112.283853
 30
0.0
 11
22.967943
 21
108.283850
 31
0.0
  0
LINE
  5
25c
100
AcDbEntity
  8
0
 62
7
100
AcDbLine
 10
22.967943
 20
108.283850
 30
0.0
 11
20.567941
 21
108.283850
 31
0.0
  0
LINE
  5
25d
100
AcDbEntity
  8
0
 62
7
100
AcDbLine
 10
20.567941
 20
108.283850
 30
0.0
 11
20.567941
 21
117.533858
 31
0.0
  0
LINE
  5
25e
100
AcDbEntity
  8
0
 62
7
100
AcDbLine
 10
20.567941
 20
117.533858
 30
0.0
 11
16.567938
 21
117.533858
 31
0.0
  0
LINE
  5
25f
100
AcDbEntity
  8
0
 62
7
100
AcDbLine
 10
16.567938
 20
117.533858
 30
0.0
 11
16.567938
 21
126.783863
 31
0.0
  0
LINE
  5
260
100
AcDbEntity
  8
0
 62
7
100
AcDbLine
 10
16.567938
 20
126.783863
 30
0.0
 11
20.567941
 21
126.783863
 31
0.0
  0
LINE
  5
261
100
AcDbEntity
  8
0
 62
7
100
AcDbLine
 10
20.567941
 20
126.783863
 30
0.0
 11
20.567941
 21
132.783868
 31
0.0
  0
LINE
  5
262
100
AcDbEntity
  8
0
 62
7
100
AcDbLine
 10
20.567941
 20
132.783868
 30
0.0
 11
16.567938
 21
132.783868
 31
0.0
  0
LINE
  5
263
100
AcDbEntity
  8
0
 62
7
100
AcDbLine
 10
16.567938
 20
132.783868
 30
0.0
 11
16.567938
 21
138.783876
 31
0.0
  0
LINE
  5
264
100
AcDbEntity
  8
0
 62
7
100
AcDbLine
 10
16.567938
 20
138.783876
 30
0.0
 11
20.567941
 21
138.783876
 31
0.0
  0
LINE
  5
265
100
AcDbEntity
  8
0
 62
7
100
AcDbLine
 10
20.567941
 20
138.783876
 30
0.0
 11
20.567941
 21
144.783881
 31
0.0
  0
LINE
  5
266
100
AcDbEntity
  8
0
 62
7
100
AcDbLine
 10
20.567941
 20
144.783881
 30
0.0
 11
16.567938
 21
144.783881
 31
0.0
  0
LINE
  5
267
100
AcDbEntity
  8
0
 62
7
100
AcDbLine
 10
16.567938
 20
144.783881
 30
0.0
 11
16.567938
 21
150.783886
 31
0.0
  0
LINE
  5
268
100
AcDbEntity
  8
0
 62
7
100
AcDbLine
 10
16.567938
 20
150.783886
 30
0.0
 11
20.567941
 21
150.783886
 31
0.0
  0
LINE
  5
269
100
AcDbEntity
  8
0
 62
7
100
AcDbLine
 10
20.567941
 20
150.783886
 30
0.0
 11
20.567941
 21
156.783891
 31
0.0
  0
LINE
  5
26a
100
AcDbEntity
  8
0
 62
7
100
AcDbLine
 10
20.567941
 20
156.783891
 30
0.0
 11
16.567938
 21
156.783891
 31
0.0
  0
LINE
  5
26b
100
AcDbEntity
  8
0
 62
7
100
AcDbLine
 10
16.567938
 20
156.783891
 30
0.0
 11
16.567938
 21
162.783896
 31
0.0
  0
LINE
  5
26c
100
AcDbEntity
  8
0
 62
7
100
AcDbLine
 10
16.567938
 20
162.783896
 30
0.0
 11
20.567941
 21
162.783896
 31
0.0
  0
LINE
  5
26d
100
AcDbEntity
  8
0
 62
7
100
AcDbLine
 10
20.567941
 20
162.783896
 30
0.0
 11
20.567941
 21
168.783901
 31
0.0
  0
LINE
  5
26e
100
AcDbEntity
  8
0
 62
7
100
AcDbLine
 10
20.567941
 20
168.783901
 30
0.0
 11
16.567938
 21
168.783901
 31
0.0
  0
LINE
  5
26f
100
AcDbEntity
  8
0
 62
7
100
AcDbLine
 10
16.567938
 20
168.783901
 30
0.0
 11
16.567938
 21
174.783903
 31
0.0
  0
LINE
  5
270
100
AcDbEntity
  8
0
 62
7
100
AcDbLine
 10
16.567938
 20
174.783903
 30
0.0
 11
20.567941
 21
174.783903
 31
0.0
  0
LINE
  5
271
100
AcDbEntity
  8
0
 62
7
100
AcDbLine
 10
20.567941
 20
174.783903
 30
0.0
 11
20.567941
 21
180.783908
 31
0.0
  0
LINE
  5
272
100
AcDbEntity
  8
0
 62
7
100
AcDbLine
 10
20.567941
 20
180.783908
 30
0.0
 11
16.567938
 21
180.783908
 31
0.0
  0
LINE
  5
273
100
AcDbEntity
  8
0
 62
7
100
AcDbLine
 10
16.567938
 20
180.783908
 30
0.0
 11
16.567938
 21
186.783913
 31
0.0
  0
LINE
  5
274
100
AcDbEntity
  8
0
 62
7
100
AcDbLine
 10
16.567938
 20
186.783913
 30
0.0
 11
20.567941
 21
186.783913
 31
0.0
  0
LINE
  5
275
100
AcDbEntity
  8
0
 62
7
100
AcDbLine
 10
20.567941
 20
186.783913
 30
0.0
 11
20.567941
 21
192.783921
 31
0.0
  0
LINE
  5
276
100
AcDbEntity
  8
0
 62
7
100
AcDbLine
 10
20.567941
 20
192.783921
 30
0.0
 11
16.567938
 21
192.783921
 31
0.0
  0
LINE
  5
277
100
AcDbEntity
  8
0
 62
7
100
AcDbLine
 10
16.567938
 20
192.783921
 30
0.0
 11
16.567938
 21
198.783924
 31
0.0
  0
LINE
  5
278
100
AcDbEntity
  8
0
 62
7
100
AcDbLine
 10
16.567938
 20
198.783924
 30
0.0
 11
20.567941
 21
198.783924
 31
0.0
  0
LINE
  5
279
100
AcDbEntity
  8
0
 62
7
100
AcDbLine
 10
20.567941
 20
198.783924
 30
0.0
 11
20.567941
 21
204.783929
 31
0.0
  0
LINE
  5
27a
100
AcDbEntity
  8
0
 62
7
100
AcDbLine
 10
20.567941
 20
204.783929
 30
0.0
 11
16.567938
 21
204.783929
 31
0.0
  0
LINE
  5
27b
100
AcDbEntity
  8
0
 62
7
100
AcDbLine
 10
16.567938
 20
204.783929
 30
0.0
 11
16.567938
 21
214.033937
 31
0.0
  0
LINE
  5
27c
100
AcDbEntity
  8
0
 62
7
100
AcDbLine
 10
16.567938
 20
214.033937
 30
0.0
 11
20.567941
 21
214.033937
 31
0.0
  0
LINE
  5
27d
100
AcDbEntity
  8
0
 62
7
100
AcDbLine
 10
20.567941
 20
214.033937
 30
0.0
 11
20.567941
 21
223.283944
 31
0.0
  0
LINE
  5
27e
100
AcDbEntity
  8
0
 62
7
100
AcDbLine
 10
20.567941
 20
223.283944
 30
0.0
 11
22.967943
 21
223.283944
 31
0.0
  0
LINE
  5
27f
100
AcDbEntity
  8
0
 62
7
100
AcDbLine
 10
22.967943
 20
223.283944
 30
0.0
 11
22.967943
 21
219.283941
 31
0.0
  0
LINE
  5
280
100
AcDbEntity
  8
0
 62
7
100
AcDbLine
 10
22.967943
 20
219.283941
 30
0.0
 11
29.367948
 21
219.283941
 31
0.0
  0
LINE
  5
281
100
AcDbEntity
  8
0
 62
7
100
AcDbLine
 10
29.367948
 20
219.283941
 30
0.0
 11
29.367948
 21
223.283944
 31
0.0
  0
LINE
  5
282
100
AcDbEntity
  8
0
 62
7
100
AcDbLine
 10
29.367948
 20
223.283944
 30
0.0
 11
35.767953
 21
223.283944
 31
0.0
  0
LINE
  5
283
100
AcDbEntity
  8
0
 62
7
100
AcDbLine
 10
35.767953
 20
223.283944
 30
0.0
 11
35.767953
 21
219.283941
 31
0.0
  0
LINE
  5
284
100
AcDbEntity
  8
0
 62
7
100
AcDbLine
 10
35.767953
 20
219.283941
 30
0.0
 11
42.167959
 21
219.283941
 31
0.0
  0
LINE
  5
285
100
AcDbEntity
  8
0
 62
7
100
AcDbLine
 10
42.167959
 20
219.283941
 30
0.0
 11
42.167959
 21
223.283944
 31
0.0
  0
LINE
  5
286
100
AcDbEntity
  8
0
 62
7
100
AcDbLine
 10
42.167959
 20
223.283944
 30
0.0
 11
44.567961
 21
223.283944
 31
0.0
  0
LINE
  5
287
100
AcDbEntity
  8
0
 62
7
100
AcDbLine
 10
44.567961
 20
223.283944
 30
0.0
 11
44.567961
 21
214.033937
 31
0.0
  0
LINE
  5
288
100
AcDbEntity
  8
0
 62
7
100
AcDbLine
 10
44.567961
 20
214.033937
 30
0.0
 11
48.567964
 21
214.033937
 31
0.0
  0
LINE
  5
289
100
AcDbEntity
  8
0
 62
7
100
AcDbLine
 10
48.567964
 20
214.033937
 30
0.0
 11
48.567964
 21
204.783929
 31
0.0
  0
LINE
  5
28a
100
AcDbEntity
  8
0
 62
7
100
AcDbLine
 10
48.567964
 20
204.783929
 30
0.0
 11
44.567961
 21
204.783929
 31
0.0
  0
LINE
  5
28b
100
AcDbEntity
  8
0
 62
7
100
AcDbLine
 10
44.567961
 20
204.783929
 30
0.0
 11
44.567961
 21
198.783924
 31
0.0
  0
LINE
  5
28c
100
AcDbEntity
  8
0
 62
7
100
AcDbLine
 10
44.567961
 20
198.783924
 30
0.0
 11
48.567964
 21
198.783924
 31
0.0
  0
LINE
  5
28d
100
AcDbEntity
  8
0
 62
7
100
AcDbLine
 10
48.567964
 20
198.783924
 30
0.0
 11
48.567964
 21
192.783921
 31
0.0
  0
LINE
  5
28e
100
AcDbEntity
  8
0
 62
7
100
AcDbLine
 10
48.567964
 20
192.783921
 30
0.0
 11
44.567961
 21
192.783921
 31
0.0
  0
LINE
  5
28f
100
AcDbEntity
  8
0
 62
7
100
AcDbLine
 10
44.567961
 20
192.783921
 30
0.0
 11
44.567961
 21
186.783913
 31
0.0
  0
LINE
  5
290
100
AcDbEntity
  8
0
 62
7
100
AcDbLine
 10
44.567961
 20
186.783913
 30
0.0
 11
48.567964
 21
186.783913
 31
0.0
  0
LINE
  5
291
100
AcDbEntity
  8
0
 62
7
100
AcDbLine
 10
48.567964
 20
186.783913
 30
0.0
 11
48.567964
 21
180.783908
 31
0.0
  0
LINE
  5
292
100
AcDbEntity
  8
0
 62
7
100
AcDbLine
 10
48.567964
 20
180.783908
 30
0.0
 11
44.567961
 21
180.783908
 31
0.0
  0
LINE
  5
293
100
AcDbEntity
  8
0
 62
7
100
AcDbLine
 10
44.567961
 20
180.783908
 30
0.0
 11
44.567961
 21
174.783903
 31
0.0
  0
LINE
  5
294
100
AcDbEntity
  8
0
 62
7
100
AcDbLine
 10
44.567961
 20
174.783903
 30
0.0
 11
48.567964
 21
174.783903
 31
0.0
  0
LINE
  5
295
100
AcDbEntity
  8
0
 62
7
100
AcDbLine
 10
48.567964
 20
174.783903
 30
0.0
 11
48.567964
 21
168.783901
 31
0.0
  0
LINE
  5
296
100
AcDbEntity
  8
0
 62
7
100
AcDbLine
 10
48.567964
 20
168.783901
 30
0.0
 11
44.567961
 21
168.783901
 31
0.0
  0
LINE
  5
297
100
AcDbEntity
  8
0
 62
7
100
AcDbLine
 10
44.567961
 20
168.783901
 30
0.0
 11
44.567961
 21
162.783896
 31
0.0
  0
LINE
  5
298
100
AcDbEntity
  8
0
 62
7
100
AcDbLine
 10
44.567961
 20
162.783896
 30
0.0
 11
48.567964
 21
162.783896
 31
0.0
  0
LINE
  5
299
100
AcDbEntity
  8
0
 62
7
100
AcDbLine
 10
48.567964
 20
162.783896
 30
0.0
 11
48.567964
 21
156.783891
 31
0.0
  0
LINE
  5
29a
100
AcDbEntity
  8
0
 62
7
100
AcDbLine
 10
48.567964
 20
156.783891
 30
0.0
 11
44.567961
 21
156.783891
 31
0.0
  0
LINE
  5
29b
100
AcDbEntity
  8
0
 62
7
100
AcDbLine
 10
44.567961
 20
156.783891
 30
0.0
 11
44.567961
 21
150.783886
 31
0.0
  0
LINE
  5
29c
100
AcDbEntity
  8
0
 62
7
100
AcDbLine
 10
44.567961
 20
150.783886
 30
0.0
 11
48.567964
 21
150.783886
 31
0.0
  0
LINE
  5
29d
100
AcDbEntity
  8
0
 62
7
100
AcDbLine
 10
48.567964
 20
150.783886
 30
0.0
 11
48.567964
 21
144.783881
 31
0.0
  0
LINE
  5
29e
100
AcDbEntity
  8
0
 62
7
100
AcDbLine
 10
48.567964
 20
144.783881
 30
0.0
 11
44.567961
 21
144.783881
 31
0.0
  0
LINE
  5
29f
100
AcDbEntity
  8
0
 62
7
100
AcDbLine
 10
44.567961
 20
144.783881
 30
0.0
 11
44.567961
 21
138.783876
 31
0.0
  0
LINE
  5
2a0
100
AcDbEntity
  8
0
 62
7
100
AcDbLine
 10
139.777140
 20
84.260097
 30
0.0
 11
139.777140
 21
80.260094
 31
0.0
  0
LINE
  5
2a1
100
AcDbEntity
  8
0
 62
7
100
AcDbLine
 10
139.777140
 20
80.260094
 30
0.0
 11
130.027132
 21
80.260094
 31
0.0
  0
LINE
  5
2a2
100
AcDbEntity
  8
0
 62
7
100
AcDbLine
 10
130.027132
 20
80.260094
 30
0.0
 11
130.027132
 21
84.260097
 31
0.0
  0
LINE
  5
2a3
100
AcDbEntity
  8
0
 62
7
100
AcDbLine
 10
130.027132
 20
84.260097
 30
0.0
 11
124.027128
 21
84.260097
 31
0.0
  0
LINE
  5
2a4
100
AcDbEntity
  8
0
 62
7
100
AcDbLine
 10
124.027128
 20
84.260097
 30
0.0
 11
124.027128
 21
80.260094
 31
0.0
  0
LINE
  5
2a5
100
AcDbEntity
  8
0
 62
7
100
AcDbLine
 10
124.027128
 20
80.260094
 30
0.0
 11
118.027123
 21
80.260094
 31
0.0
  0
LINE
  5
2a6
100
AcDbEntity
  8
0
 62
7
100
AcDbLine
 10
118.027123
 20
80.260094
 30
0.0
 11
118.027123
 21
84.260097
 31
0.0
  0
LINE
  5
2a7
100
AcDbEntity
  8
0
 62
7
100
AcDbLine
 10
118.027123
 20
84.260097
 30
0.0
 11
112.027118
 21
84.260097
 31
0.0
  0
LINE
  5
2a8
100
AcDbEntity
  8
0
 62
7
100
AcDbLine
 10
112.027118
 20
84.260097
 30
0.0
 11
112.027118
 21
80.260094
 31
0.0
  0
LINE
  5
2a9
100
AcDbEntity
  8
0
 62
7
100
AcDbLine
 10
112.027118
 20
80.260094
 30
0.0
 11
106.027113
 21
80.260094
 31
0.0
  0
LINE
  5
2aa
100
AcDbEntity
  8
0
 62
7
100
AcDbLine
 10
106.027113
 20
80.260094
 30
0.0
 11
106.027113
 21
84.260097
 31
0.0
  0
LINE
  5
2ab
100
AcDbEntity
  8
0
 62
7
100
AcDbLine
 10
106.027113
 20
84.260097
 30
0.0
 11
100.027108
 21
84.260097
 31
0.0
  0
LINE
  5
2ac
100
AcDbEntity
  8
0
 62
7
100
AcDbLine
 10
100.027108
 20
84.260097
 30
0.0
 11
100.027108
 21
80.260094
 31
0.0
  0
LINE
  5
2ad
100
AcDbEntity
  8
0
 62
7
100
AcDbLine
 10
100.027108
 20
80.260094
 30
0.0
 11
94.027100
 21
80.260094
 31
0.0
  0
LINE
  5
2ae
100
AcDbEntity
  8
0
 62
7
100
AcDbLine
 10
94.027100
 20
80.260094
 30
0.0
 11
94.027100
 21
84.260097
 31
0.0
  0
LINE
  5
2af
100
AcDbEntity
  8
0
 62
7
100
AcDbLine
 10
94.027100
 20
84.260097
 30
0.0
 11
88.027095
 21
84.260097
 31
0.0
  0
LINE
  5
2b0
100
AcDbEntity
  8
0
 62
7
100
AcDbLine
 10
88.027095
 20
84.260097
 30
0.0
 11
88.027095
 21
80.260094
 31
0.0
  0
LINE
  5
2b1
100
AcDbEntity
  8
0
 62
7
100
AcDbLine
 10
88.027095
 20
80.260094
 30
0.0
 11
82.027090
 21
80.260094
 31
0.0
  0
LINE
  5
2b2
100
AcDbEntity
  8
0
 62
7
100
AcDbLine
 10
82.027090
 20
80.260094
 30
0.0
 11
82.027090
 21
84.260097
 31
0.0
  0
LINE
  5
2b3
100
AcDbEntity
  8
0
 62
7
100
AcDbLine
 10
82.027090
 20
84.260097
 30
0.0
 11
76.027085
 21
84.260097
 31
0.0
  0
LINE
  5
2b4
100
AcDbEntity
  8
0
 62
7
100
AcDbLine
 10
76.027085
 20
84.260097
 30
0.0
 11
76.027085
 21
80.260094
 31
0.0
  0
LINE
  5
2b5
100
AcDbEntity
  8
0
 62
7
100
AcDbLine
 10
76.027085
 20
80.260094
 30
0.0
 11
70.027082
 21
80.260094
 31
0.0
  0
LINE
  5
2b6
100
AcDbEntity
  8
0
 62
7
100
AcDbLine
 10
70.027082
 20
80.260094
 30
0.0
 11
70.027082
 21
84.260097
 31
0.0
  0
LINE
  5
2b7
100
AcDbEntity
  8
0
 62
7
100
AcDbLine
 10
70.027082
 20
84.260097
 30
0.0
 11
64.027077
 21
84.260097
 31
0.0
  0
LINE
  5
2b8
100
AcDbEntity
  8
0
 62
7
100
AcDbLine
 10
64.027077
 20
84.260097
 30
0.0
 11
64.027077
 21
80.260094
 31
0.0
  0
LINE
  5
2b9
100
AcDbEntity
  8
0
 62
7
100
AcDbLine
 10
64.027077
 20
80.260094
 30
0.0
 11
54.277069
 21
80.260094
 31
0.0
  0
LINE
  5
2ba
100
AcDbEntity
  8
0
 62
7
100
AcDbLine
 10
54.277069
 20
80.260094
 30
0.0
 11
54.277069
 21
84.260097
 31
0.0
  0
LINE
  5
2bb
100
AcDbEntity
  8
0
 62
7
100
AcDbLine
 10
54.277069
 20
84.260097
 30
0.0
 11
48.527064
 21
84.260097
 31
0.0
  0
LINE
  5
2bc
100
AcDbEntity
  8
0
 62
7
100
AcDbLine
 10
48.527064
 20
84.260097
 30
0.0
 11
48.527064
 21
86.660099
 31
0.0
  0
LINE
  5
2bd
100
AcDbEntity
  8
0
 62
7
100
AcDbLine
 10
48.527064
 20
86.660099
 30
0.0
 11
44.527061
 21
86.660099
 31
0.0
  0
LINE
  5
2be
100
AcDbEntity
  8
0
 62
7
100
AcDbLine
 10
44.527061
 20
86.660099
 30
0.0
 11
44.527061
 21
93.060105
 31
0.0
  0
LINE
  5
2bf
100
AcDbEntity
  8
0
 62
7
100
AcDbLine
 10
44.527061
 20
93.060105
 30
0.0
 11
48.527064
 21
93.060105
 31
0.0
  0
LINE
  5
2c0
100
AcDbEntity
  8
0
 62
7
100
AcDbLine
 10
48.527064
 20
93.060105
 30
0.0
 11
48.527064
 21
99.460110
 31
0.0
  0
LINE
  5
2c1
100
AcDbEntity
  8
0
 62
7
100
AcDbLine
 10
48.527064
 20
99.460110
 30
0.0
 11
44.527061
 21
99.460110
 31
0.0
  0
LINE
  5
2c2
100
AcDbEntity
  8
0
 62
7
100
AcDbLine
 10
44.527061
 20
99.460110
 30
0.0
 11
44.527061
 21
105.860115
 31
0.0
  0
LINE
  5
2c3
100
AcDbEntity
  8
0
 62
7
100
AcDbLine
 10
44.527061
 20
105.860115
 30
0.0
 11
48.527064
 21
105.860115
 31
0.0
  0
LINE
  5
2c4
100
AcDbEntity
  8
0
 62
7
100
AcDbLine
 10
48.527064
 20
105.860115
 30
0.0
 11
48.527064
 21
108.260117
 31
0.0
  0
LINE
  5
2c5
100
AcDbEntity
  8
0
 62
7
100
AcDbLine
 10
48.527064
 20
108.260117
 30
0.0
 11
54.277069
 21
108.260117
 31
0.0
  0
LINE
  5
2c6
100
AcDbEntity
  8
0
 62
7
100
AcDbLine
 10
54.277069
 20
108.260117
 30
0.0
 11
54.277069
 21
112.260120
 31
0.0
  0
LINE
  5
2c7
100
AcDbEntity
  8
0
 62
7
100
AcDbLine
 10
54.277069
 20
112.260120
 30
0.0
 11
64.027077
 21
112.260120
 31
0.0
  0
LINE
  5
2c8
100
AcDbEntity
  8
0
 62
7
100
AcDbLine
 10
64.027077
 20
112.260120
 30
0.0
 11
64.027077
 21
108.260117
 31
0.0
  0
LINE
  5
2c9
100
AcDbEntity
  8
0
 62
7
100
AcDbLine
 10
64.027077
 20
108.260117
 30
0.0
 11
70.027082
 21
108.260117
 31
0.0
  0
LINE
  5
2ca
100
AcDbEntity
  8
0
 62
7
100
AcDbLine
 10
70.027082
 20
108.260117
 30
0.0
 11
70.027082
 21
112.260120
 31
0.0
  0
LINE
  5
2cb
100
AcDbEntity
  8
0
 62
7
100
AcDbLine
 10
70.027082
 20
112.260120
 30
0.0
 11
76.027085
 21
112.260120
 31
0.0
  0
LINE
  5
2cc
100
AcDbEntity
  8
0
 62
7
100
AcDbLine
 10
76.027085
 20
112.260120
 30
0.0
 11
76.027085
 21
108.260117
 31
0.0
  0
LINE
  5
2cd
100
AcDbEntity
  8
0
 62
7
100
AcDbLine
 10
76.027085
 20
108.260117
 30
0.0
 11
82.027090
 21
108.260117
 31
0.0
  0
LINE
  5
2ce
100
AcDbEntity
  8
0
 62
7
100
AcDbLine
 10
82.027090
 20
108.260117
 30
0.0
 11
82.027090
 21
112.260120
 31
0.0
  0
LINE
  5
2cf
100
AcDbEntity
  8
0
 62
7
100
AcDbLine
 10
82.027090
 20
112.260120
 30
0.0
 11
88.027095
 21
112.260120
 31
0.0
  0
LINE
  5
2d0
100
AcDbEntity
  8
0
 62
7
100
AcDbLine
 10
88.027095
 20
112.260120
 30
0.0
 11
88.027095
 21
108.260117
 31
0.0
  0
LINE
  5
2d1
100
AcDbEntity
  8
0
 62
7
100
AcDbLine
 10
88.027095
 20
108.260117
 30
0.0
 11
94.027100
 21
108.260117
 31
0.0
  0
LINE
  5
2d2
100
AcDbEntity
  8
0
 62
7
100
AcDbLine
 10
94.027100
 20
108.260117
 30
0.0
 11
94.027100
 21
112.260120
 31
0.0
  0
LINE
  5
2d3
100
AcDbEntity
  8
0
 62
7
100
AcDbLine
 10
94.027100
 20
112.260120
 30
0.0
 11
100.027108
 21
112.260120
 31
0.0
  0
LINE
  5
2d4
100
AcDbEntity
  8
0
 62
7
100
AcDbLine
 10
100.027108
 20
112.260120
 30
0.0
 11
100.027108
 21
108.260117
 31
0.0
  0
LINE
  5
2d5
100
AcDbEntity
  8
0
 62
7
100
AcDbLine
 10
100.027108
 20
108.260117
 30
0.0
 11
106.027113
 21
108.260117
 31
0.0
  0
LINE
  5
2d6
100
AcDbEntity
  8
0
 62
7
100
AcDbLine
 10
106.027113
 20
108.260117
 30
0.0
 11
106.027113
 21
112.260120
 31
0.0
  0
LINE
  5
2d7
100
AcDbEntity
  8
0
 62
7
100
AcDbLine
 10
106.027113
 20
112.260120
 30
0.0
 11
112.027118
 21
112.260120
 31
0.0
  0
LINE
  5
2d8
100
AcDbEntity
  8
0
 62
7
100
AcDbLine
 10
112.027118
 20
112.260120
 30
0.0
 11
112.027118
 21
108.260117
 31
0.0
  0
LINE
  5
2d9
100
AcDbEntity
  8
0
 62
7
100
AcDbLine
 10
112.027118
 20
108.260117
 30
0.0
 11
118.027123
 21
108.260117
 31
0.0
  0
LINE
  5
2da
100
AcDbEntity
  8
0
 62
7
100
AcDbLine
 10
118.027123
 20
108.260117
 30
0.0
 11
118.027123
 21
112.260120
 31
0.0
  0
LINE
  5
2db
100
AcDbEntity
  8
0
 62
7
100
AcDbLine
 10
118.027123
 20
112.260120
 30
0.0
 11
124.027128
 21
112.260120
 31
0.0
  0
LINE
  5
2dc
100
AcDbEntity
  8
0
 62
7
100
AcDbLine
 10
124.027128
 20
112.260120
 30
0.0
 11
124.027128
 21
108.260117
 31
0.0
  0
LINE
  5
2dd
100
AcDbEntity
  8
0
 62
7
100
AcDbLine
 10
124.027128
 20
108.260117
 30
0.0
 11
130.027132
 21
108.260117
 31
0.0
  0
LINE
  5
2de
100
AcDbEntity
  8
0
 62
7
100
AcDbLine
 10
130.027132
 20
108.260117
 30
0.0
 11
130.027132
 21
112.260120
 31
0.0
  0
LINE
  5
2df
100
AcDbEntity
  8
0
 62
7
100
AcDbLine
 10
130.027132
 20
112.260120
 30
0.0
 11
139.777140
 21
112.260120
 31
0.0
  0
LINE
  5
2e0
100
AcDbEntity
  8
0
 62
7
100
AcDbLine
 10
139.777140
 20
112.260120
 30
0.0
 11
139.777140
 21
108.260117
 31
0.0
  0
LINE
  5
2e1
100
AcDbEntity
  8
0
 62
7
100
AcDbLine
 10
139.777140
 20
108.260117
 30
0.0
 11
145.527144
 21
108.260117
 31
0.0
  0
LINE
  5
2e2
100
AcDbEntity
  8
0
 62
7
100
AcDbLine
 10
145.527144
 20
108.260117
 30
0.0
 11
145.527144
 21
105.860115
 31
0.0
  0
LINE
  5
2e3
100
AcDbEntity
  8
0
 62
7
100
AcDbLine
 10
145.527144
 20
105.860115
 30
0.0
 11
149.527147
 21
105.860115
 31
0.0
  0
LINE
  5
2e4
100
AcDbEntity
  8
0
 62
7
100
AcDbLine
 10
149.527147
 20
105.860115
 30
0.0
 11
149.527147
 21
99.460110
 31
0.0
  0
LINE
  5
2e5
100
AcDbEntity
  8
0
 62
7
100
AcDbLine
 10
149.527147
 20
99.460110
 30
0.0
 11
145.527144
 21
99.460110
 31
0.0
  0
LINE
  5
2e6
100
AcDbEntity
  8
0
 62
7
100
AcDbLine
 10
145.527144
 20
99.460110
 30
0.0
 11
145.527144
 21
93.060105
 31
0.0
  0
LINE
  5
2e7
100
AcDbEntity
  8
0
 62
7
100
AcDbLine
 10
145.527144
 20
93.060105
 30
0.0
 11
149.527147
 21
93.060105
 31
0.0
  0
LINE
  5
2e8
100
AcDbEntity
  8
0
 62
7
100
AcDbLine
 10
149.527147
 20
93.060105
 30
0.0
 11
149.527147
 21
86.660099
 31
0.0
  0
LINE
  5
2e9
100
AcDbEntity
  8
0
 62
7
100
AcDbLine
 10
149.527147
 20
86.660099
 30
0.0
 11
145.527144
 21
86.660099
 31
0.0
  0
LINE
  5
2ea
100
AcDbEntity
  8
0
 62
7
100
AcDbLine
 10
145.527144
 20
86.660099
 30
0.0
 11
145.527144
 21
84.260097
 31
0.0
  0
LINE
  5
2eb
100
AcDbEntity
  8
0
 62
7
100
AcDbLine
 10
145.527144
 20
84.260097
 30
0.0
 11
139.777140
 21
84.260097
 31
0.0
  0
LINE
  5
2ec
100
AcDbEntity
  8
0
 62
7
100
AcDbLine
 10
193.040233
 20
80.277366
 30
0.0
 11
183.290225
 21
80.277366
 31
0.0
  0
LINE
  5
2ed
100
AcDbEntity
  8
0
 62
7
100
AcDbLine
 10
183.290225
 20
80.277366
 30
0.0
 11
183.290225
 21
84.277369
 31
0.0
  0
LINE
  5
2ee
100
AcDbEntity
  8
0
 62
7
100
AcDbLine
 10
183.290225
 20
84.277369
 30
0.0
 11
177.540220
 21
84.277369
 31
0.0
  0
LINE
  5
2ef
100
AcDbEntity
  8
0
 62
7
100
AcDbLine
 10
177.540220
 20
84.277369
 30
0.0
 11
177.540220
 21
86.677371
 31
0.0
  0
LINE
  5
2f0
100
AcDbEntity
  8
0
 62
7
100
AcDbLine
 10
177.540220
 20
86.677371
 30
0.0
 11
173.540217
 21
86.677371
 31
0.0
  0
LINE
  5
2f1
100
AcDbEntity
  8
0
 62
7
100
AcDbLine
 10
173.540217
 20
86.677371
 30
0.0
 11
173.540217
 21
93.077377
 31
0.0
  0
LINE
  5
2f2
100
AcDbEntity
  8
0
 62
7
100
AcDbLine
 10
173.540217
 20
93.077377
 30
0.0
 11
177.540220
 21
93.077377
 31
0.0
  0
LINE
  5
2f3
100
AcDbEntity
  8
0
 62
7
100
AcDbLine
 10
177.540220
 20
93.077377
 30
0.0
 11
177.540220
 21
99.477382
 31
0.0
  0
LINE
  5
2f4
100
AcDbEntity
  8
0
 62
7
100
AcDbLine
 10
177.540220
 20
99.477382
 30
0.0
 11
173.540217
 21
99.477382
 31
0.0
  0
LINE
  5
2f5
100
AcDbEntity
  8
0
 62
7
100
AcDbLine
 10
173.540217
 20
99.477382
 30
0.0
 11
173.540217
 21
105.877387
 31
0.0
  0
LINE
  5
2f6
100
AcDbEntity
  8
0
 62
7
100
AcDbLine
 10
173.540217
 20
105.877387
 30
0.0
 11
177.540220
 21
105.877387
 31
0.0
  0
LINE
  5
2f7
100
AcDbEntity
  8
0
 62
7
100
AcDbLine
 10
177.540220
 20
105.877387
 30
0.0
 11
177.540220
 21
108.277389
 31
0.0
  0
LINE
  5
2f8
100
AcDbEntity
  8
0
 62
7
100
AcDbLine
 10
177.540220
 20
108.277389
 30
0.0
 11
183.290225
 21
108.277389
 31
0.0
  0
LINE
  5
2f9
100
AcDbEntity
  8
0
 62
7
100
AcDbLine
 10
183.290225
 20
108.277389
 30
0.0
 11
183.290225
 21
112.277392
 31
0.0
  0
LINE
  5
2fa
100
AcDbEntity
  8
0
 62
7
100
AcDbLine
 10
183.290225
 20
112.277392
 30
0.0
 11
193.040233
 21
112.277392
 31
0.0
  0
LINE
  5
2fb
100
AcDbEntity
  8
0
 62
7
100
AcDbLine
 10
193.040233
 20
112.277392
 30
0.0
 11
193.040233
 21
108.277389
 31
0.0
  0
LINE
  5
2fc
100
AcDbEntity
  8
0
 62
7
100
AcDbLine
 10
193.040233
 20
108.277389
 30
0.0
 11
199.040238
 21
108.277389
 31
0.0
  0
LINE
  5
2fd
100
AcDbEntity
  8
0
 62
7
100
AcDbLine
 10
199.040238
 20
108.277389
 30
0.0
 11
199.040238
 21
112.277392
 31
0.0
  0
LINE
  5
2fe
100
AcDbEntity
  8
0
 62
7
100
AcDbLine
 10
199.040238
 20
112.277392
 30
0.0
 11
205.040241
 21
112.277392
 31
0.0
  0
LINE
  5
2ff
100
AcDbEntity
  8
0
 62
7
100
AcDbLine
 10
205.040241
 20
112.277392
 30
0.0
 11
205.040241
 21
108.277389
 31
0.0
  0
LINE
  5
300
100
AcDbEntity
  8
0
 62
7
100
AcDbLine
 10
205.040241
 20
108.277389
 30
0.0
 11
211.040246
 21
108.277389
 31
0.0
  0
LINE
  5
301
100
AcDbEntity
  8
0
 62
7
100
AcDbLine
 10
211.040246
 20
108.277389
 30
0.0
 11
211.040246
 21
112.277392
 31
0.0
  0
LINE
  5
302
100
AcDbEntity
  8
0
 62
7
100
AcDbLine
 10
211.040246
 20
112.277392
 30
0.0
 11
217.040251
 21
112.277392
 31
0.0
  0
LINE
  5
303
100
AcDbEntity
  8
0
 62
7
100
AcDbLine
 10
217.040251
 20
112.277392
 30
0.0
 11
217.040251
 21
108.277389
 31
0.0
  0
LINE
  5
304
100
AcDbEntity
  8
0
 62
7
100
AcDbLine
 10
217.040251
 20
108.277389
 30
0.0
 11
223.040256
 21
108.277389
 31
0.0
  0
LINE
  5
305
100
AcDbEntity
  8
0
 62
7
100
AcDbLine
 10
223.040256
 20
108.277389
 30
0.0
 11
223.040256
 21
112.277392
 31
0.0
  0
LINE
  5
306
100
AcDbEntity
  8
0
 62
7
100
AcDbLine
 10
223.040256
 20
112.277392
 30
0.0
 11
229.040264
 21
112.277392
 31
0.0
  0
LINE
  5
307
100
AcDbEntity
  8
0
 62
7
100
AcDbLine
 10
229.040264
 20
112.277392
 30
0.0
 11
229.040264
 21
108.277389
 31
0.0
  0
LINE
  5
308
100
AcDbEntity
  8
0
 62
7
100
AcDbLine
 10
229.040264
 20
108.277389
 30
0.0
 11
235.040269
 21
108.277389
 31
0.0
  0
LINE
  5
309
100
AcDbEntity
  8
0
 62
7
100
AcDbLine
 10
235.040269
 20
108.277389
 30
0.0
 11
235.040269
 21
112.277392
 31
0.0
  0
LINE
  5
30a
100
AcDbEntity
  8
0
 62
7
100
AcDbLine
 10
235.040269
 20
112.277392
 30
0.0
 11
241.040274
 21
112.277392
 31
0.0
  0
LINE
  5
30b
100
AcDbEntity
  8
0
 62
7
100
AcDbLine
 10
241.040274
 20
112.277392
 30
0.0
 11
241.040274
 21
108.277389
 31
0.0
  0
LINE
  5
30c
100
AcDbEntity
  8
0
 62
7
100
AcDbLine
 10
241.040274
 20
108.277389
 30
0.0
 11
247.040279
 21
108.277389
 31
0.0
  0
LINE
  5
30d
100
AcDbEntity
  8
0
 62
7
100
AcDbLine
 10
247.040279
 20
108.277389
 30
0.0
 11
247.040279
 21
112.277392
 31
0.0
  0
LINE
  5
30e
100
AcDbEntity
  8
0
 62
7
100
AcDbLine
 10
247.040279
 20
112.277392
 30
0.0
 11
253.040284
 21
112.277392
 31
0.0
  0
LINE
  5
30f
100
AcDbEntity
  8
0
 62
7
100
AcDbLine
 10
253.040284
 20
112.277392
 30
0.0
 11
253.040284
 21
108.277389
 31
0.0
  0
LINE
  5
310
100
AcDbEntity
  8
0
 62
7
100
AcDbLine
 10
253.040284
 20
108.277389
 30
0.0
 11
259.040289
 21
108.277389
 31
0.0
  0
LINE
  5
311
100
AcDbEntity
  8
0
 62
7
100
AcDbLine
 10
259.040289
 20
108.277389
 30
0.0
 11
259.040289
 21
112.277392
 31
0.0
  0
LINE
  5
312
100
AcDbEntity
  8
0
 62
7
100
AcDbLine
 10
259.040289
 20
112.277392
 30
0.0
 11
268.790296
 21
112.277392
 31
0.0
  0
LINE
  5
313
100
AcDbEntity
  8
0
 62
7
100
AcDbLine
 10
268.790296
 20
112.277392
 30
0.0
 11
268.790296
 21
108.277389
 31
0.0
  0
LINE
  5
314
100
AcDbEntity
  8
0
 62
7
100
AcDbLine
 10
268.790296
 20
108.277389
 30
0.0
 11
274.540300
 21
108.277389
 31
0.0
  0
LINE
  5
315
100
AcDbEntity
  8
0
 62
7
100
AcDbLine
 10
274.540300
 20
108.277389
 30
0.0
 11
274.540300
 21
105.877387
 31
0.0
  0
LINE
  5
316
100
AcDbEntity
  8
0
 62
7
100
AcDbLine
 10
274.540300
 20
105.877387
 30
0.0
 11
278.540303
 21
105.877387
 31
0.0
  0
LINE
  5
317
100
AcDbEntity
  8
0
 62
7
100
AcDbLine
 10
278.540303
 20
105.877387
 30
0.0
 11
278.540303
 21
99.477382
 31
0.0
  0
LINE
  5
318
100
AcDbEntity
  8
0
 62
7
100
AcDbLine
 10
278.540303
 20
99.477382
 30
0.0
 11
274.540300
 21
99.477382
 31
0.0
  0
LINE
  5
319
100
AcDbEntity
  8
0
 62
7
100
AcDbLine
 10
274.540300
 20
99.477382
 30
0.0
 11
274.540300
 21
93.077377
 31
0.0
  0
LINE
  5
31a
100
AcDbEntity
  8
0
 62
7
100
AcDbLine
 10
274.540300
 20
93.077377
 30
0.0
 11
278.540303
 21
93.077377
 31
0.0
  0
LINE
  5
31b
100
AcDbEntity
  8
0
 62
7
100
AcDbLine
 10
278.540303
 20
93.077377
 30
0.0
 11
278.540303
 21
86.677371
 31
0.0
  0
LINE
  5
31c
100
AcDbEntity
  8
0
 62
7
100
AcDbLine
 10
278.540303
 20
86.677371
 30
0.0
 11
274.540300
 21
86.677371
 31
0.0
  0
LINE
  5
31d
100
AcDbEntity
  8
0
 62
7
100
AcDbLine
 10
274.540300
 20
86.677371
 30
0.0
 11
274.540300
 21
84.277369
 31
0.0
  0
LINE
  5
31e
100
AcDbEntity
  8
0
 62
7
100
AcDbLine
 10
274.540300
 20
84.277369
 30
0.0
 11
268.790296
 21
84.277369
 31
0.0
  0
LINE
  5
31f
100
AcDbEntity
  8
0
 62
7
100
AcDbLine
 10
268.790296
 20
84.277369
 30
0.0
 11
268.790296
 21
80.277366
 31
0.0
  0
LINE
  5
320
100
AcDbEntity
  8
0
 62
7
100
AcDbLine
 10
268.790296
 20
80.277366
 30
0.0
 11
259.040289
 21
80.277366
 31
0.0
  0
LINE
  5
321
100
AcDbEntity
  8
0
 62
7
100
AcDbLine
 10
259.040289
 20
80.277366
 30
0.0
 11
259.040289
 21
84.277369
 31
0.0
  0
LINE
  5
322
100
AcDbEntity
  8
0
 62
7
100
AcDbLine
 10
259.040289
 20
84.277369
 30
0.0
 11
253.040284
 21
84.277369
 31
0.0
  0
LINE
  5
323
100
AcDbEntity
  8
0
 62
7
100
AcDbLine
 10
253.040284
 20
84.277369
 30
0.0
 11
253.040284
 21
80.277366
 31
0.0
  0
LINE
  5
324
100
AcDbEntity
  8
0
 62
7
100
AcDbLine
 10
253.040284
 20
80.277366
 30
0.0
 11
247.040279
 21
80.277366
 31
0.0
  0
LINE
  5
325
100
AcDbEntity
  8
0
 62
7
100
AcDbLine
 10
247.040279
 20
80.277366
 30
0.0
 11
247.040279
 21
84.277369
 31
0.0
  0
LINE
  5
326
100
AcDbEntity
  8
0
 62
7
100
AcDbLine
 10
247.040279
 20
84.277369
 30
0.0
 11
241.040274
 21
84.277369
 31
0.0
  0
LINE
  5
327
100
AcDbEntity
  8
0
 62
7
100
AcDbLine
 10
241.040274
 20
84.277369
 30
0.0
 11
241.040274
 21
80.277366
 31
0.0
  0
LINE
  5
328
100
AcDbEntity
  8
0
 62
7
100
AcDbLine
 10
241.040274
 20
80.277366
 30
0.0
 11
235.040269
 21
80.277366
 31
0.0
  0
LINE
  5
329
100
AcDbEntity
  8
0
 62
7
100
AcDbLine
 10
235.040269
 20
80.277366
 30
0.0
 11
235.040269
 21
84.277369
 31
0.0
  0
LINE
  5
32a
100
AcDbEntity
  8
0
 62
7
100
AcDbLine
 10
235.040269
 20
84.277369
 30
0.0
 11
229.040264
 21
84.277369
 31
0.0
  0
LINE
  5
32b
100
AcDbEntity
  8
0
 62
7
100
AcDbLine
 10
229.040264
 20
84.277369
 30
0.0
 11
229.040264
 21
80.277366
 31
0.0
  0
LINE
  5
32c
100
AcDbEntity
  8
0
 62
7
100
AcDbLine
 10
229.040264
 20
80.277366
 30
0.0
 11
223.040256
 21
80.277366
 31
0.0
  0
LINE
  5
32d
100
AcDbEntity
  8
0
 62
7
100
AcDbLine
 10
223.040256
 20
80.277366
 30
0.0
 11
223.040256
 21
84.277369
 31
0.0
  0
LINE
  5
32e
100
AcDbEntity
  8
0
 62
7
100
AcDbLine
 10
223.040256
 20
84.277369
 30
0.0
 11
217.040251
 21
84.277369
 31
0.0
  0
LINE
  5
32f
100
AcDbEntity
  8
0
 62
7
100
AcDbLine
 10
217.040251
 20
84.277369
 30
0.0
 11
217.040251
 21
80.277366
 31
0.0
  0
LINE
  5
330
100
AcDbEntity
  8
0
 62
7
100
AcDbLine
 10
217.040251
 20
80.277366
 30
0.0
 11
211.040246
 21
80.277366
 31
0.0
  0
LINE
  5
331
100
AcDbEntity
  8
0
 62
7
100
AcDbLine
 10
211.040246
 20
80.277366
 30
0.0
 11
211.040246
 21
84.277369
 31
0.0
  0
LINE
  5
332
100
AcDbEntity
  8
0
 62
7
100
AcDbLine
 10
211.040246
 20
84.277369
 30
0.0
 11
205.040241
 21
84.277369
 31
0.0
  0
LINE
  5
333
100
AcDbEntity
  8
0
 62
7
100
AcDbLine
 10
205.040241
 20
84.277369
 30
0.0
 11
205.040241
 21
80.277366
 31
0.0
  0
LINE
  5
334
100
AcDbEntity
  8
0
 62
7
100
AcDbLine
 10
205.040241
 20
80.277366
 30
0.0
 11
199.040238
 21
80.277366
 31
0.0
  0
LINE
  5
335
100
AcDbEntity
  8
0
 62
7
100
AcDbLine
 10
199.040238
 20
80.277366
 30
0.0
 11
199.040238
 21
84.277369
 31
0.0
  0
LINE
  5
336
100
AcDbEntity
  8
0
 62
7
100
AcDbLine
 10
199.040238
 20
84.277369
 30
0.0
 11
193.040233
 21
84.277369
 31
0.0
  0
LINE
  5
337
100
AcDbEntity
  8
0
 62
7
100
AcDbLine
 10
193.040233
 20
84.277369
 30
0.0
 11
193.040233
 21
80.277366
 31
0.0
  0
LINE
  5
338
100
AcDbEntity
  8
0
 62
7
100
AcDbLine
 10
56.867800
 20
212.996057
 30
0.0
 11
74.474827
 21
212.996057
 31
0.0
  0
LINE
  5
339
100
AcDbEntity
  8
0
 62
7
100
AcDbLine
 10
74.474827
 20
212.996057
 30
0.0
 11
74.474827
 21
177.389013
 31
0.0
  0
LINE
  5
33a
100
AcDbEntity
  8
0
 62
7
100
AcDbLine
 10
74.474827
 20
177.389013
 30
0.0
 11
56.867800
 21
177.389013
 31
0.0
  0
LINE
  5
33b
100
AcDbEntity
  8
0
 62
7
100
AcDbLine
 10
56.867800
 20
177.389013
 30
0.0
 11
56.867800
 21
212.996057
 31
0.0
  0
SPLINE
  5
33c
100
AcDbEntity
  8
0
 62
7
100
AcDbSpline
 70
8
 71
3
 72
8
 73
4
 74
0
 40
0
 40
0
 40
0
 40
0
 40
1
 40
1
 40
1
 40
1
 10
71.006827
 20
123.264348
 30
0.0
 10
71.007551
 20
121.357670
 30
0.0
 10
69.990767
 20
119.595517
 30
0.0
 10
68.339656
 20
118.641968
 30
0.0
  0
SPLINE
  5
33d
100
AcDbEntity
  8
0
 62
7
100
AcDbSpline
 70
8
 71
3
 72
8
 73
4
 74
0
 40
0
 40
0
 40
0
 40
0
 40
1
 40
1
 40
1
 40
1
 10
68.339656
 20
118.641968
 30
0.0
 10
66.688544
 20
117.688420
 30
0.0
 10
64.654082
 20
117.688420
 30
0.0
 10
63.002971
 20
118.641968
 30
0.0
  0
SPLINE
  5
33e
100
AcDbEntity
  8
0
 62
7
100
AcDbSpline
 70
8
 71
3
 72
8
 73
4
 74
0
 40
0
 40
0
 40
0
 40
0
 40
1
 40
1
 40
1
 40
1
 10
63.002971
 20
118.641968
 30
0.0
 10
61.351860
 20
119.595517
 30
0.0
 10
60.335076
 20
121.357670
 30
0.0
 10
60.335800
 20
123.264348
 30
0.0
  0
SPLINE
  5
33f
100
AcDbEntity
  8
0
 62
7
100
AcDbSpline
 70
8
 71
3
 72
8
 73
4
 74
0
 40
0
 40
0
 40
0
 40
0
 40
1
 40
1
 40
1
 40
1
 10
60.335800
 20
123.264348
 30
0.0
 10
60.335076
 20
125.171027
 30
0.0
 10
61.351860
 20
126.933180
 30
0.0
 10
63.002971
 20
127.886728
 30
0.0
  0
SPLINE
  5
340
100
AcDbEntity
  8
0
 62
7
100
AcDbSpline
 70
8
 71
3
 72
8
 73
4
 74
0
 40
0
 40
0
 40
0
 40
0
 40
1
 40
1
 40
1
 40
1
 10
63.002971
 20
127.886728
 30
0.0
 10
64.654082
 20
128.840277
 30
0.0
 10
66.688544
 20
128.840277
 30
0.0
 10
68.339656
 20
127.886728
 30
0.0
  0
SPLINE
  5
341
100
AcDbEntity
  8
0
 62
7
100
AcDbSpline
 70
8
 71
3
 72
8
 73
4
 74
0
 40
0
 40
0
 40
0
 40
0
 40
1
 40
1
 40
1
 40
1
 10
68.339656
 20
127.886728
 30
0.0
 10
69.990767
 20
126.933180
 30
0.0
 10
71.007551
 20
125.171027
 30
0.0
 10
71.006827
 20
123.264348
 30
0.0
  0
LINE
  5
342
100
AcDbEntity
  8
0
 62
7
100
AcDbLine
 10
71.006827
 20
123.264348
 30
0.0
 11
71.006827
 21
123.264348
 31
0.0
  0
LINE
  5
343
100
AcDbEntity
  8
0
 62
7
100
AcDbLine
 10
56.867800
 20
170.267638
 30
0.0
 11
74.474827
 21
170.267638
 31
0.0
  0
LINE
  5
344
100
AcDbEntity
  8
0
 62
7
100
AcDbLine
 10
74.474827
 20
170.267638
 30
0.0
 11
74.474827
 21
134.660595
 31
0.0
  0
LINE
  5
345
100
AcDbEntity
  8
0
 62
7
100
AcDbLine
 10
74.474827
 20
134.660595
 30
0.0
 11
56.867800
 21
134.660595
 31
0.0
  0
LINE
  5
346
100
AcDbEntity
  8
0
 62
7
100
AcDbLine
 10
56.867800
 20
134.660595
 30
0.0
 11
56.867800
 21
170.267638
 31
0.0
  0
LINE
  5
347
100
AcDbEntity
  8
0
 62
7
100
AcDbLine
 10
88.223590
 20
212.996057
 30
0.0
 11
105.830617
 21
212.996057
 31
0.0
  0
LINE
  5
348
100
AcDbEntity
  8
0
 62
7
100
AcDbLine
 10
105.830617
 20
212.996057
 30
0.0
 11
105.830617
 21
177.389013
 31
0.0
  0
LINE
  5
349
100
AcDbEntity
  8
0
 62
7
100
AcDbLine
 10
105.830617
 20
177.389013
 30
0.0
 11
88.223590
 21
177.389013
 31
0.0
  0
LINE
  5
34a
100
AcDbEntity
  8
0
 62
7
100
AcDbLine
 10
88.223590
 20
177.389013
 30
0.0
 11
88.223590
 21
212.996057
 31
0.0
  0
LINE
  5
34b
100
AcDbEntity
  8
0
 62
7
100
AcDbLine
 10
88.223590
 20
170.267638
 30
0.0
 11
105.830617
 21
170.267638
 31
0.0
  0
LINE
  5
34c
100
AcDbEntity
  8
0
 62
7
100
AcDbLine
 10
105.830617
 20
170.267638
 30
0.0
 11
105.830617
 21
134.660595
 31
0.0
  0
LINE
  5
34d
100
AcDbEntity
  8
0
 62
7
100
AcDbLine
 10
105.830617
 20
134.660595
 30
0.0
 11
88.223590
 21
134.660595
 31
0.0
  0
LINE
  5
34e
100
AcDbEntity
  8
0
 62
7
100
AcDbLine
 10
88.223590
 20
134.660595
 30
0.0
 11
88.223590
 21
170.267638
 31
0.0
  0
LINE
  5
34f
100
AcDbEntity
  8
0
 62
7
100
AcDbLine
 10
119.579384
 20
212.996057
 30
0.0
 11
137.186411
 21
212.996057
 31
0.0
  0
LINE
  5
350
100
AcDbEntity
  8
0
 62
7
100
AcDbLine
 10
137.186411
 20
212.996057
 30
0.0
 11
137.186411
 21
177.389013
 31
0.0
  0
LINE
  5
351
100
AcDbEntity
  8
0
 62
7
100
AcDbLine
 10
137.186411
 20
177.389013
 30
0.0
 11
119.579384
 21
177.389013
 31
0.0
  0
LINE
  5
352
100
AcDbEntity
  8
0
 62
7
100
AcDbLine
 10
119.579384
 20
177.389013
 30
0.0
 11
119.579384
 21
212.996057
 31
0.0
  0
LINE
  5
353
100
AcDbEntity
  8
0
 62
7
100
AcDbLine
 10
119.579384
 20
170.267638
 30
0.0
 11
137.186411
 21
170.267638
 31
0.0
  0
LINE
  5
354
100
AcDbEntity
  8
0
 62
7
100
AcDbLine
 10
137.186411
 20
170.267638
 30
0.0
 11
137.186411
 21
134.660595
 31
0.0
  0
LINE
  5
355
100
AcDbEntity
  8
0
 62
7
100
AcDbLine
 10
137.186411
 20
134.660595
 30
0.0
 11
119.579384
 21
134.660595
 31
0.0
  0
LINE
  5
356
100
AcDbEntity
  8
0
 62
7
100
AcDbLine
 10
119.579384
 20
134.660595
 30
0.0
 11
119.579384
 21
170.267638
 31
0.0
  0
SPLINE
  5
357
100
AcDbEntity
  8
0
 62
7
100
AcDbSpline
 70
8
 71
3
 72
8
 73
4
 74
0
 40
0
 40
0
 40
0
 40
0
 40
1
 40
1
 40
1
 40
1
 10
102.362616
 20
123.264348
 30
0.0
 10
102.363340
 20
121.357670
 30
0.0
 10
101.346556
 20
119.595517
 30
0.0
 10
99.695445
 20
118.641968
 30
0.0
  0
SPLINE
  5
358
100
AcDbEntity
  8
0
 62
7
100
AcDbSpline
 70
8
 71
3
 72
8
 73
4
 74
0
 40
0
 40
0
 40
0
 40
0
 40
1
 40
1
 40
1
 40
1
 10
99.695445
 20
118.641968
 30
0.0
 10
98.044334
 20
117.688420
 30
0.0
 10
96.009872
 20
117.688420
 30
0.0
 10
94.358761
 20
118.641968
 30
0.0
  0
SPLINE
  5
359
100
AcDbEntity
  8
0
 62
7
100
AcDbSpline
 70
8
 71
3
 72
8
 73
4
 74
0
 40
0
 40
0
 40
0
 40
0
 40
1
 40
1
 40
1
 40
1
 10
94.358761
 20
118.641968
 30
0.0
 10
92.707649
 20
119.595517
 30
0.0
 10
91.690865
 20
121.357670
 30
0.0
 10
91.691589
 20
123.264348
 30
0.0
  0
SPLINE
  5
35a
100
AcDbEntity
  8
0
 62
7
100
AcDbSpline
 70
8
 71
3
 72
8
 73
4
 74
0
 40
0
 40
0
 40
0
 40
0
 40
1
 40
1
 40
1
 40
1
 10
91.691589
 20
123.264348
 30
0.0
 10
91.690865
 20
125.171027
 30
0.0
 10
92.707649
 20
126.933180
 30
0.0
 10
94.358761
 20
127.886728
 30
0.0
  0
SPLINE
  5
35b
100
AcDbEntity
  8
0
 62
7
100
AcDbSpline
 70
8
 71
3
 72
8
 73
4
 74
0
 40
0
 40
0
 40
0
 40
0
 40
1
 40
1
 40
1
 40
1
 10
94.358761
 20
127.886728
 30
0.0
 10
96.009872
 20
128.840277
 30
0.0
 10
98.044334
 20
128.840277
 30
0.0
 10
99.695445
 20
127.886728
 30
0.0
  0
SPLINE
  5
35c
100
AcDbEntity
  8
0
 62
7
100
AcDbSpline
 70
8
 71
3
 72
8
 73
4
 74
0
 40
0
 40
0
 40
0
 40
0
 40
1
 40
1
 40
1
 40
1
 10
99.695445
 20
127.886728
 30
0.0
 10
101.346556
 20
126.933180
 30
0.0
 10
102.363340
 20
125.171027
 30
0.0
 10
102.362616
 20
123.264348
 30
0.0
  0
LINE
  5
35d
100
AcDbEntity
  8
0
 62
7
100
AcDbLine
 10
102.362616
 20
123.264348
 30
0.0
 11
102.362616
 21
123.264348
 31
0.0
  0
SPLINE
  5
35e
100
AcDbEntity
  8
0
 62
7
100
AcDbSpline
 70
8
 71
3
 72
8
 73
4
 74
0
 40
0
 40
0
 40
0
 40
0
 40
1
 40
1
 40
1
 40
1
 10
133.718411
 20
123.264348
 30
0.0
 10
133.719135
 20
121.357670
 30
0.0
 10
132.702351
 20
119.595517
 30
0.0
 10
131.051240
 20
118.641968
 30
0.0
  0
SPLINE
  5
35f
100
AcDbEntity
  8
0
 62
7
100
AcDbSpline
 70
8
 71
3
 72
8
 73
4
 74
0
 40
0
 40
0
 40
0
 40
0
 40
1
 40
1
 40
1
 40
1
 10
131.051240
 20
118.641968
 30
0.0
 10
129.400128
 20
117.688420
 30
0.0
 10
127.365666
 20
117.688420
 30
0.0
 10
125.714555
 20
118.641968
 30
0.0
  0
SPLINE
  5
360
100
AcDbEntity
  8
0
 62
7
100
AcDbSpline
 70
8
 71
3
 72
8
 73
4
 74
0
 40
0
 40
0
 40
0
 40
0
 40
1
 40
1
 40
1
 40
1
 10
125.714555
 20
118.641968
 30
0.0
 10
124.063444
 20
119.595517
 30
0.0
 10
123.046660
 20
121.357670
 30
0.0
 10
123.047384
 20
123.264348
 30
0.0
  0
SPLINE
  5
361
100
AcDbEntity
  8
0
 62
7
100
AcDbSpline
 70
8
 71
3
 72
8
 73
4
 74
0
 40
0
 40
0
 40
0
 40
0
 40
1
 40
1
 40
1
 40
1
 10
123.047384
 20
123.264348
 30
0.0
 10
123.046660
 20
125.171026
 30
0.0
 10
124.063444
 20
126.933180
 30
0.0
 10
125.714555
 20
127.886728
 30
0.0
  0
SPLINE
  5
362
100
AcDbEntity
  8
0
 62
7
100
AcDbSpline
 70
8
 71
3
 72
8
 73
4
 74
0
 40
0
 40
0
 40
0
 40
0
 40
1
 40
1
 40
1
 40
1
 10
125.714555
 20
127.886728
 30
0.0
 10
127.365666
 20
128.840277
 30
0.0
 10
129.400128
 20
128.840277
 30
0.0
 10
131.051240
 20
127.886728
 30
0.0
  0
SPLINE
  5
363
100
AcDbEntity
  8
0
 62
7
100
AcDbSpline
 70
8
 71
3
 72
8
 73
4
 74
0
 40
0
 40
0
 40
0
 40
0
 40
1
 40
1
 40
1
 40
1
 10
131.051240
 20
127.886728
 30
0.0
 10
132.702351
 20
126.933180
 30
0.0
 10
133.719135
 20
125.171026
 30
0.0
 10
133.718411
 20
123.264348
 30
0.0
  0
LINE
  5
364
100
AcDbEntity
  8
0
 62
7
100
AcDbLine
 10
133.718411
 20
123.264348
 30
0.0
 11
133.718411
 21
123.264348
 31
0.0
  0
LINE
  5
365
100
AcDbEntity
  8
0
 62
7
100
AcDbLine
 10
186.138560
 20
100.268007
 30
0.0
 11
245.785169
 21
100.268007
 31
0.0
  0
LINE
  5
366
100
AcDbEntity
  8
0
 62
7
100
AcDbLine
 10
245.785169
 20
100.268007
 30
0.0
 11
245.785169
 21
92.555083
 31
0.0
  0
LINE
  5
367
100
AcDbEntity
  8
0
 62
7
100
AcDbLine
 10
245.785169
 20
92.555083
 30
0.0
 11
186.138560
 21
92.555083
 31
0.0
  0
LINE
  5
368
100
AcDbEntity
  8
0
 62
7
100
AcDbLine
 10
186.138560
 20
92.555083
 30
0.0
 11
186.138560
 21
100.268007
 31
0.0
  0
ENDSEC
  0
SECTION
  2
OBJECTS
  0
DICTIONARY
  5
C
330
0
100
AcDbDictionary
  3
ACAD_GROUP
350
D
  3
ACAD_MLINESTYLE
350
17
  0
DICTIONARY
  5
D
330
C
100
AcDbDictionary
  0
DICTIONARY
  5
1A
330
C
100
AcDbDictionary
  0
DICTIONARY
  5
17
330
C
100
AcDbDictionary
  3
STANDARD
350
18
  0
DICTIONARY
  5
19
330
C
100
AcDbDictionary
  0
ENDSEC
  0
EOF
