<?xml version="1.0" encoding="UTF-8" standalone="no"?>
<svg
   xmlns:dc="http://purl.org/dc/elements/1.1/"
   xmlns:cc="http://creativecommons.org/ns#"
   xmlns:rdf="http://www.w3.org/1999/02/22-rdf-syntax-ns#"
   xmlns:svg="http://www.w3.org/2000/svg"
   xmlns="http://www.w3.org/2000/svg"
   xmlns:xlink="http://www.w3.org/1999/xlink"
   xmlns:sodipodi="http://sodipodi.sourceforge.net/DTD/sodipodi-0.dtd"
   xmlns:inkscape="http://www.inkscape.org/namespaces/inkscape"
   version="1.1"
   width="1842.5197"
   height="850.39368"
   viewBox="0 0 1842.5212 850.39439"
   id="svg2"
   inkscape:version="0.48.4 r9939"
   sodipodi:docname="caseplans.svg">
  <metadata
     id="metadata32">
    <rdf:RDF>
      <cc:Work
         rdf:about="">
        <dc:format>image/svg+xml</dc:format>
        <dc:type
           rdf:resource="http://purl.org/dc/dcmitype/StillImage" />
        <dc:title />
      </cc:Work>
    </rdf:RDF>
  </metadata>
  <defs
     id="defs30" />
  <sodipodi:namedview
     pagecolor="#ffffff"
     bordercolor="#666666"
     borderopacity="1"
     objecttolerance="10"
     gridtolerance="10"
     guidetolerance="10"
     inkscape:pageopacity="0"
     inkscape:pageshadow="2"
     inkscape:window-width="1440"
     inkscape:window-height="840"
     id="namedview28"
     showgrid="false"
     inkscape:zoom="0.54886233"
     inkscape:cx="609.30194"
     inkscape:cy="448.72576"
     inkscape:window-x="0"
     inkscape:window-y="25"
     inkscape:window-maximized="1"
     inkscape:current-layer="svg2"
     inkscape:document-units="mm"
     units="mm" />
  <!-- Front-->
  <g
     transform="translate(157.77305,59.312398)"
     id="g4"
     style="stroke:#000000;fill:none;stroke-width:1.77165503;stroke-miterlimit:4;stroke-dasharray:none">
    <path
       style="stroke:#000000"
       d="m 196.65371,0 21.25986,0 0,14.17324 21.25986,0 0,-14.17324 21.25986,0 0,14.17324 21.25986,0 0,-14.17324 21.25986,0 0,14.17324 34.54727,0 0,-14.17324 34.54727,0 0,32.775618 -14.17324,0 0,32.775617 14.17324,0 0,21.25986 -14.17324,0 0,21.259855 14.17324,0 0,21.25987 -14.17324,0 0,21.25986 14.17324,0 0,21.25986 -14.17324,0 0,21.25985 14.17324,0 0,21.25986 -14.17324,0 0,21.25986 14.17324,0 0,21.25986 -14.17324,0 0,21.25986 14.17324,0 0,21.25986 -14.17324,0 0,21.25987 14.17324,0 0,21.25986 -14.17324,0 0,32.77561 14.17324,0 0,32.77562 -34.54727,0 0,-14.17324 -34.54727,0 0,14.17324 -21.25986,0 0,-14.17324 -21.25986,0 0,14.17324 -21.25986,0 0,-14.17324 -21.25986,0 0,14.17324 -21.25986,0 0,-14.17324 -21.25987,0 0,14.17324 -21.25986,0 0,-14.17324 -21.25986,0 0,14.17324 -21.25986,0 0,-14.17324 -21.259855,0 0,14.17324 -21.25986,0 0,-14.17324 -34.547273,0 0,14.17324 -34.547272,0 0,-32.77562 14.17324,0 0,-32.77561 -14.17324,0 0,-21.25986 14.17324,0 0,-21.25987 -14.17324,0 0,-21.25986 14.17324,0 0,-21.25986 -14.17324,0 0,-21.25986 14.17324,0 0,-21.25986 -14.17324,0 0,-21.25986 14.17324,0 0,-21.25985 -14.17324,0 0,-21.25986 14.17324,0 0,-21.25986 -14.17324,0 0,-21.25987 14.17324,0 0,-21.259855 -14.17324,0 0,-21.25986 14.17324,0 0,-32.775617 L 0,32.775618 0,0 l 34.547272,0 0,14.17324 34.547273,0 0,-14.17324 21.25986,0 0,14.17324 21.259855,0 0,-14.17324 21.25986,0 0,14.17324 21.25986,0 0,-14.17324 21.25986,0 0,14.17324 21.25987,0 z"
       id="polygon6" />
  </g>
  <!-- Back-->
  <g
     transform="translate(614.84938,59.312398)"
     id="g8"
     style="stroke:#000000;fill:none;stroke-width:1.77165503;stroke-miterlimit:4;stroke-dasharray:none">
    <path
       style="stroke:#000000"
       d="m 372.04755,86.811095 -14.17324,0 0,21.259855 14.17324,0 0,21.25987 -14.17324,0 0,21.25986 14.17324,0 0,21.25986 -14.17324,0 0,21.25985 14.17324,0 0,21.25986 -14.17324,0 0,21.25986 14.17324,0 0,21.25986 -14.17324,0 0,21.25986 14.17324,0 0,21.25986 -14.17324,0 0,21.25987 14.17324,0 0,21.25986 -14.17324,0 0,32.77561 14.17324,0 0,32.77562 -34.54727,0 0,-14.17324 -34.54727,0 0,14.17324 -21.25986,0 0,-14.17324 -21.25986,0 0,14.17324 -21.25986,0 0,-14.17324 -21.25986,0 0,14.17324 -21.25986,0 0,-14.17324 -21.25987,0 0,14.17324 -21.25986,0 0,-14.17324 -21.25986,0 0,14.17324 -21.25986,0 0,-14.17324 -21.259855,0 0,14.17324 -21.25986,0 0,-14.17324 -34.547273,0 0,14.17324 -34.547272,0 0,-32.77562 14.17324,0 0,-32.77561 -14.17324,0 0,-21.25986 14.17324,0 0,-21.25987 -14.17324,0 0,-21.25986 14.17324,0 0,-21.25986 -14.17324,0 0,-21.25986 14.17324,0 0,-21.25986 -14.17324,0 0,-21.25986 14.17324,0 0,-21.25985 -14.17324,0 0,-21.25986 14.17324,0 0,-21.25986 -14.17324,0 0,-21.25987 14.17324,0 0,-21.259855 -14.17324,0 0,-21.25986 14.17324,0 0,-32.775617 L 0,32.775618 0,0 l 34.547272,0 0,14.17324 34.547273,0 0,-14.17324 21.25986,0 0,14.17324 21.259855,0 0,-14.17324 21.25986,0 0,14.17324 21.25986,0 0,-14.17324 21.25986,0 0,14.17324 21.25987,0 0,-14.17324 21.25986,0 0,14.17324 21.25986,0 0,-14.17324 21.25986,0 0,14.17324 21.25986,0 0,-14.17324 21.25986,0 0,14.17324 34.54727,0 0,-14.17324 34.54727,0 0,32.775618 -14.17324,0 0,32.775617 14.17324,0 z"
       id="polygon10" />
  </g>
  <!-- Left-->
  <g
     transform="translate(515.69585,59.312398)"
     id="g12"
     style="stroke:#000000;fill:none;stroke-width:1.77165503;stroke-miterlimit:4;stroke-dasharray:none">
    <path
       style="stroke:#000000"
       d="m 113.38592,256.88997 0,21.25986 -14.17324,0 0,21.25986 14.17324,0 0,21.25987 -14.17324,0 0,21.25986 14.17324,0 0,32.77561 -14.17324,0 0,32.77562 -8.503944,0 0,-14.17324 -22.677184,0 0,14.17324 -22.677184,0 0,-14.17324 -22.677184,0 0,14.17324 -8.503944,0 0,-32.77562 -14.17324,0 0,-32.77561 14.17324,0 0,-21.25986 -14.17324,0 0,-21.25987 14.17324,0 0,-21.25986 -14.17324,0 0,-21.25986 14.17324,0 0,-21.25986 -14.17324,0 0,-21.25986 14.17324,0 0,-21.25986 -14.17324,0 0,-21.25985 14.17324,0 0,-21.25986 -14.17324,0 0,-21.25986 14.17324,0 0,-21.25987 -14.17324,0 0,-21.259855 14.17324,0 0,-21.25986 -14.17324,0 0,-32.775617 14.17324,0 0,-32.775618 8.503944,0 0,14.17324 22.677184,0 0,-14.17324 22.677184,0 0,14.17324 22.677184,0 0,-14.17324 8.503944,0 0,32.775618 14.17324,0 0,32.775617 -14.17324,0 0,21.25986 14.17324,0 0,21.259855 -14.17324,0 0,21.25987 14.17324,0 0,21.25986 -14.17324,0 0,21.25986 14.17324,0 0,21.25985 -14.17324,0 0,21.25986 14.17324,0 0,21.25986 -14.17324,0 0,21.25986 z"
       id="polygon14" />
  </g>
  <!-- Right-->
  <g
     transform="translate(58.705291,59.230098)"
     id="g16"
     style="stroke:#000000;fill:none;stroke-width:1.77165503;stroke-miterlimit:4;stroke-dasharray:none">
    <path
       style="stroke:#000000"
       d="m 99.21268,299.40969 14.17324,0 0,21.25987 -14.17324,0 0,21.25986 14.17324,0 0,32.77561 -14.17324,0 0,32.77562 -8.503944,0 0,-14.17324 -22.677184,0 0,14.17324 -22.677184,0 0,-14.17324 -22.677184,0 0,14.17324 -8.503944,0 0,-32.77562 -14.17324,0 0,-32.77561 14.17324,0 0,-21.25986 -14.17324,0 0,-21.25987 14.17324,0 0,-21.25986 -14.17324,0 0,-21.25986 14.17324,0 0,-21.25986 -14.17324,0 0,-21.25986 14.17324,0 0,-21.25986 -14.17324,0 0,-21.25985 14.17324,0 0,-21.25986 -14.17324,0 0,-21.25986 14.17324,0 0,-21.25987 -14.17324,0 0,-21.259855 14.17324,0 0,-21.25986 -14.17324,0 0,-32.775617 14.17324,0 0,-32.775618 8.503944,0 0,14.17324 22.677184,0 0,-14.17324 22.677184,0 0,14.17324 22.677184,0 0,-14.17324 8.503944,0 0,32.775618 14.17324,0 0,32.775617 -14.17324,0 0,21.25986 14.17324,0 0,21.259855 -14.17324,0 0,21.25987 14.17324,0 0,21.25986 -14.17324,0 0,21.25986 14.17324,0 0,21.25985 -14.17324,0 0,21.25986 14.17324,0 0,21.25986 -14.17324,0 0,21.25986 14.17324,0 0,21.25986 -14.17324,0 z"
       id="polygon18" />
  </g>
  <!-- Top-->
  <g
     transform="translate(157.77305,452.6216)"
     id="g20"
     style="stroke:#000000;fill:none;stroke-width:1.77165503;stroke-miterlimit:4;stroke-dasharray:none">
    <path
       style="stroke:#000000"
       d="m 337.50028,99.21268 0,14.17324 -34.54727,0 0,-14.17324 -21.25986,0 0,14.17324 -21.25986,0 0,-14.17324 -21.25986,0 0,14.17324 -21.25986,0 0,-14.17324 -21.25986,0 0,14.17324 -21.25987,0 0,-14.17324 -21.25986,0 0,14.17324 -21.25986,0 0,-14.17324 -21.25986,0 0,14.17324 -21.259855,0 0,-14.17324 -21.25986,0 0,14.17324 -34.547273,0 0,-14.17324 -20.374032,0 0,-8.503944 -14.17324,0 0,-22.677184 14.17324,0 0,-22.677184 -14.17324,0 0,-22.677184 14.17324,0 0,-8.503944 20.374032,0 0,-14.17324 34.547273,0 0,14.17324 21.25986,0 0,-14.17324 21.259855,0 0,14.17324 21.25986,0 0,-14.17324 21.25986,0 0,14.17324 21.25986,0 0,-14.17324 21.25987,0 0,14.17324 21.25986,0 0,-14.17324 21.25986,0 0,14.17324 21.25986,0 0,-14.17324 21.25986,0 0,14.17324 21.25986,0 0,-14.17324 34.54727,0 0,14.17324 20.37403,0 0,8.503944 14.17324,0 0,22.677184 -14.17324,0 0,22.677184 14.17324,0 0,22.677184 -14.17324,0 0,8.503944 z"
       id="polygon22" />
  </g>
  <!-- Bottom-->
  <g
     transform="translate(614.90628,452.5604)"
     id="g24"
     style="stroke:#000000;fill:none;stroke-width:1.77165503;stroke-miterlimit:4;stroke-dasharray:none">
    <path
       style="stroke:#000000"
       d="m 69.094545,113.38592 -34.547273,0 0,-14.17324 -20.374032,0 0,-8.503944 -14.17324,0 0,-22.677184 14.17324,0 0,-22.677184 -14.17324,0 0,-22.677184 14.17324,0 0,-8.503944 20.374032,0 0,-14.17324 34.547273,0 0,14.17324 21.25986,0 0,-14.17324 21.259855,0 0,14.17324 21.25986,0 0,-14.17324 21.25986,0 0,14.17324 21.25986,0 0,-14.17324 21.25987,0 0,14.17324 21.25986,0 0,-14.17324 21.25986,0 0,14.17324 21.25986,0 0,-14.17324 21.25986,0 0,14.17324 21.25986,0 0,-14.17324 34.54727,0 0,14.17324 20.37403,0 0,8.503944 14.17324,0 0,22.677184 -14.17324,0 0,22.677184 14.17324,0 0,22.677184 -14.17324,0 0,8.503944 -20.37403,0 0,14.17324 -34.54727,0 0,-14.17324 -21.25986,0 0,14.17324 -21.25986,0 0,-14.17324 -21.25986,0 0,14.17324 -21.25986,0 0,-14.17324 -21.25986,0 0,14.17324 -21.25987,0 0,-14.17324 -21.25986,0 0,14.17324 -21.25986,0 0,-14.17324 -21.25986,0 0,14.17324 -21.259855,0 0,-14.17324 -21.25986,0 z"
       id="polygon26" />
  </g>
  <rect
     style="color:#000000;fill:none;stroke:#000000;stroke-width:1.77165503;stroke-linecap:butt;stroke-linejoin:miter;stroke-miterlimit:4;stroke-opacity:1;stroke-dasharray:none;stroke-dashoffset:0;marker:none;visibility:visible;display:inline;overflow:visible;enable-background:accumulate"
     id="rect3009"
     width="62.387104"
     height="126.16669"
     x="201.50008"
     y="95.683243" />
  <path
     sodipodi:type="arc"
     style="color:#000000;fill:none;stroke:#000000;stroke-width:2.59569809;stroke-linecap:butt;stroke-linejoin:miter;stroke-miterlimit:4;stroke-opacity:1;stroke-dasharray:none;stroke-dashoffset:0;marker:none;visibility:visible;display:inline;overflow:visible;enable-background:accumulate"
     id="path3011"
     sodipodi:cx="-236.40553"
     sodipodi:cy="217.18756"
     sodipodi:rx="27.698742"
     sodipodi:ry="27.698742"
     d="m -208.70679,217.18756 a 27.698742,27.698742 0 1 1 -55.39748,0 27.698742,27.698742 0 1 1 55.39748,0 z"
     transform="matrix(0.68253509,0,0,0.68253509,394.0487,265.39211)" />
  <rect
     y="247.08315"
     x="201.50008"
     height="126.16669"
     width="62.387104"
     id="use3125"
     style="color:#000000;fill:none;stroke:#000000;stroke-width:1.77165503;stroke-linecap:butt;stroke-linejoin:miter;stroke-miterlimit:4;stroke-opacity:1;stroke-dasharray:none;stroke-dashoffset:0;marker:none;visibility:visible;display:inline;overflow:visible;enable-background:accumulate" />
  <rect
     y="95.683243"
     x="312.60327"
     height="126.16669"
     width="62.387104"
     id="use3127"
     style="color:#000000;fill:none;stroke:#000000;stroke-width:1.77165503;stroke-linecap:butt;stroke-linejoin:miter;stroke-miterlimit:4;stroke-opacity:1;stroke-dasharray:none;stroke-dashoffset:0;marker:none;visibility:visible;display:inline;overflow:visible;enable-background:accumulate" />
  <rect
     y="247.08315"
     x="312.60327"
     height="126.16669"
     width="62.387104"
     id="use3129"
     style="color:#000000;fill:none;stroke:#000000;stroke-width:1.77165503;stroke-linecap:butt;stroke-linejoin:miter;stroke-miterlimit:4;stroke-opacity:1;stroke-dasharray:none;stroke-dashoffset:0;marker:none;visibility:visible;display:inline;overflow:visible;enable-background:accumulate" />
  <rect
     y="95.683243"
     x="423.70648"
     height="126.16669"
     width="62.387104"
     id="use3131"
     style="color:#000000;fill:none;stroke:#000000;stroke-width:1.77165503;stroke-linecap:butt;stroke-linejoin:miter;stroke-miterlimit:4;stroke-opacity:1;stroke-dasharray:none;stroke-dashoffset:0;marker:none;visibility:visible;display:inline;overflow:visible;enable-background:accumulate" />
  <rect
     y="247.08315"
     x="423.70648"
     height="126.16669"
     width="62.387104"
     id="use3133"
     style="color:#000000;fill:none;stroke:#000000;stroke-width:1.77165503;stroke-linecap:butt;stroke-linejoin:miter;stroke-miterlimit:4;stroke-opacity:1;stroke-dasharray:none;stroke-dashoffset:0;marker:none;visibility:visible;display:inline;overflow:visible;enable-background:accumulate" />
  <use
     x="0"
     y="0"
     xlink:href="#path3011"
     id="use3135"
     transform="translate(111.10319,3.0172732e-7)"
     width="1842.5212"
     height="850.39441"
     style="stroke:#000000;fill:none;stroke-width:1.77165503;stroke-miterlimit:4;stroke-dasharray:none" />
  <use
     x="0"
     y="0"
     xlink:href="#use3135"
     id="use3137"
     transform="translate(111.10321,3.017275e-7)"
     width="1842.5212"
     height="850.39441"
     style="stroke:#000000;fill:none;stroke-width:1.77165503;stroke-miterlimit:4;stroke-dasharray:none" />
  <rect
     style="color:#000000;fill:none;stroke:#000000;stroke-width:1.77165503;stroke-linecap:butt;stroke-linejoin:miter;stroke-miterlimit:4;stroke-opacity:1;stroke-dasharray:none;stroke-dashoffset:0;marker:none;visibility:visible;display:inline;overflow:visible;enable-background:accumulate"
     id="rect3258"
     width="211.34625"
     height="27.329258"
     x="659.54608"
     y="495.11334" />
</svg>
