<?xml version="1.0" encoding="UTF-8" standalone="no"?>
<svg
   xmlns:dc="http://purl.org/dc/elements/1.1/"
   xmlns:cc="http://creativecommons.org/ns#"
   xmlns:rdf="http://www.w3.org/1999/02/22-rdf-syntax-ns#"
   xmlns:svg="http://www.w3.org/2000/svg"
   xmlns="http://www.w3.org/2000/svg"
   xmlns:sodipodi="http://sodipodi.sourceforge.net/DTD/sodipodi-0.dtd"
   xmlns:inkscape="http://www.inkscape.org/namespaces/inkscape"
   version="1.1"
   width="928.92871"
   height="613.38245"
   viewBox="0 0 928.92951 613.38296"
   id="svg3151"
   inkscape:version="0.48.4 r9939"
   sodipodi:docname="upperbox.svg">
  <metadata
     id="metadata3181">
    <rdf:RDF>
      <cc:Work
         rdf:about="">
        <dc:format>image/svg+xml</dc:format>
        <dc:type
           rdf:resource="http://purl.org/dc/dcmitype/StillImage" />
      </cc:Work>
    </rdf:RDF>
  </metadata>
  <defs
     id="defs3179" />
  <sodipodi:namedview
     pagecolor="#ffffff"
     bordercolor="#666666"
     borderopacity="1"
     objecttolerance="10"
     gridtolerance="10"
     guidetolerance="10"
     inkscape:pageopacity="0"
     inkscape:pageshadow="2"
     inkscape:window-width="1440"
     inkscape:window-height="840"
     id="namedview3177"
     showgrid="false"
     inkscape:zoom="0.72466957"
     inkscape:cx="538.20002"
     inkscape:cy="245.1346"
     inkscape:window-x="0"
     inkscape:window-y="25"
     inkscape:window-maximized="1"
     inkscape:current-layer="svg3151"
     inkscape:document-units="mm"
     units="mm"
     fit-margin-top="0"
     fit-margin-left="0"
     fit-margin-right="0"
     fit-margin-bottom="0" />
  <!-- Front-->
  <g
     transform="translate(0.25356551,0.17714956)"
     id="g3153"
     style="fill:none;stroke:#000000;stroke-width:0.35433102;stroke-miterlimit:4;stroke-opacity:1;stroke-dasharray:none" />
  <!-- Back-->
  <!-- Left-->
  <g
     transform="matrix(1,0,0,-1,358.26381,205.93879)"
     id="g3161"
     style="fill:none;stroke:#000000;stroke-width:0.35433102;stroke-miterlimit:4;stroke-opacity:1;stroke-dasharray:none">
    <path
       style="fill:none;stroke:#000000;stroke-width:0.35433102;stroke-miterlimit:4;stroke-opacity:1;stroke-dasharray:none"
       d="m 14.17324,205.51198 0,-35.4331 -14.17324,0 0,-35.4331 14.17324,0 0,-21.25986 -14.17324,0 0,-21.25986 14.17324,0 0,-21.25986 -14.17324,0 0,-35.4331 14.17324,0 0,-35.4331 8.503944,0 0,14.17324 22.677184,0 0,-14.17324 22.677184,0 0,14.17324 22.677184,0 0,-14.17324 8.503944,0 0,35.4331 14.17324,0 0,35.4331 -14.17324,0 0,21.25986 14.17324,0 0,21.25986 -14.17324,0 0,21.25986 14.17324,0 0,35.4331 -14.17324,0 0,35.4331 z"
       id="polygon3163"
       inkscape:connector-curvature="0"
       sodipodi:nodetypes="ccccccccccccccccccccccccccccccccccccc" />
  </g>
  <!-- Right-->
  <g
     transform="matrix(1,0,0,-1,815.36645,205.92521)"
     id="g3165"
     style="fill:none;stroke:#000000;stroke-width:0.35433102;stroke-miterlimit:4;stroke-opacity:1;stroke-dasharray:none">
    <path
       style="fill:none;stroke:#000000;stroke-width:0.35433102;stroke-miterlimit:4;stroke-opacity:1;stroke-dasharray:none"
       d="m 68.031552,14.17324 22.677184,0 0,-14.17324 8.503944,0 0,35.4331 14.17324,0 0,35.4331 -14.17324,0 0,21.25986 14.17324,0 0,21.25986 -14.17324,0 0,21.25986 14.17324,0 0,35.4331 -14.17324,0 0,35.4331 -85.03944,0 0,-35.4331 -14.17324,0 0,-35.4331 14.17324,0 0,-21.25986 -14.17324,0 0,-21.25986 14.17324,0 0,-21.25986 -14.17324,0 0,-35.4331 14.17324,0 0,-35.4331 8.503944,0 0,14.17324 22.677184,0 0,-14.17324 22.677184,0 z"
       id="polygon3167"
       inkscape:connector-curvature="0"
       sodipodi:nodetypes="ccccccccccccccccccccccccccccccccccccc" />
  </g>
  <!-- Top-->
  <g
     transform="translate(457.35914,191.62702)"
     id="g3169"
     style="fill:none;stroke:#000000;stroke-width:0.35433102;stroke-miterlimit:4;stroke-opacity:1;stroke-dasharray:none">
    <path
       style="stroke:#000000;stroke-width:0.35433102"
       d="m 14.17324,90.708736 -14.17324,0 0,-22.677184 14.17324,0 0,-22.677184 -14.17324,0 0,-22.677184 14.17324,0 0,-8.503944 20.374032,0 0,-14.17324 34.547273,0 0,14.17324 21.25986,0 0,-14.17324 21.259855,0 0,14.17324 21.25986,0 0,-14.17324 21.25986,0 0,14.17324 21.25986,0 0,-14.17324 21.25987,0 0,14.17324 21.25986,0 0,-14.17324 21.25986,0 0,14.17324 21.25986,0 0,-14.17324 21.25986,0 0,14.17324 21.25986,0 0,-14.17324 34.54727,0 0,14.17324 20.37403,0 0,8.503944 14.17324,0 0,22.677184 -14.17324,0 0,22.677184 14.17324,0 0,22.677184 -14.17324,0 0,8.503944 -20.37403,0 0,14.17324 -34.54727,0 0,-14.17324 -21.25986,0 0,14.17324 -21.25986,0 0,-14.17324 -21.25986,0 0,14.17324 -21.25986,0 0,-14.17324 -21.25986,0 0,14.17324 -21.25987,0 0,-14.17324 -21.25986,0 0,14.17324 -21.25986,0 0,-14.17324 -21.25986,0 0,14.17324 -21.259855,0 0,-14.17324 -21.25986,0 0,14.17324 -34.547273,0 0,-14.17324 -20.374032,0 z"
       id="polygon3171"
       inkscape:connector-curvature="0" />
  </g>
  <!-- Bottom-->
  <g
     id="g4013"
     style="fill:none;stroke:#000000;stroke-width:0.35433102;stroke-miterlimit:4;stroke-opacity:1;stroke-dasharray:none"
     transform="translate(423.55071,149.39299)">
    <g
       style="fill:none;stroke:#000000;stroke-width:0.35433102;stroke-miterlimit:4;stroke-opacity:1;stroke-dasharray:none"
       id="g8"
       transform="translate(-423.37354,56.33216)">
      <path
         inkscape:connector-curvature="0"
         d="m 34.547272,0 0,14.17324 34.547273,0 0,-14.17324 z m 55.807133,0 0,14.17324 21.259855,0 0,-14.17324 z m 42.519715,0 0,14.17324 21.25986,0 0,-14.17324 z m 42.51972,0 0,14.17324 21.25987,0 0,-14.17324 z m 42.51973,0 0,14.17324 21.25986,0 0,-14.17324 z m 42.51972,0 0,14.17324 21.25986,0 0,-14.17324 z m 42.51972,0 0,14.17324 34.54727,0 0,-14.17324 z m 69.09454,0 0,32.775618 -14.17324,0 0,32.775617 14.17324,0 0,21.25986 -14.17324,0 0,21.259855 14.17324,0 0,21.25987 -14.17324,0 0,21.25986 14.17324,0 0,21.25986 -14.17324,0 0,21.25985 14.17324,0 0,21.25986 -14.17324,0 0,21.25986 14.17324,0 0,21.25986 -14.17324,0 0,21.25986 14.17324,0 0,21.25986 -14.17324,0 0,21.25987 14.17324,0 0,21.25986 -14.17324,0 0,32.77561 14.17324,0 0,32.77562 -34.54727,0 0,-14.17324 -34.54727,0 0,14.17324 -21.25986,0 0,-14.17324 -21.25986,0 0,14.17324 -21.25986,0 0,-14.17324 -21.25986,0 0,14.17324 -21.25986,0 0,-14.17324 -21.25987,0 0,14.17324 -21.25986,0 0,-14.17324 -21.25986,0 0,14.17324 -21.25986,0 0,-14.17324 -21.259855,0 0,14.17324 -21.25986,0 0,-14.17324 -34.547273,0 0,14.17324 -34.547272,0 0,-32.77562 14.17324,0 0,-32.77561 -14.17324,0 0,-21.25986 14.17324,0 0,-21.25987 -14.17324,0 0,-21.25986 14.17324,0 0,-21.25986 -14.17324,0 0,-21.25986 14.17324,0 0,-21.25986 -14.17324,0 0,-21.25986 14.17324,0 0,-21.25985 -14.17324,0 0,-21.25986 14.17324,0 0,-21.25986 -14.17324,0 0,-21.25987 14.17324,0 0,-21.259855 -14.17324,0 0,-21.25986 14.17324,0 0,-32.775617 L 0,32.775618 0,0 m 0.0764,-0.03601 0,-35.4331 14.17324,0 0,-35.4331 -14.17324,0 0,-21.25986 14.17324,0 0,-21.25986 -14.17324,0 0,-21.25986 14.17324,0 0,-35.4331 -14.17324,0 0,-35.4331 34.547272,0 0,14.17324 34.547273,0 0,-14.17324 21.25986,0 0,14.17324 21.259855,0 0,-14.17324 21.25986,0 0,14.17324 21.25986,0 0,-14.17324 21.25986,0 0,14.17324 21.25987,0 0,-14.17324 21.25986,0 0,14.17324 21.25986,0 0,-14.17324 21.25986,0 0,14.17324 21.25986,0 0,-14.17324 21.25986,0 0,14.17324 34.54727,0 0,-14.17324 34.54727,0 0,35.4331 -14.17324,0 0,35.4331 14.17324,0 0,21.25986 -14.17324,0 0,21.25986 14.17324,0 0,21.25986 -14.17324,0 0,35.4331 14.17324,0 0,35.4331"
         style="fill:none;stroke:#000000;stroke-width:0.35433102;stroke-miterlimit:4;stroke-opacity:1;stroke-dasharray:none"
         id="polygon10" />
    </g>
    <path
       transform="matrix(1.053082,0,0,1.053082,2.0448412,-0.32057472)"
       d="m -367.86318,-111.87127 c 0,2.6945 -2.18433,4.87882 -4.87882,4.87882 -2.6945,0 -4.87883,-2.18432 -4.87883,-4.87882 0,-2.6945 2.18433,-4.87882 4.87883,-4.87882 2.69449,0 4.87882,2.18432 4.87882,4.87882 z"
       sodipodi:ry="4.8788223"
       sodipodi:rx="4.8788223"
       sodipodi:cy="-111.87127"
       sodipodi:cx="-372.742"
       id="path3978"
       style="color:#000000;fill:none;stroke:#000000;stroke-width:0.33647048;stroke-linecap:butt;stroke-linejoin:miter;stroke-miterlimit:4;stroke-opacity:1;stroke-dasharray:none;stroke-dashoffset:0;marker:none;visibility:visible;display:inline;overflow:visible;enable-background:accumulate"
       sodipodi:type="arc" />
    <path
       sodipodi:type="arc"
       style="color:#000000;fill:none;stroke:#000000;stroke-width:0.33647048;stroke-linecap:butt;stroke-linejoin:miter;stroke-miterlimit:4;stroke-opacity:1;stroke-dasharray:none;stroke-dashoffset:0;marker:none;visibility:visible;display:inline;overflow:visible;enable-background:accumulate"
       id="path3980"
       sodipodi:cx="-372.742"
       sodipodi:cy="-111.87127"
       sodipodi:rx="4.8788223"
       sodipodi:ry="4.8788223"
       d="m -367.86318,-111.87127 c 0,2.6945 -2.18433,4.87882 -4.87882,4.87882 -2.6945,0 -4.87883,-2.18432 -4.87883,-4.87882 0,-2.6945 2.18433,-4.87882 4.87883,-4.87882 2.69449,0 4.87882,2.18432 4.87882,4.87882 z"
       transform="matrix(1.053082,0,0,1.053082,311.50784,-0.41751712)" />
  </g>
  <g
     id="g4123"
     transform="translate(423.55071,149.39299)">
    <g
       transform="matrix(1,0,0,-1,455.97638,-92.65208)"
       id="g3986"
       style="fill:none;stroke:#000000;stroke-width:0.35433102;stroke-miterlimit:4;stroke-opacity:1;stroke-dasharray:none">
      <g
         transform="translate(-422.16795,-149.23464)"
         id="g3157"
         style="fill:none;stroke:#000000;stroke-width:0.35433102;stroke-miterlimit:4;stroke-opacity:1;stroke-dasharray:none">
        <path
           style="fill:none;stroke:#000000;stroke-width:0.35433102;stroke-miterlimit:4;stroke-opacity:1;stroke-dasharray:none"
           d="m 14.17324,134.64578 -14.17324,0 0,-21.25986 14.17324,0 0,-21.25986 -14.17324,0 0,-21.25986 14.17324,0 0,-35.4331 L 0,35.4331 0,0 l 34.547272,0 0,14.17324 34.547273,0 0,-14.17324 21.25986,0 0,14.17324 21.259855,0 0,-14.17324 21.25986,0 0,14.17324 21.25986,0 0,-14.17324 21.25986,0 0,14.17324 21.25987,0 0,-14.17324 21.25986,0 0,14.17324 21.25986,0 0,-14.17324 21.25986,0 0,14.17324 21.25986,0 0,-14.17324 21.25986,0 0,14.17324 34.54727,0 0,-14.17324 34.54727,0 0,35.4331 -14.17324,0 0,35.4331 14.17324,0 0,21.25986 -14.17324,0 0,21.25986 14.17324,0 0,21.25986 -14.17324,0 0,35.4331 14.17324,0 0,35.4331 -372.04755,0 0,-35.4331 14.17324,0 z"
           id="polygon3159"
           inkscape:connector-curvature="0"
           sodipodi:nodetypes="ccccccccccccccccccccccccccccccccccccccccccccccccccccccccc" />
      </g>
    </g>
    <path
       style="color:#000000;fill:none;stroke:#000000;stroke-width:0.35433102;stroke-linecap:butt;stroke-linejoin:miter;stroke-miterlimit:4;stroke-opacity:1;stroke-dasharray:none;stroke-dashoffset:0;marker:none;visibility:visible;display:inline;overflow:visible;enable-background:accumulate"
       d="m 70.631127,25.478116 c 0,-2.83753 -2.300279,-5.137798 -5.137798,-5.137798 -2.837529,0 -5.137808,2.300268 -5.137808,5.137798 0,2.837529 2.300279,5.137797 5.137808,5.137797 2.837519,0 5.137798,-2.300268 5.137798,-5.137797 z"
       id="path3982"
       inkscape:connector-curvature="0" />
    <path
       style="color:#000000;fill:none;stroke:#000000;stroke-width:0.35433102;stroke-linecap:butt;stroke-linejoin:miter;stroke-miterlimit:4;stroke-opacity:1;stroke-dasharray:none;stroke-dashoffset:0;marker:none;visibility:visible;display:inline;overflow:visible;enable-background:accumulate"
       d="m 380.09413,25.575058 c 0,-2.83753 -2.30028,-5.137798 -5.1378,-5.137798 -2.83753,0 -5.13781,2.300268 -5.13781,5.137798 0,2.837529 2.30028,5.137797 5.13781,5.137797 2.83752,0 5.1378,-2.300268 5.1378,-5.137797 z"
       id="path3984"
       inkscape:connector-curvature="0" />
  </g>
  <path
     style="color:#000000;fill:none;stroke:#000000;stroke-width:0.35433102;stroke-linecap:butt;stroke-linejoin:miter;stroke-miterlimit:4;stroke-opacity:1;stroke-dasharray:none;stroke-dashoffset:0;marker:none;visibility:visible;display:inline;overflow:visible;enable-background:accumulate"
     d="m 137.16708,559.08422 c 0,-2.83753 -2.30028,-5.13779 -5.1378,-5.13779 -2.83753,0 -5.13781,2.30026 -5.13781,5.13779 0,2.83753 2.30028,5.1378 5.13781,5.1378 2.83752,0 5.1378,-2.30027 5.1378,-5.1378 z"
     id="path4121"
     inkscape:connector-curvature="0" />
  <path
     inkscape:connector-curvature="0"
     id="path4135"
     d="m 248.27029,559.08422 c 0,-2.83753 -2.30028,-5.13779 -5.1378,-5.13779 -2.83753,0 -5.13781,2.30026 -5.13781,5.13779 0,2.83753 2.30028,5.1378 5.13781,5.1378 2.83752,0 5.1378,-2.30027 5.1378,-5.1378 z"
     style="color:#000000;fill:none;stroke:#000000;stroke-width:0.35433102;stroke-linecap:butt;stroke-linejoin:miter;stroke-miterlimit:4;stroke-opacity:1;stroke-dasharray:none;stroke-dashoffset:0;marker:none;visibility:visible;display:inline;overflow:visible;enable-background:accumulate" />
</svg>
