  0
SECTION
  2
HEADER
  9
$ACADVER
  1
AC1014
  9
$HANDSEED
  5
FFFF
  9
$MEASUREMENT
 70
     1
  0
ENDSEC
  0
SECTION
  2
TABLES
  0
TABLE
  2
VPORT
  5
8
330
0
100
AcDbSymbolTable
 70
     4
  0
VPORT
  5
2E
330
8
100
AcDbSymbolTableRecord
100
AcDbViewportTableRecord
  2
*ACTIVE
 70
     0
 10
0.0
 20
0.0
 11
1.0
 21
1.0
 12
210.0
 22
148.5
 13
0.0
 23
0.0
 14
10.0
 24
10.0
 15
10.0
 25
10.0
 16
0.0
 26
0.0
 36
1.0
 17
0.0
 27
0.0
 37
0.0
 40
341.0
 41
1.24
 42
50.0
 43
0.0
 44
0.0
 50
0.0
 51
0.0
 71
     0
 72
   100
 73
     1
 74
     3
 75
     0
 76
     0
 77
     0
 78
     0
  0
ENDTAB
  0
TABLE
  2
LTYPE
  5
5
330
0
100
AcDbSymbolTable
 70
     1
  0
LTYPE
  5
14
330
5
100
AcDbSymbolTableRecord
100
AcDbLinetypeTableRecord
  2
BYBLOCK
 70
     0
  3

 72
    65
 73
     0
 40
0.0
  0
LTYPE
  5
15
330
5
100
AcDbSymbolTableRecord
100
AcDbLinetypeTableRecord
  2
BYLAYER
 70
     0
  3

 72
    65
 73
     0
 40
0.0
  0
LTYPE
  5
16
330
5
100
AcDbSymbolTableRecord
100
AcDbLinetypeTableRecord
  2
CONTINUOUS
 70
     0
  3
Solid line
 72
    65
 73
     0
 40
0.0
  0
ENDTAB
  0
TABLE
  2
LAYER
  5
2
100
AcDbSymbolTable
 70
1
  0
LAYER
  5
50
100
AcDbSymbolTableRecord
100
AcDbLayerTableRecord
  2
0
 70
0
  6
CONTINUOUS
  0
ENDTAB
  0
TABLE
  2
STYLE
  5
3
330
0
100
AcDbSymbolTable
 70
     1
  0
STYLE
  5
11
330
3
100
AcDbSymbolTableRecord
100
AcDbTextStyleTableRecord
  2
STANDARD
 70
     0
 40
0.0
 41
1.0
 50
0.0
 71
     0
 42
2.5
  3
txt
  4

  0
ENDTAB
  0
TABLE
  2
VIEW
  5
6
330
0
100
AcDbSymbolTable
 70
     0
  0
ENDTAB
  0
TABLE
  2
UCS
  5
7
330
0
100
AcDbSymbolTable
 70
     0
  0
ENDTAB
  0
TABLE
  2
APPID
  5
9
330
0
100
AcDbSymbolTable
 70
     2
  0
APPID
  5
12
330
9
100
AcDbSymbolTableRecord
100
AcDbRegAppTableRecord
  2
ACAD
 70
     0
  0
ENDTAB
  0
TABLE
  2
DIMSTYLE
  5
A
330
0
100
AcDbSymbolTable
 70
     1
  0
DIMSTYLE
105
27
330
A
100
AcDbSymbolTableRecord
100
AcDbDimStyleTableRecord
  2
ISO-25
 70
     0
  3

  4

  5

  6

  7

 40
1.0
 41
2.5
 42
0.625
 43
3.75
 44
1.25
 45
0.0
 46
0.0
 47
0.0
 48
0.0
140
2.5
141
2.5
142
0.0
143
0.03937007874016
144
1.0
145
0.0
146
1.0
147
0.625
 71
     0
 72
     0
 73
     0
 74
     0
 75
     0
 76
     0
 77
     1
 78
     8
170
     0
171
     3
172
     1
173
     0
174
     0
175
     0
176
     0
177
     0
178
     0
270
     2
271
     2
272
     2
273
     2
274
     3
340
11
275
     0
280
     0
281
     0
282
     0
283
     0
284
     8
285
     0
286
     0
287
     3
288
     0
  0
ENDTAB
  0
TABLE
  2
BLOCK_RECORD
  5
1
330
0
100
AcDbSymbolTable
 70
     1
  0
BLOCK_RECORD
  5
1F
330
1
100
AcDbSymbolTableRecord
100
AcDbBlockTableRecord
  2
*MODEL_SPACE
  0
BLOCK_RECORD
  5
1B
330
1
100
AcDbSymbolTableRecord
100
AcDbBlockTableRecord
  2
*PAPER_SPACE
  0
ENDTAB
  0
ENDSEC
  0
SECTION
  2
BLOCKS
  0
BLOCK
  5
20
330
1F
100
AcDbEntity
  8
0
100
AcDbBlockBegin
  2
*MODEL_SPACE
 70
     0
 10
0.0
 20
0.0
 30
0.0
  3
*MODEL_SPACE
  1

  0
ENDBLK
  5
21
330
1F
100
AcDbEntity
  8
0
100
AcDbBlockEnd
  0
BLOCK
  5
1C
330
1B
100
AcDbEntity
 67
     1
  8
0
100
AcDbBlockBegin
  2
*PAPER_SPACE
  1

  0
ENDBLK
  5
1D
330
1B
100
AcDbEntity
 67
     1
  8
0
100
AcDbBlockEnd
  0
ENDSEC
  0
SECTION
  2
ENTITIES
  0
LINE
  5
100
100
AcDbEntity
  8
0
 62
7
100
AcDbLine
 10
105.110012
 20
172.989703
 30
0.0
 11
105.110012
 21
162.989695
 31
0.0
  0
LINE
  5
101
100
AcDbEntity
  8
0
 62
7
100
AcDbLine
 10
105.110012
 20
162.989695
 30
0.0
 11
101.110009
 21
162.989695
 31
0.0
  0
LINE
  5
102
100
AcDbEntity
  8
0
 62
7
100
AcDbLine
 10
101.110009
 20
162.989695
 30
0.0
 11
101.110009
 21
152.989686
 31
0.0
  0
LINE
  5
103
100
AcDbEntity
  8
0
 62
7
100
AcDbLine
 10
101.110009
 20
152.989686
 30
0.0
 11
105.110012
 21
152.989686
 31
0.0
  0
LINE
  5
104
100
AcDbEntity
  8
0
 62
7
100
AcDbLine
 10
105.110012
 20
152.989686
 30
0.0
 11
105.110012
 21
146.989681
 31
0.0
  0
LINE
  5
105
100
AcDbEntity
  8
0
 62
7
100
AcDbLine
 10
105.110012
 20
146.989681
 30
0.0
 11
101.110009
 21
146.989681
 31
0.0
  0
LINE
  5
106
100
AcDbEntity
  8
0
 62
7
100
AcDbLine
 10
101.110009
 20
146.989681
 30
0.0
 11
101.110009
 21
140.989677
 31
0.0
  0
LINE
  5
107
100
AcDbEntity
  8
0
 62
7
100
AcDbLine
 10
101.110009
 20
140.989677
 30
0.0
 11
105.110012
 21
140.989677
 31
0.0
  0
LINE
  5
108
100
AcDbEntity
  8
0
 62
7
100
AcDbLine
 10
105.110012
 20
140.989677
 30
0.0
 11
105.110012
 21
134.989672
 31
0.0
  0
LINE
  5
109
100
AcDbEntity
  8
0
 62
7
100
AcDbLine
 10
105.110012
 20
134.989672
 30
0.0
 11
101.110009
 21
134.989672
 31
0.0
  0
LINE
  5
10a
100
AcDbEntity
  8
0
 62
7
100
AcDbLine
 10
101.110009
 20
134.989672
 30
0.0
 11
101.110009
 21
124.989663
 31
0.0
  0
LINE
  5
10b
100
AcDbEntity
  8
0
 62
7
100
AcDbLine
 10
101.110009
 20
124.989663
 30
0.0
 11
105.110012
 21
124.989663
 31
0.0
  0
LINE
  5
10c
100
AcDbEntity
  8
0
 62
7
100
AcDbLine
 10
105.110012
 20
124.989663
 30
0.0
 11
105.110012
 21
114.989655
 31
0.0
  0
LINE
  5
10d
100
AcDbEntity
  8
0
 62
7
100
AcDbLine
 10
105.110012
 20
114.989655
 30
0.0
 11
107.510014
 21
114.989655
 31
0.0
  0
LINE
  5
10e
100
AcDbEntity
  8
0
 62
7
100
AcDbLine
 10
107.510014
 20
114.989655
 30
0.0
 11
107.510014
 21
118.989658
 31
0.0
  0
LINE
  5
10f
100
AcDbEntity
  8
0
 62
7
100
AcDbLine
 10
107.510014
 20
118.989658
 30
0.0
 11
113.910019
 21
118.989658
 31
0.0
  0
LINE
  5
110
100
AcDbEntity
  8
0
 62
7
100
AcDbLine
 10
113.910019
 20
118.989658
 30
0.0
 11
113.910019
 21
114.989655
 31
0.0
  0
LINE
  5
111
100
AcDbEntity
  8
0
 62
7
100
AcDbLine
 10
113.910019
 20
114.989655
 30
0.0
 11
120.310024
 21
114.989655
 31
0.0
  0
LINE
  5
112
100
AcDbEntity
  8
0
 62
7
100
AcDbLine
 10
120.310024
 20
114.989655
 30
0.0
 11
120.310024
 21
118.989658
 31
0.0
  0
LINE
  5
113
100
AcDbEntity
  8
0
 62
7
100
AcDbLine
 10
120.310024
 20
118.989658
 30
0.0
 11
126.710030
 21
118.989658
 31
0.0
  0
LINE
  5
114
100
AcDbEntity
  8
0
 62
7
100
AcDbLine
 10
126.710030
 20
118.989658
 30
0.0
 11
126.710030
 21
114.989655
 31
0.0
  0
LINE
  5
115
100
AcDbEntity
  8
0
 62
7
100
AcDbLine
 10
126.710030
 20
114.989655
 30
0.0
 11
129.110032
 21
114.989655
 31
0.0
  0
LINE
  5
116
100
AcDbEntity
  8
0
 62
7
100
AcDbLine
 10
129.110032
 20
114.989655
 30
0.0
 11
129.110032
 21
124.989663
 31
0.0
  0
LINE
  5
117
100
AcDbEntity
  8
0
 62
7
100
AcDbLine
 10
129.110032
 20
124.989663
 30
0.0
 11
133.110035
 21
124.989663
 31
0.0
  0
LINE
  5
118
100
AcDbEntity
  8
0
 62
7
100
AcDbLine
 10
133.110035
 20
124.989663
 30
0.0
 11
133.110035
 21
134.989672
 31
0.0
  0
LINE
  5
119
100
AcDbEntity
  8
0
 62
7
100
AcDbLine
 10
133.110035
 20
134.989672
 30
0.0
 11
129.110032
 21
134.989672
 31
0.0
  0
LINE
  5
11a
100
AcDbEntity
  8
0
 62
7
100
AcDbLine
 10
129.110032
 20
134.989672
 30
0.0
 11
129.110032
 21
140.989677
 31
0.0
  0
LINE
  5
11b
100
AcDbEntity
  8
0
 62
7
100
AcDbLine
 10
129.110032
 20
140.989677
 30
0.0
 11
133.110035
 21
140.989677
 31
0.0
  0
LINE
  5
11c
100
AcDbEntity
  8
0
 62
7
100
AcDbLine
 10
133.110035
 20
140.989677
 30
0.0
 11
133.110035
 21
146.989681
 31
0.0
  0
LINE
  5
11d
100
AcDbEntity
  8
0
 62
7
100
AcDbLine
 10
133.110035
 20
146.989681
 30
0.0
 11
129.110032
 21
146.989681
 31
0.0
  0
LINE
  5
11e
100
AcDbEntity
  8
0
 62
7
100
AcDbLine
 10
129.110032
 20
146.989681
 30
0.0
 11
129.110032
 21
152.989686
 31
0.0
  0
LINE
  5
11f
100
AcDbEntity
  8
0
 62
7
100
AcDbLine
 10
129.110032
 20
152.989686
 30
0.0
 11
133.110035
 21
152.989686
 31
0.0
  0
LINE
  5
120
100
AcDbEntity
  8
0
 62
7
100
AcDbLine
 10
133.110035
 20
152.989686
 30
0.0
 11
133.110035
 21
162.989695
 31
0.0
  0
LINE
  5
121
100
AcDbEntity
  8
0
 62
7
100
AcDbLine
 10
133.110035
 20
162.989695
 30
0.0
 11
129.110032
 21
162.989695
 31
0.0
  0
LINE
  5
122
100
AcDbEntity
  8
0
 62
7
100
AcDbLine
 10
129.110032
 20
162.989695
 30
0.0
 11
129.110032
 21
172.989703
 31
0.0
  0
LINE
  5
123
100
AcDbEntity
  8
0
 62
7
100
AcDbLine
 10
129.110032
 20
172.989703
 30
0.0
 11
105.110012
 21
172.989703
 31
0.0
  0
LINE
  5
124
100
AcDbEntity
  8
0
 62
7
100
AcDbLine
 10
249.314547
 20
118.993491
 30
0.0
 11
255.714552
 21
118.993491
 31
0.0
  0
LINE
  5
125
100
AcDbEntity
  8
0
 62
7
100
AcDbLine
 10
255.714552
 20
118.993491
 30
0.0
 11
255.714552
 21
114.993488
 31
0.0
  0
LINE
  5
126
100
AcDbEntity
  8
0
 62
7
100
AcDbLine
 10
255.714552
 20
114.993488
 30
0.0
 11
258.114554
 21
114.993488
 31
0.0
  0
LINE
  5
127
100
AcDbEntity
  8
0
 62
7
100
AcDbLine
 10
258.114554
 20
114.993488
 30
0.0
 11
258.114554
 21
124.993496
 31
0.0
  0
LINE
  5
128
100
AcDbEntity
  8
0
 62
7
100
AcDbLine
 10
258.114554
 20
124.993496
 30
0.0
 11
262.114558
 21
124.993496
 31
0.0
  0
LINE
  5
129
100
AcDbEntity
  8
0
 62
7
100
AcDbLine
 10
262.114558
 20
124.993496
 30
0.0
 11
262.114558
 21
134.993504
 31
0.0
  0
LINE
  5
12a
100
AcDbEntity
  8
0
 62
7
100
AcDbLine
 10
262.114558
 20
134.993504
 30
0.0
 11
258.114554
 21
134.993504
 31
0.0
  0
LINE
  5
12b
100
AcDbEntity
  8
0
 62
7
100
AcDbLine
 10
258.114554
 20
134.993504
 30
0.0
 11
258.114554
 21
140.993509
 31
0.0
  0
LINE
  5
12c
100
AcDbEntity
  8
0
 62
7
100
AcDbLine
 10
258.114554
 20
140.993509
 30
0.0
 11
262.114558
 21
140.993509
 31
0.0
  0
LINE
  5
12d
100
AcDbEntity
  8
0
 62
7
100
AcDbLine
 10
262.114558
 20
140.993509
 30
0.0
 11
262.114558
 21
146.993514
 31
0.0
  0
LINE
  5
12e
100
AcDbEntity
  8
0
 62
7
100
AcDbLine
 10
262.114558
 20
146.993514
 30
0.0
 11
258.114554
 21
146.993514
 31
0.0
  0
LINE
  5
12f
100
AcDbEntity
  8
0
 62
7
100
AcDbLine
 10
258.114554
 20
146.993514
 30
0.0
 11
258.114554
 21
152.993519
 31
0.0
  0
LINE
  5
130
100
AcDbEntity
  8
0
 62
7
100
AcDbLine
 10
258.114554
 20
152.993519
 30
0.0
 11
262.114558
 21
152.993519
 31
0.0
  0
LINE
  5
131
100
AcDbEntity
  8
0
 62
7
100
AcDbLine
 10
262.114558
 20
152.993519
 30
0.0
 11
262.114558
 21
162.993527
 31
0.0
  0
LINE
  5
132
100
AcDbEntity
  8
0
 62
7
100
AcDbLine
 10
262.114558
 20
162.993527
 30
0.0
 11
258.114554
 21
162.993527
 31
0.0
  0
LINE
  5
133
100
AcDbEntity
  8
0
 62
7
100
AcDbLine
 10
258.114554
 20
162.993527
 30
0.0
 11
258.114554
 21
172.993535
 31
0.0
  0
LINE
  5
134
100
AcDbEntity
  8
0
 62
7
100
AcDbLine
 10
258.114554
 20
172.993535
 30
0.0
 11
234.114535
 21
172.993535
 31
0.0
  0
LINE
  5
135
100
AcDbEntity
  8
0
 62
7
100
AcDbLine
 10
234.114535
 20
172.993535
 30
0.0
 11
234.114535
 21
162.993527
 31
0.0
  0
LINE
  5
136
100
AcDbEntity
  8
0
 62
7
100
AcDbLine
 10
234.114535
 20
162.993527
 30
0.0
 11
230.114531
 21
162.993527
 31
0.0
  0
LINE
  5
137
100
AcDbEntity
  8
0
 62
7
100
AcDbLine
 10
230.114531
 20
162.993527
 30
0.0
 11
230.114531
 21
152.993519
 31
0.0
  0
LINE
  5
138
100
AcDbEntity
  8
0
 62
7
100
AcDbLine
 10
230.114531
 20
152.993519
 30
0.0
 11
234.114535
 21
152.993519
 31
0.0
  0
LINE
  5
139
100
AcDbEntity
  8
0
 62
7
100
AcDbLine
 10
234.114535
 20
152.993519
 30
0.0
 11
234.114535
 21
146.993514
 31
0.0
  0
LINE
  5
13a
100
AcDbEntity
  8
0
 62
7
100
AcDbLine
 10
234.114535
 20
146.993514
 30
0.0
 11
230.114531
 21
146.993514
 31
0.0
  0
LINE
  5
13b
100
AcDbEntity
  8
0
 62
7
100
AcDbLine
 10
230.114531
 20
146.993514
 30
0.0
 11
230.114531
 21
140.993509
 31
0.0
  0
LINE
  5
13c
100
AcDbEntity
  8
0
 62
7
100
AcDbLine
 10
230.114531
 20
140.993509
 30
0.0
 11
234.114535
 21
140.993509
 31
0.0
  0
LINE
  5
13d
100
AcDbEntity
  8
0
 62
7
100
AcDbLine
 10
234.114535
 20
140.993509
 30
0.0
 11
234.114535
 21
134.993504
 31
0.0
  0
LINE
  5
13e
100
AcDbEntity
  8
0
 62
7
100
AcDbLine
 10
234.114535
 20
134.993504
 30
0.0
 11
230.114531
 21
134.993504
 31
0.0
  0
LINE
  5
13f
100
AcDbEntity
  8
0
 62
7
100
AcDbLine
 10
230.114531
 20
134.993504
 30
0.0
 11
230.114531
 21
124.993496
 31
0.0
  0
LINE
  5
140
100
AcDbEntity
  8
0
 62
7
100
AcDbLine
 10
230.114531
 20
124.993496
 30
0.0
 11
234.114535
 21
124.993496
 31
0.0
  0
LINE
  5
141
100
AcDbEntity
  8
0
 62
7
100
AcDbLine
 10
234.114535
 20
124.993496
 30
0.0
 11
234.114535
 21
114.993488
 31
0.0
  0
LINE
  5
142
100
AcDbEntity
  8
0
 62
7
100
AcDbLine
 10
234.114535
 20
114.993488
 30
0.0
 11
236.514537
 21
114.993488
 31
0.0
  0
LINE
  5
143
100
AcDbEntity
  8
0
 62
7
100
AcDbLine
 10
236.514537
 20
114.993488
 30
0.0
 11
236.514537
 21
118.993491
 31
0.0
  0
LINE
  5
144
100
AcDbEntity
  8
0
 62
7
100
AcDbLine
 10
236.514537
 20
118.993491
 30
0.0
 11
242.914542
 21
118.993491
 31
0.0
  0
LINE
  5
145
100
AcDbEntity
  8
0
 62
7
100
AcDbLine
 10
242.914542
 20
118.993491
 30
0.0
 11
242.914542
 21
114.993488
 31
0.0
  0
LINE
  5
146
100
AcDbEntity
  8
0
 62
7
100
AcDbLine
 10
242.914542
 20
114.993488
 30
0.0
 11
249.314547
 21
114.993488
 31
0.0
  0
LINE
  5
147
100
AcDbEntity
  8
0
 62
7
100
AcDbLine
 10
249.314547
 20
114.993488
 30
0.0
 11
249.314547
 21
118.993491
 31
0.0
  0
LINE
  5
148
100
AcDbEntity
  8
0
 62
7
100
AcDbLine
 10
133.076916
 20
93.428734
 30
0.0
 11
129.076913
 21
93.428734
 31
0.0
  0
LINE
  5
149
100
AcDbEntity
  8
0
 62
7
100
AcDbLine
 10
129.076913
 20
93.428734
 30
0.0
 11
129.076913
 21
99.828739
 31
0.0
  0
LINE
  5
14a
100
AcDbEntity
  8
0
 62
7
100
AcDbLine
 10
129.076913
 20
99.828739
 30
0.0
 11
133.076916
 21
99.828739
 31
0.0
  0
LINE
  5
14b
100
AcDbEntity
  8
0
 62
7
100
AcDbLine
 10
133.076916
 20
99.828739
 30
0.0
 11
133.076916
 21
106.228744
 31
0.0
  0
LINE
  5
14c
100
AcDbEntity
  8
0
 62
7
100
AcDbLine
 10
133.076916
 20
106.228744
 30
0.0
 11
129.076913
 21
106.228744
 31
0.0
  0
LINE
  5
14d
100
AcDbEntity
  8
0
 62
7
100
AcDbLine
 10
129.076913
 20
106.228744
 30
0.0
 11
129.076913
 21
112.628749
 31
0.0
  0
LINE
  5
14e
100
AcDbEntity
  8
0
 62
7
100
AcDbLine
 10
129.076913
 20
112.628749
 30
0.0
 11
133.076916
 21
112.628749
 31
0.0
  0
LINE
  5
14f
100
AcDbEntity
  8
0
 62
7
100
AcDbLine
 10
133.076916
 20
112.628749
 30
0.0
 11
133.076916
 21
115.028751
 31
0.0
  0
LINE
  5
150
100
AcDbEntity
  8
0
 62
7
100
AcDbLine
 10
133.076916
 20
115.028751
 30
0.0
 11
138.826921
 21
115.028751
 31
0.0
  0
LINE
  5
151
100
AcDbEntity
  8
0
 62
7
100
AcDbLine
 10
138.826921
 20
115.028751
 30
0.0
 11
138.826921
 21
119.028755
 31
0.0
  0
LINE
  5
152
100
AcDbEntity
  8
0
 62
7
100
AcDbLine
 10
138.826921
 20
119.028755
 30
0.0
 11
148.576929
 21
119.028755
 31
0.0
  0
LINE
  5
153
100
AcDbEntity
  8
0
 62
7
100
AcDbLine
 10
148.576929
 20
119.028755
 30
0.0
 11
148.576929
 21
115.028751
 31
0.0
  0
LINE
  5
154
100
AcDbEntity
  8
0
 62
7
100
AcDbLine
 10
148.576929
 20
115.028751
 30
0.0
 11
154.576934
 21
115.028751
 31
0.0
  0
LINE
  5
155
100
AcDbEntity
  8
0
 62
7
100
AcDbLine
 10
154.576934
 20
115.028751
 30
0.0
 11
154.576934
 21
119.028755
 31
0.0
  0
LINE
  5
156
100
AcDbEntity
  8
0
 62
7
100
AcDbLine
 10
154.576934
 20
119.028755
 30
0.0
 11
160.576937
 21
119.028755
 31
0.0
  0
LINE
  5
157
100
AcDbEntity
  8
0
 62
7
100
AcDbLine
 10
160.576937
 20
119.028755
 30
0.0
 11
160.576937
 21
115.028751
 31
0.0
  0
LINE
  5
158
100
AcDbEntity
  8
0
 62
7
100
AcDbLine
 10
160.576937
 20
115.028751
 30
0.0
 11
166.576942
 21
115.028751
 31
0.0
  0
LINE
  5
159
100
AcDbEntity
  8
0
 62
7
100
AcDbLine
 10
166.576942
 20
115.028751
 30
0.0
 11
166.576942
 21
119.028755
 31
0.0
  0
LINE
  5
15a
100
AcDbEntity
  8
0
 62
7
100
AcDbLine
 10
166.576942
 20
119.028755
 30
0.0
 11
172.576947
 21
119.028755
 31
0.0
  0
LINE
  5
15b
100
AcDbEntity
  8
0
 62
7
100
AcDbLine
 10
172.576947
 20
119.028755
 30
0.0
 11
172.576947
 21
115.028751
 31
0.0
  0
LINE
  5
15c
100
AcDbEntity
  8
0
 62
7
100
AcDbLine
 10
172.576947
 20
115.028751
 30
0.0
 11
178.576952
 21
115.028751
 31
0.0
  0
LINE
  5
15d
100
AcDbEntity
  8
0
 62
7
100
AcDbLine
 10
178.576952
 20
115.028751
 30
0.0
 11
178.576952
 21
119.028755
 31
0.0
  0
LINE
  5
15e
100
AcDbEntity
  8
0
 62
7
100
AcDbLine
 10
178.576952
 20
119.028755
 30
0.0
 11
184.576960
 21
119.028755
 31
0.0
  0
LINE
  5
15f
100
AcDbEntity
  8
0
 62
7
100
AcDbLine
 10
184.576960
 20
119.028755
 30
0.0
 11
184.576960
 21
115.028751
 31
0.0
  0
LINE
  5
160
100
AcDbEntity
  8
0
 62
7
100
AcDbLine
 10
184.576960
 20
115.028751
 30
0.0
 11
190.576965
 21
115.028751
 31
0.0
  0
LINE
  5
161
100
AcDbEntity
  8
0
 62
7
100
AcDbLine
 10
190.576965
 20
115.028751
 30
0.0
 11
190.576965
 21
119.028755
 31
0.0
  0
LINE
  5
162
100
AcDbEntity
  8
0
 62
7
100
AcDbLine
 10
190.576965
 20
119.028755
 30
0.0
 11
196.576970
 21
119.028755
 31
0.0
  0
LINE
  5
163
100
AcDbEntity
  8
0
 62
7
100
AcDbLine
 10
196.576970
 20
119.028755
 30
0.0
 11
196.576970
 21
115.028751
 31
0.0
  0
LINE
  5
164
100
AcDbEntity
  8
0
 62
7
100
AcDbLine
 10
196.576970
 20
115.028751
 30
0.0
 11
202.576975
 21
115.028751
 31
0.0
  0
LINE
  5
165
100
AcDbEntity
  8
0
 62
7
100
AcDbLine
 10
202.576975
 20
115.028751
 30
0.0
 11
202.576975
 21
119.028755
 31
0.0
  0
LINE
  5
166
100
AcDbEntity
  8
0
 62
7
100
AcDbLine
 10
202.576975
 20
119.028755
 30
0.0
 11
208.576980
 21
119.028755
 31
0.0
  0
LINE
  5
167
100
AcDbEntity
  8
0
 62
7
100
AcDbLine
 10
208.576980
 20
119.028755
 30
0.0
 11
208.576980
 21
115.028751
 31
0.0
  0
LINE
  5
168
100
AcDbEntity
  8
0
 62
7
100
AcDbLine
 10
208.576980
 20
115.028751
 30
0.0
 11
214.576985
 21
115.028751
 31
0.0
  0
LINE
  5
169
100
AcDbEntity
  8
0
 62
7
100
AcDbLine
 10
214.576985
 20
115.028751
 30
0.0
 11
214.576985
 21
119.028755
 31
0.0
  0
LINE
  5
16a
100
AcDbEntity
  8
0
 62
7
100
AcDbLine
 10
214.576985
 20
119.028755
 30
0.0
 11
224.326992
 21
119.028755
 31
0.0
  0
LINE
  5
16b
100
AcDbEntity
  8
0
 62
7
100
AcDbLine
 10
224.326992
 20
119.028755
 30
0.0
 11
224.326992
 21
115.028751
 31
0.0
  0
LINE
  5
16c
100
AcDbEntity
  8
0
 62
7
100
AcDbLine
 10
224.326992
 20
115.028751
 30
0.0
 11
230.076996
 21
115.028751
 31
0.0
  0
LINE
  5
16d
100
AcDbEntity
  8
0
 62
7
100
AcDbLine
 10
230.076996
 20
115.028751
 30
0.0
 11
230.076996
 21
112.628749
 31
0.0
  0
LINE
  5
16e
100
AcDbEntity
  8
0
 62
7
100
AcDbLine
 10
230.076996
 20
112.628749
 30
0.0
 11
234.076999
 21
112.628749
 31
0.0
  0
LINE
  5
16f
100
AcDbEntity
  8
0
 62
7
100
AcDbLine
 10
234.076999
 20
112.628749
 30
0.0
 11
234.076999
 21
106.228744
 31
0.0
  0
LINE
  5
170
100
AcDbEntity
  8
0
 62
7
100
AcDbLine
 10
234.076999
 20
106.228744
 30
0.0
 11
230.076996
 21
106.228744
 31
0.0
  0
LINE
  5
171
100
AcDbEntity
  8
0
 62
7
100
AcDbLine
 10
230.076996
 20
106.228744
 30
0.0
 11
230.076996
 21
99.828739
 31
0.0
  0
LINE
  5
172
100
AcDbEntity
  8
0
 62
7
100
AcDbLine
 10
230.076996
 20
99.828739
 30
0.0
 11
234.076999
 21
99.828739
 31
0.0
  0
LINE
  5
173
100
AcDbEntity
  8
0
 62
7
100
AcDbLine
 10
234.076999
 20
99.828739
 30
0.0
 11
234.076999
 21
93.428734
 31
0.0
  0
LINE
  5
174
100
AcDbEntity
  8
0
 62
7
100
AcDbLine
 10
234.076999
 20
93.428734
 30
0.0
 11
230.076996
 21
93.428734
 31
0.0
  0
LINE
  5
175
100
AcDbEntity
  8
0
 62
7
100
AcDbLine
 10
230.076996
 20
93.428734
 30
0.0
 11
230.076996
 21
91.028732
 31
0.0
  0
LINE
  5
176
100
AcDbEntity
  8
0
 62
7
100
AcDbLine
 10
230.076996
 20
91.028732
 30
0.0
 11
224.326992
 21
91.028732
 31
0.0
  0
LINE
  5
177
100
AcDbEntity
  8
0
 62
7
100
AcDbLine
 10
224.326992
 20
91.028732
 30
0.0
 11
224.326992
 21
87.028728
 31
0.0
  0
LINE
  5
178
100
AcDbEntity
  8
0
 62
7
100
AcDbLine
 10
224.326992
 20
87.028728
 30
0.0
 11
214.576985
 21
87.028728
 31
0.0
  0
LINE
  5
179
100
AcDbEntity
  8
0
 62
7
100
AcDbLine
 10
214.576985
 20
87.028728
 30
0.0
 11
214.576985
 21
91.028732
 31
0.0
  0
LINE
  5
17a
100
AcDbEntity
  8
0
 62
7
100
AcDbLine
 10
214.576985
 20
91.028732
 30
0.0
 11
208.576980
 21
91.028732
 31
0.0
  0
LINE
  5
17b
100
AcDbEntity
  8
0
 62
7
100
AcDbLine
 10
208.576980
 20
91.028732
 30
0.0
 11
208.576980
 21
87.028728
 31
0.0
  0
LINE
  5
17c
100
AcDbEntity
  8
0
 62
7
100
AcDbLine
 10
208.576980
 20
87.028728
 30
0.0
 11
202.576975
 21
87.028728
 31
0.0
  0
LINE
  5
17d
100
AcDbEntity
  8
0
 62
7
100
AcDbLine
 10
202.576975
 20
87.028728
 30
0.0
 11
202.576975
 21
91.028732
 31
0.0
  0
LINE
  5
17e
100
AcDbEntity
  8
0
 62
7
100
AcDbLine
 10
202.576975
 20
91.028732
 30
0.0
 11
196.576970
 21
91.028732
 31
0.0
  0
LINE
  5
17f
100
AcDbEntity
  8
0
 62
7
100
AcDbLine
 10
196.576970
 20
91.028732
 30
0.0
 11
196.576970
 21
87.028728
 31
0.0
  0
LINE
  5
180
100
AcDbEntity
  8
0
 62
7
100
AcDbLine
 10
196.576970
 20
87.028728
 30
0.0
 11
190.576965
 21
87.028728
 31
0.0
  0
LINE
  5
181
100
AcDbEntity
  8
0
 62
7
100
AcDbLine
 10
190.576965
 20
87.028728
 30
0.0
 11
190.576965
 21
91.028732
 31
0.0
  0
LINE
  5
182
100
AcDbEntity
  8
0
 62
7
100
AcDbLine
 10
190.576965
 20
91.028732
 30
0.0
 11
184.576960
 21
91.028732
 31
0.0
  0
LINE
  5
183
100
AcDbEntity
  8
0
 62
7
100
AcDbLine
 10
184.576960
 20
91.028732
 30
0.0
 11
184.576960
 21
87.028728
 31
0.0
  0
LINE
  5
184
100
AcDbEntity
  8
0
 62
7
100
AcDbLine
 10
184.576960
 20
87.028728
 30
0.0
 11
178.576952
 21
87.028728
 31
0.0
  0
LINE
  5
185
100
AcDbEntity
  8
0
 62
7
100
AcDbLine
 10
178.576952
 20
87.028728
 30
0.0
 11
178.576952
 21
91.028732
 31
0.0
  0
LINE
  5
186
100
AcDbEntity
  8
0
 62
7
100
AcDbLine
 10
178.576952
 20
91.028732
 30
0.0
 11
172.576947
 21
91.028732
 31
0.0
  0
LINE
  5
187
100
AcDbEntity
  8
0
 62
7
100
AcDbLine
 10
172.576947
 20
91.028732
 30
0.0
 11
172.576947
 21
87.028728
 31
0.0
  0
LINE
  5
188
100
AcDbEntity
  8
0
 62
7
100
AcDbLine
 10
172.576947
 20
87.028728
 30
0.0
 11
166.576942
 21
87.028728
 31
0.0
  0
LINE
  5
189
100
AcDbEntity
  8
0
 62
7
100
AcDbLine
 10
166.576942
 20
87.028728
 30
0.0
 11
166.576942
 21
91.028732
 31
0.0
  0
LINE
  5
18a
100
AcDbEntity
  8
0
 62
7
100
AcDbLine
 10
166.576942
 20
91.028732
 30
0.0
 11
160.576937
 21
91.028732
 31
0.0
  0
LINE
  5
18b
100
AcDbEntity
  8
0
 62
7
100
AcDbLine
 10
160.576937
 20
91.028732
 30
0.0
 11
160.576937
 21
87.028728
 31
0.0
  0
LINE
  5
18c
100
AcDbEntity
  8
0
 62
7
100
AcDbLine
 10
160.576937
 20
87.028728
 30
0.0
 11
154.576934
 21
87.028728
 31
0.0
  0
LINE
  5
18d
100
AcDbEntity
  8
0
 62
7
100
AcDbLine
 10
154.576934
 20
87.028728
 30
0.0
 11
154.576934
 21
91.028732
 31
0.0
  0
LINE
  5
18e
100
AcDbEntity
  8
0
 62
7
100
AcDbLine
 10
154.576934
 20
91.028732
 30
0.0
 11
148.576929
 21
91.028732
 31
0.0
  0
LINE
  5
18f
100
AcDbEntity
  8
0
 62
7
100
AcDbLine
 10
148.576929
 20
91.028732
 30
0.0
 11
148.576929
 21
87.028728
 31
0.0
  0
LINE
  5
190
100
AcDbEntity
  8
0
 62
7
100
AcDbLine
 10
148.576929
 20
87.028728
 30
0.0
 11
138.826921
 21
87.028728
 31
0.0
  0
LINE
  5
191
100
AcDbEntity
  8
0
 62
7
100
AcDbLine
 10
138.826921
 20
87.028728
 30
0.0
 11
138.826921
 21
91.028732
 31
0.0
  0
LINE
  5
192
100
AcDbEntity
  8
0
 62
7
100
AcDbLine
 10
138.826921
 20
91.028732
 30
0.0
 11
133.076916
 21
91.028732
 31
0.0
  0
LINE
  5
193
100
AcDbEntity
  8
0
 62
7
100
AcDbLine
 10
133.076916
 20
91.028732
 30
0.0
 11
133.076916
 21
93.428734
 31
0.0
  0
LINE
  5
194
100
AcDbEntity
  8
0
 62
7
100
AcDbLine
 10
9.800009
 20
115.049949
 30
0.0
 11
9.800009
 21
111.049946
 31
0.0
  0
LINE
  5
195
100
AcDbEntity
  8
0
 62
7
100
AcDbLine
 10
9.800009
 20
111.049946
 30
0.0
 11
19.550017
 21
111.049946
 31
0.0
  0
LINE
  5
196
100
AcDbEntity
  8
0
 62
7
100
AcDbLine
 10
19.550017
 20
111.049946
 30
0.0
 11
19.550017
 21
115.049949
 31
0.0
  0
LINE
  5
197
100
AcDbEntity
  8
0
 62
7
100
AcDbLine
 10
19.550017
 20
115.049949
 30
0.0
 11
9.800009
 21
115.049949
 31
0.0
  0
LINE
  5
198
100
AcDbEntity
  8
0
 62
7
100
AcDbLine
 10
25.550022
 20
115.049949
 30
0.0
 11
25.550022
 21
111.049946
 31
0.0
  0
LINE
  5
199
100
AcDbEntity
  8
0
 62
7
100
AcDbLine
 10
25.550022
 20
111.049946
 30
0.0
 11
31.550026
 21
111.049946
 31
0.0
  0
LINE
  5
19a
100
AcDbEntity
  8
0
 62
7
100
AcDbLine
 10
31.550026
 20
111.049946
 30
0.0
 11
31.550026
 21
115.049949
 31
0.0
  0
LINE
  5
19b
100
AcDbEntity
  8
0
 62
7
100
AcDbLine
 10
31.550026
 20
115.049949
 30
0.0
 11
25.550022
 21
115.049949
 31
0.0
  0
LINE
  5
19c
100
AcDbEntity
  8
0
 62
7
100
AcDbLine
 10
37.550031
 20
115.049949
 30
0.0
 11
37.550031
 21
111.049946
 31
0.0
  0
LINE
  5
19d
100
AcDbEntity
  8
0
 62
7
100
AcDbLine
 10
37.550031
 20
111.049946
 30
0.0
 11
43.550036
 21
111.049946
 31
0.0
  0
LINE
  5
19e
100
AcDbEntity
  8
0
 62
7
100
AcDbLine
 10
43.550036
 20
111.049946
 30
0.0
 11
43.550036
 21
115.049949
 31
0.0
  0
LINE
  5
19f
100
AcDbEntity
  8
0
 62
7
100
AcDbLine
 10
43.550036
 20
115.049949
 30
0.0
 11
37.550031
 21
115.049949
 31
0.0
  0
LINE
  5
1a0
100
AcDbEntity
  8
0
 62
7
100
AcDbLine
 10
49.550041
 20
115.049949
 30
0.0
 11
49.550041
 21
111.049946
 31
0.0
  0
LINE
  5
1a1
100
AcDbEntity
  8
0
 62
7
100
AcDbLine
 10
49.550041
 20
111.049946
 30
0.0
 11
55.550048
 21
111.049946
 31
0.0
  0
LINE
  5
1a2
100
AcDbEntity
  8
0
 62
7
100
AcDbLine
 10
55.550048
 20
111.049946
 30
0.0
 11
55.550048
 21
115.049949
 31
0.0
  0
LINE
  5
1a3
100
AcDbEntity
  8
0
 62
7
100
AcDbLine
 10
55.550048
 20
115.049949
 30
0.0
 11
49.550041
 21
115.049949
 31
0.0
  0
LINE
  5
1a4
100
AcDbEntity
  8
0
 62
7
100
AcDbLine
 10
61.550053
 20
115.049949
 30
0.0
 11
61.550053
 21
111.049946
 31
0.0
  0
LINE
  5
1a5
100
AcDbEntity
  8
0
 62
7
100
AcDbLine
 10
61.550053
 20
111.049946
 30
0.0
 11
67.550058
 21
111.049946
 31
0.0
  0
LINE
  5
1a6
100
AcDbEntity
  8
0
 62
7
100
AcDbLine
 10
67.550058
 20
111.049946
 30
0.0
 11
67.550058
 21
115.049949
 31
0.0
  0
LINE
  5
1a7
100
AcDbEntity
  8
0
 62
7
100
AcDbLine
 10
67.550058
 20
115.049949
 30
0.0
 11
61.550053
 21
115.049949
 31
0.0
  0
LINE
  5
1a8
100
AcDbEntity
  8
0
 62
7
100
AcDbLine
 10
73.550063
 20
115.049949
 30
0.0
 11
73.550063
 21
111.049946
 31
0.0
  0
LINE
  5
1a9
100
AcDbEntity
  8
0
 62
7
100
AcDbLine
 10
73.550063
 20
111.049946
 30
0.0
 11
79.550068
 21
111.049946
 31
0.0
  0
LINE
  5
1aa
100
AcDbEntity
  8
0
 62
7
100
AcDbLine
 10
79.550068
 20
111.049946
 30
0.0
 11
79.550068
 21
115.049949
 31
0.0
  0
LINE
  5
1ab
100
AcDbEntity
  8
0
 62
7
100
AcDbLine
 10
79.550068
 20
115.049949
 30
0.0
 11
73.550063
 21
115.049949
 31
0.0
  0
LINE
  5
1ac
100
AcDbEntity
  8
0
 62
7
100
AcDbLine
 10
85.550073
 20
115.049949
 30
0.0
 11
85.550073
 21
111.049946
 31
0.0
  0
LINE
  5
1ad
100
AcDbEntity
  8
0
 62
7
100
AcDbLine
 10
85.550073
 20
111.049946
 30
0.0
 11
95.300080
 21
111.049946
 31
0.0
  0
LINE
  5
1ae
100
AcDbEntity
  8
0
 62
7
100
AcDbLine
 10
95.300080
 20
111.049946
 30
0.0
 11
95.300080
 21
115.049949
 31
0.0
  0
LINE
  5
1af
100
AcDbEntity
  8
0
 62
7
100
AcDbLine
 10
95.300080
 20
115.049949
 30
0.0
 11
85.550073
 21
115.049949
 31
0.0
  0
LINE
  5
1b0
100
AcDbEntity
  8
0
 62
7
100
AcDbLine
 10
105.050088
 20
115.049949
 30
0.0
 11
105.050088
 21
105.799941
 31
0.0
  0
LINE
  5
1b1
100
AcDbEntity
  8
0
 62
7
100
AcDbLine
 10
105.050088
 20
105.799941
 30
0.0
 11
101.050084
 21
105.799941
 31
0.0
  0
LINE
  5
1b2
100
AcDbEntity
  8
0
 62
7
100
AcDbLine
 10
101.050084
 20
105.799941
 30
0.0
 11
101.050084
 21
96.549934
 31
0.0
  0
LINE
  5
1b3
100
AcDbEntity
  8
0
 62
7
100
AcDbLine
 10
101.050084
 20
96.549934
 30
0.0
 11
105.050088
 21
96.549934
 31
0.0
  0
LINE
  5
1b4
100
AcDbEntity
  8
0
 62
7
100
AcDbLine
 10
105.050088
 20
96.549934
 30
0.0
 11
105.050088
 21
90.549929
 31
0.0
  0
LINE
  5
1b5
100
AcDbEntity
  8
0
 62
7
100
AcDbLine
 10
105.050088
 20
90.549929
 30
0.0
 11
101.050084
 21
90.549929
 31
0.0
  0
LINE
  5
1b6
100
AcDbEntity
  8
0
 62
7
100
AcDbLine
 10
101.050084
 20
90.549929
 30
0.0
 11
101.050084
 21
84.549925
 31
0.0
  0
LINE
  5
1b7
100
AcDbEntity
  8
0
 62
7
100
AcDbLine
 10
101.050084
 20
84.549925
 30
0.0
 11
105.050088
 21
84.549925
 31
0.0
  0
LINE
  5
1b8
100
AcDbEntity
  8
0
 62
7
100
AcDbLine
 10
105.050088
 20
84.549925
 30
0.0
 11
105.050088
 21
78.549918
 31
0.0
  0
LINE
  5
1b9
100
AcDbEntity
  8
0
 62
7
100
AcDbLine
 10
105.050088
 20
78.549918
 30
0.0
 11
101.050084
 21
78.549918
 31
0.0
  0
LINE
  5
1ba
100
AcDbEntity
  8
0
 62
7
100
AcDbLine
 10
101.050084
 20
78.549918
 30
0.0
 11
101.050084
 21
72.549913
 31
0.0
  0
LINE
  5
1bb
100
AcDbEntity
  8
0
 62
7
100
AcDbLine
 10
101.050084
 20
72.549913
 30
0.0
 11
105.050088
 21
72.549913
 31
0.0
  0
LINE
  5
1bc
100
AcDbEntity
  8
0
 62
7
100
AcDbLine
 10
105.050088
 20
72.549913
 30
0.0
 11
105.050088
 21
66.549908
 31
0.0
  0
LINE
  5
1bd
100
AcDbEntity
  8
0
 62
7
100
AcDbLine
 10
105.050088
 20
66.549908
 30
0.0
 11
101.050084
 21
66.549908
 31
0.0
  0
LINE
  5
1be
100
AcDbEntity
  8
0
 62
7
100
AcDbLine
 10
101.050084
 20
66.549908
 30
0.0
 11
101.050084
 21
60.549906
 31
0.0
  0
LINE
  5
1bf
100
AcDbEntity
  8
0
 62
7
100
AcDbLine
 10
101.050084
 20
60.549906
 30
0.0
 11
105.050088
 21
60.549906
 31
0.0
  0
LINE
  5
1c0
100
AcDbEntity
  8
0
 62
7
100
AcDbLine
 10
105.050088
 20
60.549906
 30
0.0
 11
105.050088
 21
54.549901
 31
0.0
  0
LINE
  5
1c1
100
AcDbEntity
  8
0
 62
7
100
AcDbLine
 10
105.050088
 20
54.549901
 30
0.0
 11
101.050084
 21
54.549901
 31
0.0
  0
LINE
  5
1c2
100
AcDbEntity
  8
0
 62
7
100
AcDbLine
 10
101.050084
 20
54.549901
 30
0.0
 11
101.050084
 21
48.549896
 31
0.0
  0
LINE
  5
1c3
100
AcDbEntity
  8
0
 62
7
100
AcDbLine
 10
101.050084
 20
48.549896
 30
0.0
 11
105.050088
 21
48.549896
 31
0.0
  0
LINE
  5
1c4
100
AcDbEntity
  8
0
 62
7
100
AcDbLine
 10
105.050088
 20
48.549896
 30
0.0
 11
105.050088
 21
42.549891
 31
0.0
  0
LINE
  5
1c5
100
AcDbEntity
  8
0
 62
7
100
AcDbLine
 10
105.050088
 20
42.549891
 30
0.0
 11
101.050084
 21
42.549891
 31
0.0
  0
LINE
  5
1c6
100
AcDbEntity
  8
0
 62
7
100
AcDbLine
 10
101.050084
 20
42.549891
 30
0.0
 11
101.050084
 21
36.549886
 31
0.0
  0
LINE
  5
1c7
100
AcDbEntity
  8
0
 62
7
100
AcDbLine
 10
101.050084
 20
36.549886
 30
0.0
 11
105.050088
 21
36.549886
 31
0.0
  0
LINE
  5
1c8
100
AcDbEntity
  8
0
 62
7
100
AcDbLine
 10
105.050088
 20
36.549886
 30
0.0
 11
105.050088
 21
30.549881
 31
0.0
  0
LINE
  5
1c9
100
AcDbEntity
  8
0
 62
7
100
AcDbLine
 10
105.050088
 20
30.549881
 30
0.0
 11
101.050084
 21
30.549881
 31
0.0
  0
LINE
  5
1ca
100
AcDbEntity
  8
0
 62
7
100
AcDbLine
 10
101.050084
 20
30.549881
 30
0.0
 11
101.050084
 21
24.549873
 31
0.0
  0
LINE
  5
1cb
100
AcDbEntity
  8
0
 62
7
100
AcDbLine
 10
101.050084
 20
24.549873
 30
0.0
 11
105.050088
 21
24.549873
 31
0.0
  0
LINE
  5
1cc
100
AcDbEntity
  8
0
 62
7
100
AcDbLine
 10
105.050088
 20
24.549873
 30
0.0
 11
105.050088
 21
18.549868
 31
0.0
  0
LINE
  5
1cd
100
AcDbEntity
  8
0
 62
7
100
AcDbLine
 10
105.050088
 20
18.549868
 30
0.0
 11
101.050084
 21
18.549868
 31
0.0
  0
LINE
  5
1ce
100
AcDbEntity
  8
0
 62
7
100
AcDbLine
 10
101.050084
 20
18.549868
 30
0.0
 11
101.050084
 21
9.299863
 31
0.0
  0
LINE
  5
1cf
100
AcDbEntity
  8
0
 62
7
100
AcDbLine
 10
101.050084
 20
9.299863
 30
0.0
 11
105.050088
 21
9.299863
 31
0.0
  0
LINE
  5
1d0
100
AcDbEntity
  8
0
 62
7
100
AcDbLine
 10
105.050088
 20
9.299863
 30
0.0
 11
105.050088
 21
0.049855
 31
0.0
  0
LINE
  5
1d1
100
AcDbEntity
  8
0
 62
7
100
AcDbLine
 10
105.050088
 20
0.049855
 30
0.0
 11
95.300080
 21
0.049855
 31
0.0
  0
LINE
  5
1d2
100
AcDbEntity
  8
0
 62
7
100
AcDbLine
 10
95.300080
 20
0.049855
 30
0.0
 11
95.300080
 21
4.049858
 31
0.0
  0
LINE
  5
1d3
100
AcDbEntity
  8
0
 62
7
100
AcDbLine
 10
95.300080
 20
4.049858
 30
0.0
 11
85.550073
 21
4.049858
 31
0.0
  0
LINE
  5
1d4
100
AcDbEntity
  8
0
 62
7
100
AcDbLine
 10
85.550073
 20
4.049858
 30
0.0
 11
85.550073
 21
0.049855
 31
0.0
  0
LINE
  5
1d5
100
AcDbEntity
  8
0
 62
7
100
AcDbLine
 10
85.550073
 20
0.049855
 30
0.0
 11
79.550068
 21
0.049855
 31
0.0
  0
LINE
  5
1d6
100
AcDbEntity
  8
0
 62
7
100
AcDbLine
 10
79.550068
 20
0.049855
 30
0.0
 11
79.550068
 21
4.049858
 31
0.0
  0
LINE
  5
1d7
100
AcDbEntity
  8
0
 62
7
100
AcDbLine
 10
79.550068
 20
4.049858
 30
0.0
 11
73.550063
 21
4.049858
 31
0.0
  0
LINE
  5
1d8
100
AcDbEntity
  8
0
 62
7
100
AcDbLine
 10
73.550063
 20
4.049858
 30
0.0
 11
73.550063
 21
0.049855
 31
0.0
  0
LINE
  5
1d9
100
AcDbEntity
  8
0
 62
7
100
AcDbLine
 10
73.550063
 20
0.049855
 30
0.0
 11
67.550058
 21
0.049855
 31
0.0
  0
LINE
  5
1da
100
AcDbEntity
  8
0
 62
7
100
AcDbLine
 10
67.550058
 20
0.049855
 30
0.0
 11
67.550058
 21
4.049858
 31
0.0
  0
LINE
  5
1db
100
AcDbEntity
  8
0
 62
7
100
AcDbLine
 10
67.550058
 20
4.049858
 30
0.0
 11
61.550053
 21
4.049858
 31
0.0
  0
LINE
  5
1dc
100
AcDbEntity
  8
0
 62
7
100
AcDbLine
 10
61.550053
 20
4.049858
 30
0.0
 11
61.550053
 21
0.049855
 31
0.0
  0
LINE
  5
1dd
100
AcDbEntity
  8
0
 62
7
100
AcDbLine
 10
61.550053
 20
0.049855
 30
0.0
 11
55.550048
 21
0.049855
 31
0.0
  0
LINE
  5
1de
100
AcDbEntity
  8
0
 62
7
100
AcDbLine
 10
55.550048
 20
0.049855
 30
0.0
 11
55.550048
 21
4.049858
 31
0.0
  0
LINE
  5
1df
100
AcDbEntity
  8
0
 62
7
100
AcDbLine
 10
55.550048
 20
4.049858
 30
0.0
 11
49.550041
 21
4.049858
 31
0.0
  0
LINE
  5
1e0
100
AcDbEntity
  8
0
 62
7
100
AcDbLine
 10
49.550041
 20
4.049858
 30
0.0
 11
49.550041
 21
0.049855
 31
0.0
  0
LINE
  5
1e1
100
AcDbEntity
  8
0
 62
7
100
AcDbLine
 10
49.550041
 20
0.049855
 30
0.0
 11
43.550036
 21
0.049855
 31
0.0
  0
LINE
  5
1e2
100
AcDbEntity
  8
0
 62
7
100
AcDbLine
 10
43.550036
 20
0.049855
 30
0.0
 11
43.550036
 21
4.049858
 31
0.0
  0
LINE
  5
1e3
100
AcDbEntity
  8
0
 62
7
100
AcDbLine
 10
43.550036
 20
4.049858
 30
0.0
 11
37.550031
 21
4.049858
 31
0.0
  0
LINE
  5
1e4
100
AcDbEntity
  8
0
 62
7
100
AcDbLine
 10
37.550031
 20
4.049858
 30
0.0
 11
37.550031
 21
0.049855
 31
0.0
  0
LINE
  5
1e5
100
AcDbEntity
  8
0
 62
7
100
AcDbLine
 10
37.550031
 20
0.049855
 30
0.0
 11
31.550026
 21
0.049855
 31
0.0
  0
LINE
  5
1e6
100
AcDbEntity
  8
0
 62
7
100
AcDbLine
 10
31.550026
 20
0.049855
 30
0.0
 11
31.550026
 21
4.049858
 31
0.0
  0
LINE
  5
1e7
100
AcDbEntity
  8
0
 62
7
100
AcDbLine
 10
31.550026
 20
4.049858
 30
0.0
 11
25.550022
 21
4.049858
 31
0.0
  0
LINE
  5
1e8
100
AcDbEntity
  8
0
 62
7
100
AcDbLine
 10
25.550022
 20
4.049858
 30
0.0
 11
25.550022
 21
0.049855
 31
0.0
  0
LINE
  5
1e9
100
AcDbEntity
  8
0
 62
7
100
AcDbLine
 10
25.550022
 20
0.049855
 30
0.0
 11
19.550017
 21
0.049855
 31
0.0
  0
LINE
  5
1ea
100
AcDbEntity
  8
0
 62
7
100
AcDbLine
 10
19.550017
 20
0.049855
 30
0.0
 11
19.550017
 21
4.049858
 31
0.0
  0
LINE
  5
1eb
100
AcDbEntity
  8
0
 62
7
100
AcDbLine
 10
19.550017
 20
4.049858
 30
0.0
 11
9.800009
 21
4.049858
 31
0.0
  0
LINE
  5
1ec
100
AcDbEntity
  8
0
 62
7
100
AcDbLine
 10
9.800009
 20
4.049858
 30
0.0
 11
9.800009
 21
0.049855
 31
0.0
  0
LINE
  5
1ed
100
AcDbEntity
  8
0
 62
7
100
AcDbLine
 10
9.800009
 20
0.049855
 30
0.0
 11
0.050001
 21
0.049855
 31
0.0
  0
LINE
  5
1ee
100
AcDbEntity
  8
0
 62
7
100
AcDbLine
 10
0.050001
 20
0.049855
 30
0.0
 11
0.050001
 21
9.299863
 31
0.0
  0
LINE
  5
1ef
100
AcDbEntity
  8
0
 62
7
100
AcDbLine
 10
0.050001
 20
9.299863
 30
0.0
 11
4.050005
 21
9.299863
 31
0.0
  0
LINE
  5
1f0
100
AcDbEntity
  8
0
 62
7
100
AcDbLine
 10
4.050005
 20
9.299863
 30
0.0
 11
4.050005
 21
18.549868
 31
0.0
  0
LINE
  5
1f1
100
AcDbEntity
  8
0
 62
7
100
AcDbLine
 10
4.050005
 20
18.549868
 30
0.0
 11
0.050001
 21
18.549868
 31
0.0
  0
LINE
  5
1f2
100
AcDbEntity
  8
0
 62
7
100
AcDbLine
 10
0.050001
 20
18.549868
 30
0.0
 11
0.050001
 21
24.549873
 31
0.0
  0
LINE
  5
1f3
100
AcDbEntity
  8
0
 62
7
100
AcDbLine
 10
0.050001
 20
24.549873
 30
0.0
 11
4.050005
 21
24.549873
 31
0.0
  0
LINE
  5
1f4
100
AcDbEntity
  8
0
 62
7
100
AcDbLine
 10
4.050005
 20
24.549873
 30
0.0
 11
4.050005
 21
30.549881
 31
0.0
  0
LINE
  5
1f5
100
AcDbEntity
  8
0
 62
7
100
AcDbLine
 10
4.050005
 20
30.549881
 30
0.0
 11
0.050001
 21
30.549881
 31
0.0
  0
LINE
  5
1f6
100
AcDbEntity
  8
0
 62
7
100
AcDbLine
 10
0.050001
 20
30.549881
 30
0.0
 11
0.050001
 21
36.549886
 31
0.0
  0
LINE
  5
1f7
100
AcDbEntity
  8
0
 62
7
100
AcDbLine
 10
0.050001
 20
36.549886
 30
0.0
 11
4.050005
 21
36.549886
 31
0.0
  0
LINE
  5
1f8
100
AcDbEntity
  8
0
 62
7
100
AcDbLine
 10
4.050005
 20
36.549886
 30
0.0
 11
4.050005
 21
42.549891
 31
0.0
  0
LINE
  5
1f9
100
AcDbEntity
  8
0
 62
7
100
AcDbLine
 10
4.050005
 20
42.549891
 30
0.0
 11
0.050001
 21
42.549891
 31
0.0
  0
LINE
  5
1fa
100
AcDbEntity
  8
0
 62
7
100
AcDbLine
 10
0.050001
 20
42.549891
 30
0.0
 11
0.050001
 21
48.549896
 31
0.0
  0
LINE
  5
1fb
100
AcDbEntity
  8
0
 62
7
100
AcDbLine
 10
0.050001
 20
48.549896
 30
0.0
 11
4.050005
 21
48.549896
 31
0.0
  0
LINE
  5
1fc
100
AcDbEntity
  8
0
 62
7
100
AcDbLine
 10
4.050005
 20
48.549896
 30
0.0
 11
4.050005
 21
54.549901
 31
0.0
  0
LINE
  5
1fd
100
AcDbEntity
  8
0
 62
7
100
AcDbLine
 10
4.050005
 20
54.549901
 30
0.0
 11
0.050001
 21
54.549901
 31
0.0
  0
LINE
  5
1fe
100
AcDbEntity
  8
0
 62
7
100
AcDbLine
 10
0.050001
 20
54.549901
 30
0.0
 11
0.050001
 21
60.549906
 31
0.0
  0
LINE
  5
1ff
100
AcDbEntity
  8
0
 62
7
100
AcDbLine
 10
0.050001
 20
60.549906
 30
0.0
 11
4.050005
 21
60.549906
 31
0.0
  0
LINE
  5
200
100
AcDbEntity
  8
0
 62
7
100
AcDbLine
 10
4.050005
 20
60.549906
 30
0.0
 11
4.050005
 21
66.549908
 31
0.0
  0
LINE
  5
201
100
AcDbEntity
  8
0
 62
7
100
AcDbLine
 10
4.050005
 20
66.549908
 30
0.0
 11
0.050001
 21
66.549908
 31
0.0
  0
LINE
  5
202
100
AcDbEntity
  8
0
 62
7
100
AcDbLine
 10
0.050001
 20
66.549908
 30
0.0
 11
0.050001
 21
72.549913
 31
0.0
  0
LINE
  5
203
100
AcDbEntity
  8
0
 62
7
100
AcDbLine
 10
0.050001
 20
72.549913
 30
0.0
 11
4.050005
 21
72.549913
 31
0.0
  0
LINE
  5
204
100
AcDbEntity
  8
0
 62
7
100
AcDbLine
 10
4.050005
 20
72.549913
 30
0.0
 11
4.050005
 21
78.549918
 31
0.0
  0
LINE
  5
205
100
AcDbEntity
  8
0
 62
7
100
AcDbLine
 10
4.050005
 20
78.549918
 30
0.0
 11
0.050001
 21
78.549918
 31
0.0
  0
LINE
  5
206
100
AcDbEntity
  8
0
 62
7
100
AcDbLine
 10
0.050001
 20
78.549918
 30
0.0
 11
0.050001
 21
84.549925
 31
0.0
  0
LINE
  5
207
100
AcDbEntity
  8
0
 62
7
100
AcDbLine
 10
0.050001
 20
84.549925
 30
0.0
 11
4.050005
 21
84.549925
 31
0.0
  0
LINE
  5
208
100
AcDbEntity
  8
0
 62
7
100
AcDbLine
 10
4.050005
 20
84.549925
 30
0.0
 11
4.050005
 21
90.549929
 31
0.0
  0
LINE
  5
209
100
AcDbEntity
  8
0
 62
7
100
AcDbLine
 10
4.050005
 20
90.549929
 30
0.0
 11
0.050001
 21
90.549929
 31
0.0
  0
LINE
  5
20a
100
AcDbEntity
  8
0
 62
7
100
AcDbLine
 10
0.050001
 20
90.549929
 30
0.0
 11
0.050001
 21
96.549934
 31
0.0
  0
LINE
  5
20b
100
AcDbEntity
  8
0
 62
7
100
AcDbLine
 10
0.050001
 20
96.549934
 30
0.0
 11
4.050005
 21
96.549934
 31
0.0
  0
LINE
  5
20c
100
AcDbEntity
  8
0
 62
7
100
AcDbLine
 10
4.050005
 20
96.549934
 30
0.0
 11
4.050005
 21
105.799941
 31
0.0
  0
LINE
  5
20d
100
AcDbEntity
  8
0
 62
7
100
AcDbLine
 10
4.050005
 20
105.799941
 30
0.0
 11
0.050001
 21
105.799941
 31
0.0
  0
LINE
  5
20e
100
AcDbEntity
  8
0
 62
7
100
AcDbLine
 10
0.050001
 20
105.799941
 30
0.0
 11
0.050001
 21
115.049949
 31
0.0
  0
LINE
  5
20f
100
AcDbEntity
  8
0
 62
7
100
AcDbLine
 10
0.071563
 20
115.060112
 30
0.0
 11
0.071563
 21
125.060120
 31
0.0
  0
LINE
  5
210
100
AcDbEntity
  8
0
 62
7
100
AcDbLine
 10
0.071563
 20
125.060120
 30
0.0
 11
4.071566
 21
125.060120
 31
0.0
  0
LINE
  5
211
100
AcDbEntity
  8
0
 62
7
100
AcDbLine
 10
4.071566
 20
125.060120
 30
0.0
 11
4.071566
 21
135.060128
 31
0.0
  0
LINE
  5
212
100
AcDbEntity
  8
0
 62
7
100
AcDbLine
 10
4.071566
 20
135.060128
 30
0.0
 11
0.071563
 21
135.060128
 31
0.0
  0
LINE
  5
213
100
AcDbEntity
  8
0
 62
7
100
AcDbLine
 10
0.071563
 20
135.060128
 30
0.0
 11
0.071563
 21
141.060133
 31
0.0
  0
LINE
  5
214
100
AcDbEntity
  8
0
 62
7
100
AcDbLine
 10
0.071563
 20
141.060133
 30
0.0
 11
4.071566
 21
141.060133
 31
0.0
  0
LINE
  5
215
100
AcDbEntity
  8
0
 62
7
100
AcDbLine
 10
4.071566
 20
141.060133
 30
0.0
 11
4.071566
 21
147.060138
 31
0.0
  0
LINE
  5
216
100
AcDbEntity
  8
0
 62
7
100
AcDbLine
 10
4.071566
 20
147.060138
 30
0.0
 11
0.071563
 21
147.060138
 31
0.0
  0
LINE
  5
217
100
AcDbEntity
  8
0
 62
7
100
AcDbLine
 10
0.071563
 20
147.060138
 30
0.0
 11
0.071563
 21
153.060143
 31
0.0
  0
LINE
  5
218
100
AcDbEntity
  8
0
 62
7
100
AcDbLine
 10
0.071563
 20
153.060143
 30
0.0
 11
4.071566
 21
153.060143
 31
0.0
  0
LINE
  5
219
100
AcDbEntity
  8
0
 62
7
100
AcDbLine
 10
4.071566
 20
153.060143
 30
0.0
 11
4.071566
 21
163.060151
 31
0.0
  0
LINE
  5
21a
100
AcDbEntity
  8
0
 62
7
100
AcDbLine
 10
4.071566
 20
163.060151
 30
0.0
 11
0.071563
 21
163.060151
 31
0.0
  0
LINE
  5
21b
100
AcDbEntity
  8
0
 62
7
100
AcDbLine
 10
0.071563
 20
163.060151
 30
0.0
 11
0.071563
 21
173.060160
 31
0.0
  0
LINE
  5
21c
100
AcDbEntity
  8
0
 62
7
100
AcDbLine
 10
0.071563
 20
173.060160
 30
0.0
 11
9.821571
 21
173.060160
 31
0.0
  0
LINE
  5
21d
100
AcDbEntity
  8
0
 62
7
100
AcDbLine
 10
9.821571
 20
173.060160
 30
0.0
 11
9.821571
 21
169.060156
 31
0.0
  0
LINE
  5
21e
100
AcDbEntity
  8
0
 62
7
100
AcDbLine
 10
9.821571
 20
169.060156
 30
0.0
 11
19.571579
 21
169.060156
 31
0.0
  0
LINE
  5
21f
100
AcDbEntity
  8
0
 62
7
100
AcDbLine
 10
19.571579
 20
169.060156
 30
0.0
 11
19.571579
 21
173.060160
 31
0.0
  0
LINE
  5
220
100
AcDbEntity
  8
0
 62
7
100
AcDbLine
 10
19.571579
 20
173.060160
 30
0.0
 11
25.571584
 21
173.060160
 31
0.0
  0
LINE
  5
221
100
AcDbEntity
  8
0
 62
7
100
AcDbLine
 10
25.571584
 20
173.060160
 30
0.0
 11
25.571584
 21
169.060156
 31
0.0
  0
LINE
  5
222
100
AcDbEntity
  8
0
 62
7
100
AcDbLine
 10
25.571584
 20
169.060156
 30
0.0
 11
31.571588
 21
169.060156
 31
0.0
  0
LINE
  5
223
100
AcDbEntity
  8
0
 62
7
100
AcDbLine
 10
31.571588
 20
169.060156
 30
0.0
 11
31.571588
 21
173.060160
 31
0.0
  0
LINE
  5
224
100
AcDbEntity
  8
0
 62
7
100
AcDbLine
 10
31.571588
 20
173.060160
 30
0.0
 11
37.571593
 21
173.060160
 31
0.0
  0
LINE
  5
225
100
AcDbEntity
  8
0
 62
7
100
AcDbLine
 10
37.571593
 20
173.060160
 30
0.0
 11
37.571593
 21
169.060156
 31
0.0
  0
LINE
  5
226
100
AcDbEntity
  8
0
 62
7
100
AcDbLine
 10
37.571593
 20
169.060156
 30
0.0
 11
43.571597
 21
169.060156
 31
0.0
  0
LINE
  5
227
100
AcDbEntity
  8
0
 62
7
100
AcDbLine
 10
43.571597
 20
169.060156
 30
0.0
 11
43.571597
 21
173.060160
 31
0.0
  0
LINE
  5
228
100
AcDbEntity
  8
0
 62
7
100
AcDbLine
 10
43.571597
 20
173.060160
 30
0.0
 11
49.571602
 21
173.060160
 31
0.0
  0
LINE
  5
229
100
AcDbEntity
  8
0
 62
7
100
AcDbLine
 10
49.571602
 20
173.060160
 30
0.0
 11
49.571602
 21
169.060156
 31
0.0
  0
LINE
  5
22a
100
AcDbEntity
  8
0
 62
7
100
AcDbLine
 10
49.571602
 20
169.060156
 30
0.0
 11
55.571610
 21
169.060156
 31
0.0
  0
LINE
  5
22b
100
AcDbEntity
  8
0
 62
7
100
AcDbLine
 10
55.571610
 20
169.060156
 30
0.0
 11
55.571610
 21
173.060160
 31
0.0
  0
LINE
  5
22c
100
AcDbEntity
  8
0
 62
7
100
AcDbLine
 10
55.571610
 20
173.060160
 30
0.0
 11
61.571615
 21
173.060160
 31
0.0
  0
LINE
  5
22d
100
AcDbEntity
  8
0
 62
7
100
AcDbLine
 10
61.571615
 20
173.060160
 30
0.0
 11
61.571615
 21
169.060156
 31
0.0
  0
LINE
  5
22e
100
AcDbEntity
  8
0
 62
7
100
AcDbLine
 10
61.571615
 20
169.060156
 30
0.0
 11
67.571620
 21
169.060156
 31
0.0
  0
LINE
  5
22f
100
AcDbEntity
  8
0
 62
7
100
AcDbLine
 10
67.571620
 20
169.060156
 30
0.0
 11
67.571620
 21
173.060160
 31
0.0
  0
LINE
  5
230
100
AcDbEntity
  8
0
 62
7
100
AcDbLine
 10
67.571620
 20
173.060160
 30
0.0
 11
73.571625
 21
173.060160
 31
0.0
  0
LINE
  5
231
100
AcDbEntity
  8
0
 62
7
100
AcDbLine
 10
73.571625
 20
173.060160
 30
0.0
 11
73.571625
 21
169.060156
 31
0.0
  0
LINE
  5
232
100
AcDbEntity
  8
0
 62
7
100
AcDbLine
 10
73.571625
 20
169.060156
 30
0.0
 11
79.571630
 21
169.060156
 31
0.0
  0
LINE
  5
233
100
AcDbEntity
  8
0
 62
7
100
AcDbLine
 10
79.571630
 20
169.060156
 30
0.0
 11
79.571630
 21
173.060160
 31
0.0
  0
LINE
  5
234
100
AcDbEntity
  8
0
 62
7
100
AcDbLine
 10
79.571630
 20
173.060160
 30
0.0
 11
85.571635
 21
173.060160
 31
0.0
  0
LINE
  5
235
100
AcDbEntity
  8
0
 62
7
100
AcDbLine
 10
85.571635
 20
173.060160
 30
0.0
 11
85.571635
 21
169.060156
 31
0.0
  0
LINE
  5
236
100
AcDbEntity
  8
0
 62
7
100
AcDbLine
 10
85.571635
 20
169.060156
 30
0.0
 11
95.321642
 21
169.060156
 31
0.0
  0
LINE
  5
237
100
AcDbEntity
  8
0
 62
7
100
AcDbLine
 10
95.321642
 20
169.060156
 30
0.0
 11
95.321642
 21
173.060160
 31
0.0
  0
LINE
  5
238
100
AcDbEntity
  8
0
 62
7
100
AcDbLine
 10
95.321642
 20
173.060160
 30
0.0
 11
105.071649
 21
173.060160
 31
0.0
  0
LINE
  5
239
100
AcDbEntity
  8
0
 62
7
100
AcDbLine
 10
105.071649
 20
173.060160
 30
0.0
 11
105.071649
 21
163.060151
 31
0.0
  0
LINE
  5
23a
100
AcDbEntity
  8
0
 62
7
100
AcDbLine
 10
105.071649
 20
163.060151
 30
0.0
 11
101.071646
 21
163.060151
 31
0.0
  0
LINE
  5
23b
100
AcDbEntity
  8
0
 62
7
100
AcDbLine
 10
101.071646
 20
163.060151
 30
0.0
 11
101.071646
 21
153.060143
 31
0.0
  0
LINE
  5
23c
100
AcDbEntity
  8
0
 62
7
100
AcDbLine
 10
101.071646
 20
153.060143
 30
0.0
 11
105.071649
 21
153.060143
 31
0.0
  0
LINE
  5
23d
100
AcDbEntity
  8
0
 62
7
100
AcDbLine
 10
105.071649
 20
153.060143
 30
0.0
 11
105.071649
 21
147.060138
 31
0.0
  0
LINE
  5
23e
100
AcDbEntity
  8
0
 62
7
100
AcDbLine
 10
105.071649
 20
147.060138
 30
0.0
 11
101.071646
 21
147.060138
 31
0.0
  0
LINE
  5
23f
100
AcDbEntity
  8
0
 62
7
100
AcDbLine
 10
101.071646
 20
147.060138
 30
0.0
 11
101.071646
 21
141.060133
 31
0.0
  0
LINE
  5
240
100
AcDbEntity
  8
0
 62
7
100
AcDbLine
 10
101.071646
 20
141.060133
 30
0.0
 11
105.071649
 21
141.060133
 31
0.0
  0
LINE
  5
241
100
AcDbEntity
  8
0
 62
7
100
AcDbLine
 10
105.071649
 20
141.060133
 30
0.0
 11
105.071649
 21
135.060128
 31
0.0
  0
LINE
  5
242
100
AcDbEntity
  8
0
 62
7
100
AcDbLine
 10
105.071649
 20
135.060128
 30
0.0
 11
101.071646
 21
135.060128
 31
0.0
  0
LINE
  5
243
100
AcDbEntity
  8
0
 62
7
100
AcDbLine
 10
101.071646
 20
135.060128
 30
0.0
 11
101.071646
 21
125.060120
 31
0.0
  0
LINE
  5
244
100
AcDbEntity
  8
0
 62
7
100
AcDbLine
 10
101.071646
 20
125.060120
 30
0.0
 11
105.071649
 21
125.060120
 31
0.0
  0
LINE
  5
245
100
AcDbEntity
  8
0
 62
7
100
AcDbLine
 10
105.071649
 20
125.060120
 30
0.0
 11
105.071649
 21
115.060112
 31
0.0
  0
SPLINE
  5
246
100
AcDbEntity
  8
0
 62
7
100
AcDbSpline
 70
8
 71
3
 72
8
 73
4
 74
0
 40
0
 40
0
 40
0
 40
0
 40
1
 40
1
 40
1
 40
1
 10
10.782429
 20
164.287103
 30
0.0
 10
10.782429
 20
163.486289
 30
0.0
 10
10.133239
 20
162.837102
 30
0.0
 10
9.332429
 20
162.837102
 30
0.0
  0
SPLINE
  5
247
100
AcDbEntity
  8
0
 62
7
100
AcDbSpline
 70
8
 71
3
 72
8
 73
4
 74
0
 40
0
 40
0
 40
0
 40
0
 40
1
 40
1
 40
1
 40
1
 10
9.332429
 20
162.837102
 30
0.0
 10
8.531615
 20
162.837102
 30
0.0
 10
7.882425
 20
163.486289
 30
0.0
 10
7.882425
 20
164.287103
 30
0.0
  0
SPLINE
  5
248
100
AcDbEntity
  8
0
 62
7
100
AcDbSpline
 70
8
 71
3
 72
8
 73
4
 74
0
 40
0
 40
0
 40
0
 40
0
 40
1
 40
1
 40
1
 40
1
 10
7.882425
 20
164.287103
 30
0.0
 10
7.882425
 20
165.087917
 30
0.0
 10
8.531615
 20
165.737103
 30
0.0
 10
9.332429
 20
165.737103
 30
0.0
  0
SPLINE
  5
249
100
AcDbEntity
  8
0
 62
7
100
AcDbSpline
 70
8
 71
3
 72
8
 73
4
 74
0
 40
0
 40
0
 40
0
 40
0
 40
1
 40
1
 40
1
 40
1
 10
9.332429
 20
165.737103
 30
0.0
 10
10.133239
 20
165.737103
 30
0.0
 10
10.782429
 20
165.087917
 30
0.0
 10
10.782429
 20
164.287103
 30
0.0
  0
LINE
  5
24a
100
AcDbEntity
  8
0
 62
7
100
AcDbLine
 10
10.782429
 20
164.287103
 30
0.0
 11
10.782429
 21
164.287103
 31
0.0
  0
SPLINE
  5
24b
100
AcDbEntity
  8
0
 62
7
100
AcDbSpline
 70
8
 71
3
 72
8
 73
4
 74
0
 40
0
 40
0
 40
0
 40
0
 40
1
 40
1
 40
1
 40
1
 10
98.119764
 20
164.314462
 30
0.0
 10
98.119764
 20
163.513648
 30
0.0
 10
97.470575
 20
162.864461
 30
0.0
 10
96.669764
 20
162.864461
 30
0.0
  0
SPLINE
  5
24c
100
AcDbEntity
  8
0
 62
7
100
AcDbSpline
 70
8
 71
3
 72
8
 73
4
 74
0
 40
0
 40
0
 40
0
 40
0
 40
1
 40
1
 40
1
 40
1
 10
96.669764
 20
162.864461
 30
0.0
 10
95.868950
 20
162.864461
 30
0.0
 10
95.219760
 20
163.513648
 30
0.0
 10
95.219760
 20
164.314462
 30
0.0
  0
SPLINE
  5
24d
100
AcDbEntity
  8
0
 62
7
100
AcDbSpline
 70
8
 71
3
 72
8
 73
4
 74
0
 40
0
 40
0
 40
0
 40
0
 40
1
 40
1
 40
1
 40
1
 10
95.219760
 20
164.314462
 30
0.0
 10
95.219760
 20
165.115276
 30
0.0
 10
95.868950
 20
165.764463
 30
0.0
 10
96.669764
 20
165.764463
 30
0.0
  0
SPLINE
  5
24e
100
AcDbEntity
  8
0
 62
7
100
AcDbSpline
 70
8
 71
3
 72
8
 73
4
 74
0
 40
0
 40
0
 40
0
 40
0
 40
1
 40
1
 40
1
 40
1
 10
96.669764
 20
165.764463
 30
0.0
 10
97.470575
 20
165.764463
 30
0.0
 10
98.119764
 20
165.115276
 30
0.0
 10
98.119764
 20
164.314462
 30
0.0
  0
LINE
  5
24f
100
AcDbEntity
  8
0
 62
7
100
AcDbLine
 10
98.119764
 20
164.314462
 30
0.0
 11
98.119764
 21
164.314462
 31
0.0
  0
LINE
  5
250
100
AcDbEntity
  8
0
 62
7
100
AcDbLine
 10
133.076916
 20
152.979312
 30
0.0
 11
129.076913
 21
152.979312
 31
0.0
  0
LINE
  5
251
100
AcDbEntity
  8
0
 62
7
100
AcDbLine
 10
129.076913
 20
152.979312
 30
0.0
 11
129.076913
 21
146.979307
 31
0.0
  0
LINE
  5
252
100
AcDbEntity
  8
0
 62
7
100
AcDbLine
 10
129.076913
 20
146.979307
 30
0.0
 11
133.076916
 21
146.979307
 31
0.0
  0
LINE
  5
253
100
AcDbEntity
  8
0
 62
7
100
AcDbLine
 10
133.076916
 20
146.979307
 30
0.0
 11
133.076916
 21
140.979302
 31
0.0
  0
LINE
  5
254
100
AcDbEntity
  8
0
 62
7
100
AcDbLine
 10
133.076916
 20
140.979302
 30
0.0
 11
129.076913
 21
140.979302
 31
0.0
  0
LINE
  5
255
100
AcDbEntity
  8
0
 62
7
100
AcDbLine
 10
129.076913
 20
140.979302
 30
0.0
 11
129.076913
 21
134.979297
 31
0.0
  0
LINE
  5
256
100
AcDbEntity
  8
0
 62
7
100
AcDbLine
 10
129.076913
 20
134.979297
 30
0.0
 11
133.076916
 21
134.979297
 31
0.0
  0
LINE
  5
257
100
AcDbEntity
  8
0
 62
7
100
AcDbLine
 10
133.076916
 20
134.979297
 30
0.0
 11
133.076916
 21
124.979289
 31
0.0
  0
LINE
  5
258
100
AcDbEntity
  8
0
 62
7
100
AcDbLine
 10
133.076916
 20
124.979289
 30
0.0
 11
129.076913
 21
124.979289
 31
0.0
  0
LINE
  5
259
100
AcDbEntity
  8
0
 62
7
100
AcDbLine
 10
129.076913
 20
124.979289
 30
0.0
 11
129.076913
 21
114.979281
 31
0.0
  0
LINE
  5
25a
100
AcDbEntity
  8
0
 62
7
100
AcDbLine
 10
129.076913
 20
114.979281
 30
0.0
 11
138.826921
 21
114.979281
 31
0.0
  0
LINE
  5
25b
100
AcDbEntity
  8
0
 62
7
100
AcDbLine
 10
138.826921
 20
114.979281
 30
0.0
 11
138.826921
 21
118.979284
 31
0.0
  0
LINE
  5
25c
100
AcDbEntity
  8
0
 62
7
100
AcDbLine
 10
138.826921
 20
118.979284
 30
0.0
 11
148.576929
 21
118.979284
 31
0.0
  0
LINE
  5
25d
100
AcDbEntity
  8
0
 62
7
100
AcDbLine
 10
148.576929
 20
118.979284
 30
0.0
 11
148.576929
 21
114.979281
 31
0.0
  0
LINE
  5
25e
100
AcDbEntity
  8
0
 62
7
100
AcDbLine
 10
148.576929
 20
114.979281
 30
0.0
 11
154.576934
 21
114.979281
 31
0.0
  0
LINE
  5
25f
100
AcDbEntity
  8
0
 62
7
100
AcDbLine
 10
154.576934
 20
114.979281
 30
0.0
 11
154.576934
 21
118.979284
 31
0.0
  0
LINE
  5
260
100
AcDbEntity
  8
0
 62
7
100
AcDbLine
 10
154.576934
 20
118.979284
 30
0.0
 11
160.576937
 21
118.979284
 31
0.0
  0
LINE
  5
261
100
AcDbEntity
  8
0
 62
7
100
AcDbLine
 10
160.576937
 20
118.979284
 30
0.0
 11
160.576937
 21
114.979281
 31
0.0
  0
LINE
  5
262
100
AcDbEntity
  8
0
 62
7
100
AcDbLine
 10
160.576937
 20
114.979281
 30
0.0
 11
166.576942
 21
114.979281
 31
0.0
  0
LINE
  5
263
100
AcDbEntity
  8
0
 62
7
100
AcDbLine
 10
166.576942
 20
114.979281
 30
0.0
 11
166.576942
 21
118.979284
 31
0.0
  0
LINE
  5
264
100
AcDbEntity
  8
0
 62
7
100
AcDbLine
 10
166.576942
 20
118.979284
 30
0.0
 11
172.576947
 21
118.979284
 31
0.0
  0
LINE
  5
265
100
AcDbEntity
  8
0
 62
7
100
AcDbLine
 10
172.576947
 20
118.979284
 30
0.0
 11
172.576947
 21
114.979281
 31
0.0
  0
LINE
  5
266
100
AcDbEntity
  8
0
 62
7
100
AcDbLine
 10
172.576947
 20
114.979281
 30
0.0
 11
178.576952
 21
114.979281
 31
0.0
  0
LINE
  5
267
100
AcDbEntity
  8
0
 62
7
100
AcDbLine
 10
178.576952
 20
114.979281
 30
0.0
 11
178.576952
 21
118.979284
 31
0.0
  0
LINE
  5
268
100
AcDbEntity
  8
0
 62
7
100
AcDbLine
 10
178.576952
 20
118.979284
 30
0.0
 11
184.576960
 21
118.979284
 31
0.0
  0
LINE
  5
269
100
AcDbEntity
  8
0
 62
7
100
AcDbLine
 10
184.576960
 20
118.979284
 30
0.0
 11
184.576960
 21
114.979281
 31
0.0
  0
LINE
  5
26a
100
AcDbEntity
  8
0
 62
7
100
AcDbLine
 10
184.576960
 20
114.979281
 30
0.0
 11
190.576965
 21
114.979281
 31
0.0
  0
LINE
  5
26b
100
AcDbEntity
  8
0
 62
7
100
AcDbLine
 10
190.576965
 20
114.979281
 30
0.0
 11
190.576965
 21
118.979284
 31
0.0
  0
LINE
  5
26c
100
AcDbEntity
  8
0
 62
7
100
AcDbLine
 10
190.576965
 20
118.979284
 30
0.0
 11
196.576970
 21
118.979284
 31
0.0
  0
LINE
  5
26d
100
AcDbEntity
  8
0
 62
7
100
AcDbLine
 10
196.576970
 20
118.979284
 30
0.0
 11
196.576970
 21
114.979281
 31
0.0
  0
LINE
  5
26e
100
AcDbEntity
  8
0
 62
7
100
AcDbLine
 10
196.576970
 20
114.979281
 30
0.0
 11
202.576975
 21
114.979281
 31
0.0
  0
LINE
  5
26f
100
AcDbEntity
  8
0
 62
7
100
AcDbLine
 10
202.576975
 20
114.979281
 30
0.0
 11
202.576975
 21
118.979284
 31
0.0
  0
LINE
  5
270
100
AcDbEntity
  8
0
 62
7
100
AcDbLine
 10
202.576975
 20
118.979284
 30
0.0
 11
208.576980
 21
118.979284
 31
0.0
  0
LINE
  5
271
100
AcDbEntity
  8
0
 62
7
100
AcDbLine
 10
208.576980
 20
118.979284
 30
0.0
 11
208.576980
 21
114.979281
 31
0.0
  0
LINE
  5
272
100
AcDbEntity
  8
0
 62
7
100
AcDbLine
 10
208.576980
 20
114.979281
 30
0.0
 11
214.576985
 21
114.979281
 31
0.0
  0
LINE
  5
273
100
AcDbEntity
  8
0
 62
7
100
AcDbLine
 10
214.576985
 20
114.979281
 30
0.0
 11
214.576985
 21
118.979284
 31
0.0
  0
LINE
  5
274
100
AcDbEntity
  8
0
 62
7
100
AcDbLine
 10
214.576985
 20
118.979284
 30
0.0
 11
224.326992
 21
118.979284
 31
0.0
  0
LINE
  5
275
100
AcDbEntity
  8
0
 62
7
100
AcDbLine
 10
224.326992
 20
118.979284
 30
0.0
 11
224.326992
 21
114.979281
 31
0.0
  0
LINE
  5
276
100
AcDbEntity
  8
0
 62
7
100
AcDbLine
 10
224.326992
 20
114.979281
 30
0.0
 11
234.076999
 21
114.979281
 31
0.0
  0
LINE
  5
277
100
AcDbEntity
  8
0
 62
7
100
AcDbLine
 10
234.076999
 20
114.979281
 30
0.0
 11
234.076999
 21
124.979289
 31
0.0
  0
LINE
  5
278
100
AcDbEntity
  8
0
 62
7
100
AcDbLine
 10
234.076999
 20
124.979289
 30
0.0
 11
230.076996
 21
124.979289
 31
0.0
  0
LINE
  5
279
100
AcDbEntity
  8
0
 62
7
100
AcDbLine
 10
230.076996
 20
124.979289
 30
0.0
 11
230.076996
 21
134.979297
 31
0.0
  0
LINE
  5
27a
100
AcDbEntity
  8
0
 62
7
100
AcDbLine
 10
230.076996
 20
134.979297
 30
0.0
 11
234.076999
 21
134.979297
 31
0.0
  0
LINE
  5
27b
100
AcDbEntity
  8
0
 62
7
100
AcDbLine
 10
234.076999
 20
134.979297
 30
0.0
 11
234.076999
 21
140.979302
 31
0.0
  0
LINE
  5
27c
100
AcDbEntity
  8
0
 62
7
100
AcDbLine
 10
234.076999
 20
140.979302
 30
0.0
 11
230.076996
 21
140.979302
 31
0.0
  0
LINE
  5
27d
100
AcDbEntity
  8
0
 62
7
100
AcDbLine
 10
230.076996
 20
140.979302
 30
0.0
 11
230.076996
 21
146.979307
 31
0.0
  0
LINE
  5
27e
100
AcDbEntity
  8
0
 62
7
100
AcDbLine
 10
230.076996
 20
146.979307
 30
0.0
 11
234.076999
 21
146.979307
 31
0.0
  0
LINE
  5
27f
100
AcDbEntity
  8
0
 62
7
100
AcDbLine
 10
234.076999
 20
146.979307
 30
0.0
 11
234.076999
 21
152.979312
 31
0.0
  0
LINE
  5
280
100
AcDbEntity
  8
0
 62
7
100
AcDbLine
 10
234.076999
 20
152.979312
 30
0.0
 11
230.076996
 21
152.979312
 31
0.0
  0
LINE
  5
281
100
AcDbEntity
  8
0
 62
7
100
AcDbLine
 10
230.076996
 20
152.979312
 30
0.0
 11
230.076996
 21
162.979320
 31
0.0
  0
LINE
  5
282
100
AcDbEntity
  8
0
 62
7
100
AcDbLine
 10
230.076996
 20
162.979320
 30
0.0
 11
234.076999
 21
162.979320
 31
0.0
  0
LINE
  5
283
100
AcDbEntity
  8
0
 62
7
100
AcDbLine
 10
234.076999
 20
162.979320
 30
0.0
 11
234.076999
 21
172.979328
 31
0.0
  0
LINE
  5
284
100
AcDbEntity
  8
0
 62
7
100
AcDbLine
 10
234.076999
 20
172.979328
 30
0.0
 11
129.076913
 21
172.979328
 31
0.0
  0
LINE
  5
285
100
AcDbEntity
  8
0
 62
7
100
AcDbLine
 10
129.076913
 20
172.979328
 30
0.0
 11
129.076913
 21
162.979320
 31
0.0
  0
LINE
  5
286
100
AcDbEntity
  8
0
 62
7
100
AcDbLine
 10
129.076913
 20
162.979320
 30
0.0
 11
133.076916
 21
162.979320
 31
0.0
  0
LINE
  5
287
100
AcDbEntity
  8
0
 62
7
100
AcDbLine
 10
133.076916
 20
162.979320
 30
0.0
 11
133.076916
 21
152.979312
 31
0.0
  0
SPLINE
  5
288
100
AcDbEntity
  8
0
 62
7
100
AcDbSpline
 70
8
 71
3
 72
8
 73
4
 74
0
 40
0
 40
0
 40
0
 40
0
 40
1
 40
1
 40
1
 40
1
 10
139.469096
 20
123.757646
 30
0.0
 10
139.469096
 20
124.558460
 30
0.0
 10
138.819906
 20
125.207647
 30
0.0
 10
138.019095
 20
125.207647
 30
0.0
  0
SPLINE
  5
289
100
AcDbEntity
  8
0
 62
7
100
AcDbSpline
 70
8
 71
3
 72
8
 73
4
 74
0
 40
0
 40
0
 40
0
 40
0
 40
1
 40
1
 40
1
 40
1
 10
138.019095
 20
125.207647
 30
0.0
 10
137.218282
 20
125.207647
 30
0.0
 10
136.569092
 20
124.558460
 30
0.0
 10
136.569092
 20
123.757646
 30
0.0
  0
SPLINE
  5
28a
100
AcDbEntity
  8
0
 62
7
100
AcDbSpline
 70
8
 71
3
 72
8
 73
4
 74
0
 40
0
 40
0
 40
0
 40
0
 40
1
 40
1
 40
1
 40
1
 10
136.569092
 20
123.757646
 30
0.0
 10
136.569092
 20
122.956832
 30
0.0
 10
137.218282
 20
122.307645
 30
0.0
 10
138.019095
 20
122.307645
 30
0.0
  0
SPLINE
  5
28b
100
AcDbEntity
  8
0
 62
7
100
AcDbSpline
 70
8
 71
3
 72
8
 73
4
 74
0
 40
0
 40
0
 40
0
 40
0
 40
1
 40
1
 40
1
 40
1
 10
138.019095
 20
122.307645
 30
0.0
 10
138.819906
 20
122.307645
 30
0.0
 10
139.469096
 20
122.956832
 30
0.0
 10
139.469096
 20
123.757646
 30
0.0
  0
LINE
  5
28c
100
AcDbEntity
  8
0
 62
7
100
AcDbLine
 10
139.469096
 20
123.757646
 30
0.0
 11
139.469096
 21
123.757646
 31
0.0
  0
SPLINE
  5
28d
100
AcDbEntity
  8
0
 62
7
100
AcDbSpline
 70
8
 71
3
 72
8
 73
4
 74
0
 40
0
 40
0
 40
0
 40
0
 40
1
 40
1
 40
1
 40
1
 10
226.806433
 20
123.730287
 30
0.0
 10
226.806433
 20
124.531101
 30
0.0
 10
226.157242
 20
125.180288
 30
0.0
 10
225.356431
 20
125.180288
 30
0.0
  0
SPLINE
  5
28e
100
AcDbEntity
  8
0
 62
7
100
AcDbSpline
 70
8
 71
3
 72
8
 73
4
 74
0
 40
0
 40
0
 40
0
 40
0
 40
1
 40
1
 40
1
 40
1
 10
225.356431
 20
125.180288
 30
0.0
 10
224.555617
 20
125.180288
 30
0.0
 10
223.906427
 20
124.531101
 30
0.0
 10
223.906427
 20
123.730287
 30
0.0
  0
SPLINE
  5
28f
100
AcDbEntity
  8
0
 62
7
100
AcDbSpline
 70
8
 71
3
 72
8
 73
4
 74
0
 40
0
 40
0
 40
0
 40
0
 40
1
 40
1
 40
1
 40
1
 10
223.906427
 20
123.730287
 30
0.0
 10
223.906427
 20
122.929473
 30
0.0
 10
224.555617
 20
122.280286
 30
0.0
 10
225.356431
 20
122.280286
 30
0.0
  0
SPLINE
  5
290
100
AcDbEntity
  8
0
 62
7
100
AcDbSpline
 70
8
 71
3
 72
8
 73
4
 74
0
 40
0
 40
0
 40
0
 40
0
 40
1
 40
1
 40
1
 40
1
 10
225.356431
 20
122.280286
 30
0.0
 10
226.157242
 20
122.280286
 30
0.0
 10
226.806433
 20
122.929473
 30
0.0
 10
226.806433
 20
123.730287
 30
0.0
  0
LINE
  5
291
100
AcDbEntity
  8
0
 62
7
100
AcDbLine
 10
226.806433
 20
123.730287
 30
0.0
 11
226.806433
 21
123.730287
 31
0.0
  0
SPLINE
  5
292
100
AcDbEntity
  8
0
 62
7
100
AcDbSpline
 70
8
 71
3
 72
8
 73
4
 74
0
 40
0
 40
0
 40
0
 40
0
 40
1
 40
1
 40
1
 40
1
 10
38.711598
 20
15.324167
 30
0.0
 10
38.711598
 20
16.124981
 30
0.0
 10
38.062408
 20
16.774166
 30
0.0
 10
37.261597
 20
16.774166
 30
0.0
  0
SPLINE
  5
293
100
AcDbEntity
  8
0
 62
7
100
AcDbSpline
 70
8
 71
3
 72
8
 73
4
 74
0
 40
0
 40
0
 40
0
 40
0
 40
1
 40
1
 40
1
 40
1
 10
37.261597
 20
16.774166
 30
0.0
 10
36.460783
 20
16.774166
 30
0.0
 10
35.811593
 20
16.124981
 30
0.0
 10
35.811593
 20
15.324167
 30
0.0
  0
SPLINE
  5
294
100
AcDbEntity
  8
0
 62
7
100
AcDbSpline
 70
8
 71
3
 72
8
 73
4
 74
0
 40
0
 40
0
 40
0
 40
0
 40
1
 40
1
 40
1
 40
1
 10
35.811593
 20
15.324167
 30
0.0
 10
35.811593
 20
14.523353
 30
0.0
 10
36.460783
 20
13.874166
 30
0.0
 10
37.261597
 20
13.874166
 30
0.0
  0
SPLINE
  5
295
100
AcDbEntity
  8
0
 62
7
100
AcDbSpline
 70
8
 71
3
 72
8
 73
4
 74
0
 40
0
 40
0
 40
0
 40
0
 40
1
 40
1
 40
1
 40
1
 10
37.261597
 20
13.874166
 30
0.0
 10
38.062408
 20
13.874166
 30
0.0
 10
38.711598
 20
14.523353
 30
0.0
 10
38.711598
 20
15.324167
 30
0.0
  0
LINE
  5
296
100
AcDbEntity
  8
0
 62
7
100
AcDbLine
 10
38.711598
 20
15.324167
 30
0.0
 11
38.711598
 21
15.324167
 31
0.0
  0
SPLINE
  5
297
100
AcDbEntity
  8
0
 62
7
100
AcDbSpline
 70
8
 71
3
 72
8
 73
4
 74
0
 40
0
 40
0
 40
0
 40
0
 40
1
 40
1
 40
1
 40
1
 10
70.067393
 20
15.324167
 30
0.0
 10
70.067393
 20
16.124981
 30
0.0
 10
69.418203
 20
16.774166
 30
0.0
 10
68.617392
 20
16.774166
 30
0.0
  0
SPLINE
  5
298
100
AcDbEntity
  8
0
 62
7
100
AcDbSpline
 70
8
 71
3
 72
8
 73
4
 74
0
 40
0
 40
0
 40
0
 40
0
 40
1
 40
1
 40
1
 40
1
 10
68.617392
 20
16.774166
 30
0.0
 10
67.816578
 20
16.774166
 30
0.0
 10
67.167387
 20
16.124981
 30
0.0
 10
67.167387
 20
15.324167
 30
0.0
  0
SPLINE
  5
299
100
AcDbEntity
  8
0
 62
7
100
AcDbSpline
 70
8
 71
3
 72
8
 73
4
 74
0
 40
0
 40
0
 40
0
 40
0
 40
1
 40
1
 40
1
 40
1
 10
67.167387
 20
15.324167
 30
0.0
 10
67.167387
 20
14.523353
 30
0.0
 10
67.816578
 20
13.874166
 30
0.0
 10
68.617392
 20
13.874166
 30
0.0
  0
SPLINE
  5
29a
100
AcDbEntity
  8
0
 62
7
100
AcDbSpline
 70
8
 71
3
 72
8
 73
4
 74
0
 40
0
 40
0
 40
0
 40
0
 40
1
 40
1
 40
1
 40
1
 10
68.617392
 20
13.874166
 30
0.0
 10
69.418203
 20
13.874166
 30
0.0
 10
70.067393
 20
14.523353
 30
0.0
 10
70.067393
 20
15.324167
 30
0.0
  0
LINE
  5
29b
100
AcDbEntity
  8
0
 62
7
100
AcDbLine
 10
70.067393
 20
15.324167
 30
0.0
 11
70.067393
 21
15.324167
 31
0.0
  0
ENDSEC
  0
SECTION
  2
OBJECTS
  0
DICTIONARY
  5
C
330
0
100
AcDbDictionary
  3
ACAD_GROUP
350
D
  3
ACAD_MLINESTYLE
350
17
  0
DICTIONARY
  5
D
330
C
100
AcDbDictionary
  0
DICTIONARY
  5
1A
330
C
100
AcDbDictionary
  0
DICTIONARY
  5
17
330
C
100
AcDbDictionary
  3
STANDARD
350
18
  0
DICTIONARY
  5
19
330
C
100
AcDbDictionary
  0
ENDSEC
  0
EOF
